<svg xmlns="http://www.w3.org/2000/svg" viewBox="0 0 73.4 73.4"><path fill="#20A7E0" d="M44.7 27.8c0 2.9-.8 5.1-2.5 6.6s-4 2.3-7 2.3h-5.5V19.4h5.4c6.4 0 9.6 2.8 9.6 8.4zm28.7 8.9c0 6.4-1.6 12.4-4.7 18.1-3.2 5.6-7.6 10.1-13.3 13.5-5.7 3.4-11.9 5.1-18.7 5.1-6.7 0-13-1.7-18.7-5.1C12.4 65 7.9 60.5 4.8 54.8 1.6 49.2 0 43.2 0 36.7c0-6.5 1.6-12.6 4.9-18.3 3.3-5.7 7.7-10.2 13.4-13.5C24 1.6 30.1 0 36.7 0 43.2 0 49.3 1.6 55 4.9c5.7 3.3 10.2 7.7 13.5 13.4 3.3 5.7 4.9 11.8 4.9 18.4zM48.2 58.2h5.9L42.5 39c2.3-1.1 4.1-2.6 5.4-4.6 1.3-2 1.9-4.2 1.9-6.8 0-4.2-1.3-7.3-3.9-9.3-2.6-2-6.2-3-10.8-3H24.8v43h4.9V40.6h8.2l10.3 17.6z"/></svg>