<svg xmlns="http://www.w3.org/2000/svg" viewBox="0 0 110.2 110.1"><path d="M0 55.1c0-9.8 2.4-18.9 7.3-27.5 4.9-8.5 11.6-15.3 20.1-20.2C36 2.5 45.2 0 55.1 0 64.8 0 74 2.4 82.5 7.3s15.3 11.6 20.2 20.1c4.9 8.5 7.4 17.8 7.4 27.6 0 9.6-2.4 18.7-7.1 27.1-4.7 8.4-11.4 15.2-19.9 20.3-8.5 5.1-17.9 7.6-28.1 7.6-10.1 0-19.4-2.5-28-7.6-8.5-5.1-15.2-11.8-20-20.3-4.6-8.3-7-17.4-7-27zm6.8 0c0 8.7 2.2 16.7 6.5 24.1s10.2 13.3 17.6 17.6c7.4 4.3 15.5 6.5 24.2 6.5s16.7-2.2 24.1-6.5 13.3-10.2 17.6-17.6c4.3-7.4 6.5-15.5 6.5-24.2 0-8.5-2.1-16.4-6.3-23.8-4.2-7.4-10-13.3-17.5-17.8C72.1 9 63.9 6.7 55.1 6.7c-8.6 0-16.6 2.2-24.1 6.5-7.4 4.3-13.3 10.3-17.7 17.8C9 38.5 6.8 46.5 6.8 55.1zm67.9-13.7c0 3.9-.9 7.3-2.8 10.2-1.9 3-4.6 5.3-8.1 6.9l17.4 28.8h-8.9L56.9 60.9H44.6v26.4h-7.4V22.9h15.5c7 0 12.4 1.5 16.3 4.5 3.8 3 5.7 7.7 5.7 14zM44.6 55.1h8.2c4.4 0 7.9-1.1 10.5-3.4 2.5-2.3 3.8-5.6 3.8-9.9 0-8.4-4.8-12.6-14.4-12.6h-8.1v25.9z"/></svg>