<?xml version="1.0" encoding="utf-8"?>
<!-- Generator: Adobe Illustrator 19.0.1, SVG Export Plug-In . SVG Version: 6.00 Build 0)  -->
<!DOCTYPE svg PUBLIC "-//W3C//DTD SVG 1.1//EN" "http://www.w3.org/Graphics/SVG/1.1/DTD/svg11.dtd">
<svg version="1.1" id="Layer_1" xmlns="http://www.w3.org/2000/svg" xmlns:xlink="http://www.w3.org/1999/xlink" x="0px" y="0px"
	 viewBox="0 0 73.4 73.4" enable-background="new 0 0 73.4 73.4" xml:space="preserve">
<path d="M44.7,27.8c0,2.9-0.8,5.1-2.5,6.6c-1.7,1.5-4,2.3-7,2.3h-5.5V19.4h5.4C41.5,19.4,44.7,22.2,44.7,27.8z M73.4,36.7
	c0,6.4-1.6,12.4-4.7,18.1c-3.2,5.6-7.6,10.1-13.3,13.5c-5.7,3.4-11.9,5.1-18.7,5.1c-6.7,0-13-1.7-18.7-5.1
	C12.4,65,7.9,60.5,4.8,54.8C1.6,49.2,0,43.2,0,36.7c0-6.5,1.6-12.6,4.9-18.3c3.3-5.7,7.7-10.2,13.4-13.5C24,1.6,30.1,0,36.7,0
	C43.2,0,49.3,1.6,55,4.9c5.7,3.3,10.2,7.7,13.5,13.4C71.8,24,73.4,30.1,73.4,36.7z M48.2,58.2h5.9L42.5,39c2.3-1.1,4.1-2.6,5.4-4.6
	c1.3-2,1.9-4.2,1.9-6.8c0-4.2-1.3-7.3-3.9-9.3c-2.6-2-6.2-3-10.8-3H24.8v43h4.9V40.6h8.2L48.2,58.2z"/>
</svg>
