<?xml version="1.0" encoding="utf-8"?>
<!-- Generator: Adobe Illustrator 19.0.1, SVG Export Plug-In . SVG Version: 6.00 Build 0)  -->
<!DOCTYPE svg PUBLIC "-//W3C//DTD SVG 1.1//EN" "http://www.w3.org/Graphics/SVG/1.1/DTD/svg11.dtd">
<svg version="1.1" id="chart_1_" xmlns="http://www.w3.org/2000/svg" xmlns:xlink="http://www.w3.org/1999/xlink" x="0px" y="0px"
	 viewBox="0 0 257.2 257.1" enable-background="new 0 0 257.2 257.1" xml:space="preserve">
<circle id="base" fill="none" stroke="#E4EAEC" stroke-width="30" stroke-miterlimit="10" cx="128.6" cy="128.6" r="113.4"/>
<path id="slice" fill="none" stroke="#9AC6E2" stroke-width="30" stroke-miterlimit="10" d="M128.6,15.2
	c62.6,0,113.4,50.8,113.4,113.4S191.2,242,128.6,242S15.2,191.2,15.2,128.6c0-39.1,19.8-73.7,50-94"/>
<path id="js" fill="#FFFFFF" d="M176.9,98h0.9v-3.9c0-0.2,0-0.4,0-0.7c0-0.3,0-0.6,0-0.7v-0.2l1.9,5.6h0.9l1.9-5.6c0,0.4,0,0.7,0,1
	c0,0.3,0,0.5,0,0.7V98h0.9v-6.6h-1.3L180,97l-1.9-5.6h-1.3V98L176.9,98z M170.7,91.4v0.8h2.2V98h0.9v-5.8h2.2v-0.8H170.7L170.7,91.4
	z M153.4,137.5c0-8.5-5.7-10.8-17.9-12.4c-12.2-1.6-13.5-2.5-13.5-5.3c0-2.4,1.1-5.5,10.1-5.5c8.1,0,11.1,1.7,12.3,7.2
	c0.1,0.5,0.6,0.9,1.1,0.9h5.1c0.3,0,0.6-0.1,0.8-0.4c0.2-0.2,0.3-0.6,0.3-0.9c-0.8-9.4-7-13.8-19.7-13.8c-11.2,0-17.9,4.7-17.9,12.7
	c0,8.6,6.7,11,17.4,12.1c12.9,1.3,13.9,3.1,13.9,5.7c0,4.4-3.5,6.3-11.8,6.3c-10.4,0-12.7-2.6-13.5-7.8c-0.1-0.6-0.6-1-1.1-1h-5.1
	c-0.6,0-1.1,0.5-1.1,1.1c0,6.6,3.6,14.5,20.8,14.5C146.3,151,153.4,146.1,153.4,137.5L153.4,137.5z M121.6,182.3
	c-1.4,0-2.9-0.4-4.1-1.1l-13.2-7.8c-2-1.1-1-1.5-0.4-1.7c2.6-0.9,3.1-1.1,5.9-2.7c0.3-0.2,0.7-0.1,1,0.1l10.1,6
	c0.4,0.2,0.9,0.2,1.2,0l39.4-22.7c0.4-0.2,0.6-0.6,0.6-1.1v-45.5c0-0.4-0.2-0.9-0.6-1.1L122.3,82c-0.4-0.2-0.8-0.2-1.2,0l-39.4,22.7
	c-0.4,0.2-0.6,0.6-0.6,1.1v45.5c0,0.4,0.2,0.8,0.6,1.1l10.8,6.2c5.9,2.9,9.4-0.5,9.4-4v-44.9c0-0.6,0.5-1.1,1.1-1.1h5
	c0.6,0,1.1,0.5,1.1,1.1v44.9c0,7.8-4.3,12.3-11.7,12.3c-2.3,0-4.1,0-9.1-2.5l-10.3-5.9c-2.6-1.5-4.1-4.2-4.1-7.2v-45.5
	c0-3,1.6-5.7,4.1-7.2l39.4-22.8c2.5-1.4,5.8-1.4,8.3,0l39.4,22.8c2.6,1.5,4.1,4.2,4.1,7.2v45.5c0,3-1.6,5.7-4.1,7.2l-39.4,22.7
	C124.5,181.9,123.1,182.3,121.6,182.3L121.6,182.3z"/>
</svg>
