<?xml version="1.0" encoding="utf-8"?>
<!-- Generator: Adobe Illustrator 19.0.1, SVG Export Plug-In . SVG Version: 6.00 Build 0)  -->
<!DOCTYPE svg PUBLIC "-//W3C//DTD SVG 1.1//EN" "http://www.w3.org/Graphics/SVG/1.1/DTD/svg11.dtd">
<svg version="1.1" id="map" xmlns="http://www.w3.org/2000/svg" xmlns:xlink="http://www.w3.org/1999/xlink" x="0px" y="0px"
	 viewBox="0 0 316.3 342.9" enable-background="new 0 0 316.3 342.9" xml:space="preserve">
<path id="Brazil" fill="#20A7E0" d="M185.6,45.5L185.6,45.5L185.6,45.5l-0.2-0.2l0.4-0.7l0.1-0.4L186,44l0.2,0l0.3-0.1l0.6-0.3
	l0.4-0.1l0.2,0.1l0.1,0.2l0.2,0.1l0.2,0.1l0.1,0l0.1,0.1l0.1,0.1l0,0.1l0,0l0,0.1l0,0l0.1,0.1l0,0l0,0.2l-0.1,0.1l-0.3,0.3l-0.2,0.1
	l-0.5,0.2l-0.2,0.1l-0.5,0.5l-0.2,0.1l-0.3,0.2l-0.2,0.2l-0.1,0l-0.1-0.1l-0.2-0.1l0-0.1l0-0.1l0,0l-0.3-0.1l-0.2-0.3l0-0.3
	L185.6,45.5z M190.4,40.4L190.4,40.4l-0.2,0l0,0l-0.1,0.1l-0.2,1l0,0l-0.1,0l0,0l0,0l-0.1,0l-0.1,0l-0.1,0.1l0,0.1l0,0.2l0,0.1
	l0.1,0.1l0.1,0.1l0.1,0l0.2,0l0.1,0l0.2,0.1l0.1,0l0-0.1l0-0.1l0-0.1l0.1-0.2l0.2-0.1l0.1,0l0.1,0l0.1,0l0.1-0.2l0.1-0.1l0.1-0.2
	l0-0.3l-0.1-0.2l-0.1-0.2l0-0.1l0-0.1l0.1-1l0-0.4l-0.1-0.3l0,0l0,0l0,0v0l-0.1,0.1l-0.3,0.4l-0.1,0.1l0,0.1l0,0.2l0,0.2l0,0.1
	l0,0.1l0,0.1l0,0L190.4,40.4L190.4,40.4L190.4,40.4z M198,57.7l-0.1,0l-0.1,0.1l-0.1,0l-0.1,0l-0.1,0.1l0,0.1l0,0.2l0,0.1l0.1,0.2
	l0.1,0.1l0.1,0l0.1-0.1l0.1-0.1l0.2-0.1l0.1,0l0.1-0.1l0-0.1l0-0.1l-0.1-0.1L198,57.7z M199.2,58.4l-0.1-0.1l0-0.1l-0.2,0l-0.1,0.1
	l-0.2,0.2l-0.2,0.1l-0.1,0.1l0,0.1l0,0.2l0,0.1l-0.2,0.2l0,0.1l0.1,0.1l0.1,0.1l0.3,0.1l0.1,0.1l0.1-0.1l0.2-0.2l0.2-0.3l0.1,0
	l0.1-0.1l0.1-0.2l0-0.2l-0.1-0.1L199.2,58.4L199.2,58.4z M198.5,45.6l0,0.2l0.1,0.2l0.1,0.1l0,0.1l-0.1,0l-0.2-0.2l-0.1,0l-0.2,0
	l-0.1,0l-0.2,0l-0.3,0.1l-1.1,0l-1.1-0.4l-1.7-0.4l-0.2,0l-0.5-0.2l-1.4-0.2l-0.4-0.1l-0.2,0l-0.1,0.1l-0.1,0.1l-0.1,0.2l-0.1,0.1
	l-0.1,0.1l-0.1,0l-0.1,0l-0.2,0l-0.2,0l-0.1,0.1l-0.1,0.1l-0.1,0.1l-0.1,0l-0.1,0h-0.1l-0.1,0l-0.1,0.2l0,0l-0.1,0l-0.3,0.2
	l-0.1,0.1l-0.1,0.3l0,0.2l0,0.1l0,0l-0.1,0.1l0,0l0,0.1l0,0.3l-0.1,0.5l0,0.1l0,0.2l0,0.2l0.2,0.5l0,0.2l0,0.1l0.1,0.1l0.5,0.1
	l0.4,0.1l0.1,0.1l0,0.1l0,0l0,0l-0.2,0l-0.1,0l-0.2,0l-0.6-0.3l-0.1-0.1l0-0.2l-0.1-0.2l-0.1-0.2l-0.1-0.1l-0.3,0.9l0,0.4l0,0l0.1,0
	l0,0l0,0l-0.1,0.1l0,0l0,0.2l0,0.1l0.1,0.1l0.1,0.1l0.1,0.1l0,0.2l-0.1-0.1l-0.1-0.1l-0.1,0l-0.1,0.1l0,0.1l0,0.1l-0.1,0.1l0,0.1
	l0,0.3l0,0.6l0,0.3l0.1,0.1l0.1,0.2l0,0.1l0.1,0.1l0.2,0.1l0.6,0l0.1,0l0.1,0l0.2-0.1l0.1,0l0.2,0l0.2-0.1l0.1-0.1l0.1-0.1l0.1-0.1
	l0.1,0l0.1,0l0.1,0.1l-0.2,0l-0.1,0l-0.1,0l-0.1,0.1l0,0l-0.1,0.2l0.1,0l0.1,0.1l0,0.1l-0.1,0.1l0,0l-0.2,0l-0.1,0l-0.1,0.1
	l-0.2,0.1l0.4,0.3l0.1,0.2l-0.4-0.2l-0.1,0l-0.4-0.1l-0.5-0.2l-0.3-0.2l-0.1,0l-0.1,0.1l0.1,0.2l0.1,0.2l0.1,0.2l0,0.2l-0.3,1l0,0.2
	l0,0.1l0.1,0.3l0,0l0,0l0,0l0,0.1h0l-0.1,0.1l0,0l0,0.2l0,0.1l0.1,0.1l0.2,0.3l0,0.1l0.1,0.2l0.1,0.2l1.2,1.3l0.2,0.4l-0.2,0
	l-0.1,0.1l-0.1,0.1l0,0.1l0.1,0l0.2,0.1l0.1,0l1.2,0.3l0.2,0l0.2,0l0.2-0.1l0.2-0.1l-0.1-0.1l-0.2-0.1l-0.2-0.1l0.2,0l0.2,0l0.2,0
	l0.1-0.1l0-0.2l-0.2-0.6h0.1l0.2,0.6l0,0.2h0.1l0-0.2l0-0.4l0.1-0.1l0-0.1l-0.1-0.1l-0.2-0.1l-0.1-0.1l0-0.1l0-0.1l0.1-0.1l0.1-0.1
	l0,0l0,0h0l0,0l0,0l0,0l0,0l-0.1-0.3l0-0.1l0.1-0.1l0,0.1l0,0.1l0,0.1l0,0.1l0.1,0.1l0,0.1l0,0l-0.1,0.1l0,0l-0.1,0l0,0l0,0.1l0,0.1
	l0.1,0l0.1,0l0.1,0l0,0.1l0,0.6l0,0.2l0.1,0.1l0.3,0.1l0.1,0.1l0.1,0.1l0.1,0.1l0.5-0.3l0-0.1l0.2-0.2l0.1-0.1l0-0.2l0-0.1l0-0.1
	l0.2,0l0,0l-0.1,0.4v0l0,0l0.2,0.2l0,0l0.2,0l0.1,0l0.2,0.1l0.2,0l0.1,0.1l0.1,0.1l0.1,0.1l0.1,0l0.2,0l0.1,0l0.1,0.1L195,59
	l0.1,0.1l0.1,0l0.1,0l0.2-0.1l0.3-0.2l0.1-0.1l0-0.1l0-0.1l0-0.1l0-0.1l-0.2-0.5l0-0.2l0-0.1l0.1-0.3l0-0.1l0,0.1l-0.1,0.2l0,0.1
	l0,0.1l0.1,0.2l0.1,0.4l0.1,0.2l0.1,0.2l0.2,0l0.1-0.1l0.2-0.3l0.2-0.1l0.4,0.1l0.1,0l0.1-0.2l0-0.1l-0.1,0v-0.1h0.1l-0.1-0.1l0-0.1
	l0-0.1l0.1,0l0.1,0l0.1-0.1l0-0.1l-0.1-0.1l0,0l0,0l0,0l0,0v-0.4l0-0.1l-0.1-0.1l-0.1-0.1l-0.1-0.1l0.1,0l0.1,0l0.1,0l0.1,0l0.1,0.5
	l0,0.1l0,0.3l0.1,0.2l0.2,0.1l0.1,0l0.1,0l0.3,0.1l0.1-0.1l0-0.2l-0.2-0.2l-0.3-0.2l0-0.2l0.1-0.2l0.1-0.2l0.1-0.1l0,0.1l0,0.1
	l0,0.1l0,0.1l0,0.1l0.3,0.3l0.2,0.1l0.1,0.1l0.2,0.1l0.2,0l0.1,0l0.3,0l0.3-0.1l0.2-0.2l-0.1,0l0,0l-0.1,0.1l0-0.1l-0.1,0l-0.1,0
	l-0.1-0.1l0.1,0l0.1,0l0,0l0,0l0,0.1l0,0l0,0l0,0l0.1,0l-0.2-0.1l0-0.2l0.2-0.6v-0.2l-0.1-0.2l-0.1-0.1l0.1-0.1l0.1,0l0,0.1l0,0h0.2
	l0,0.1l0.2,0.4l0,0.1l0.1,0.3l0,0.1l0,0l0,0l0,0l0.1,0l0.1,0l0,0.1l0,0.1l0.1,0l0.1,0l0.1,0l0.1-0.1l0.4-0.1l0.1,0l0.1-0.1l0-0.1
	l0.1,0l0.1,0.1l0.1,0l0-0.1l0-0.1l0-0.1l0.1-0.1l0.1-0.1l0.1,0l0.1,0v-0.1l-0.3-0.2l-0.1,0l0,0l0-0.1l0,0l0,0l-0.2,0l0-0.1l0-0.1
	l0-0.1l-0.1,0l-0.1,0l-0.2,0.2l-0.1,0l0.1-0.1l0-0.1l0-0.1l0-0.1V55l0.2-0.1l0.1-0.1l-0.1-0.1l-0.3,0l0.2-0.1l0.2,0.1l0.7,0.9
	l0.2,0.1h0.1l0.2-0.6l0.1-0.5l0-0.1l-0.1-0.1l-0.1,0l-0.2,0l-0.1,0v-0.1l0.2,0l0.1-0.1l0-0.2l-0.1-0.1l-0.2-0.1l-0.2-0.1l-0.1-0.2
	l-0.1-0.2l0-0.1l0.1,0.2l0.2,0.2l0.2,0.1l0.2,0l0.2-0.1l0.3-0.3l0.1-0.1l0.2-0.1l0.4-0.3l0.1-0.1l0.1-0.1l0.1-0.2l0-0.1l-0.2,0v-0.1
	l0.2-0.1l0,0l0-0.1l-0.1,0l-0.1,0l-0.1,0l-0.1-0.1l0,0l0.1,0l0.1-0.1l0.1-0.2l0-0.1l0-0.1l0.2-0.1l0.4-0.2l0.2-0.2l0.1-0.2l0-0.2
	l0-0.2l-0.1-0.2l0.1-0.2l-0.1-0.2l-0.2-0.3l-0.1-0.3l0.3,0.3l0.2,0.1l0.2,0.1l0-0.2l0.1-0.2l0-0.1l-0.1-0.1l0.1-0.1l0-0.1l0-0.2
	l0.1-0.3l0-0.1l0-0.5l0.1-0.2l0.2-0.3l0.1-0.3l0.1-0.1l0.1,0l0.1-0.1l0.1-0.1l0-0.1l0-0.1l0-0.4l0-0.1l-0.1-0.1l-0.1-0.1l-0.1-0.1
	h-0.1l-0.2-0.1l-0.9-0.1l-0.5-0.1l-0.2,0l-0.2,0l-0.3,0.1l-0.1,0l-0.9-0.2l-0.3,0l-0.3,0.1l0-0.1l0.1-0.1l0-0.2l-0.1-0.1l-0.3,0
	l-0.2,0.1l-0.1,0.1l-0.2,0l-0.1-0.1l-0.1-0.1l-0.1,0l-0.5-0.1l-0.2,0.1l-0.1-0.1l-0.1,0l-0.1,0l-0.1,0l-0.1,0l-0.1-0.1l-0.1,0
	l-0.1,0l-0.2,0.1l-0.2,0l-0.1,0l-0.1,0l-0.1,0l-0.1,0l0,0h0l-0.1,0l-0.5,0.3L198.5,45.6z M192.6,41.2l-0.5,0.3l-0.1,0.2l0,0.1
	l0.4-0.1l0.5-0.3l0.1-0.1l0-0.1l-0.1-0.2l-0.2,0L192.6,41.2z M191.1,39.8l0,0.3l0,0.4l0.1,0.3l0.2,0.2l0.3,0l0.2-0.1l0.2-0.1
	l0.3-0.2l1-0.8l0.1-0.1l0.1-0.1l0,0l0-0.1l0-0.1l0,0l0-0.2l0-0.1l0-0.1l-0.2-0.3l-0.1,0l-0.2,0.1l-0.2,0.1l-0.1,0.1l0,0.1l0.2,0.1
	l0,0.1l-0.2-0.2l-0.1-0.1l-0.1,0.1l-0.1,0l-0.4,0l-0.1,0.1l0.1,0.1l0,0.1l-0.2,0.1l-0.2,0.2L191.1,39.8z M189.2,42.4l-0.2-0.1
	l-0.2,0l-0.2,0.2l-0.1,0.1l0,0.1l0.1,0.2l0,0.1l0,0.1l0,0.1l0,0.1l0,0.1l0.1,0.1l0.1,0l0,0l0,0.2l0,0.1l0.1,0.1l0.1,0.1l0.1,0h0.3
	l0,0l0,0l0.1,0l0.1,0l0.1,0l0.3,0l0.1-0.1l0-0.1l0-0.2l-0.1-0.2l0-0.2l0-0.2l0-0.1l-0.2-0.2l-0.2-0.1l-0.2-0.1l-0.2,0L189.2,42.4z
	 M192.6,36.3l-0.2,0.2l-0.5,0.2l-0.4,0.4l-0.1,0.3l0.1,0.2l0.3,0l0.3,0l0.4,0l0.2,0l0.1,0l0.1,0l0.2-0.2l0.1-0.2l0.1-0.1l0.1-0.1
	l0.1-0.3l0.1-0.2l0.1-0.2l-0.1-0.1l-0.3,0l-0.2-0.1l-0.2,0L192.6,36.3z M244.2,64.1L244.2,64.1l0.2,0.1l0,0l0-0.1l0,0l0.1,0l0.1-0.1
	l0.1,0h0.2l0.1,0l0,0l0-0.1l0-0.1l0.1-0.1l0-0.1l0-0.2l0-0.1l0.1-0.1l0.1-0.1l0-0.1l0-0.1l-0.2,0l-0.1,0l-0.1,0l-0.1,0l-0.1,0
	l-0.1,0.1l-0.1,0.1l-0.1,0.2l-0.1,0.1l0,0.2l0,0.2l-0.1,0.2l-0.1,0.1L244.2,64.1L244.2,64.1z M257.2,66.5l0.2,0l0,0.1l0,0.1l0.1,0
	l0.1,0v0.1l-0.1,0l-0.1,0l0.1,0.1l0.1,0l0.1,0l0.2,0l0.1,0l0.1,0l0.1,0l0-0.1l0-0.1l0-0.1l0-0.1h0l0,0l0,0l0,0l-0.1-0.1l-0.1-0.1
	l-0.1-0.1l-0.6,0l-0.1,0l0.3,0.2L257.2,66.5z M245.2,63.8L245.2,63.8l0.1,0.2l0.1,0l0.1,0.1l0.1,0v0l0-0.1l0.1-0.1l0-0.2l0-0.1
	l-0.2,0l-0.1,0l-0.1,0L245.2,63.8L245.2,63.8z M243.4,64.3L243.4,64.3l0,0.2l-0.1,0.1l0,0.1v0l0,0.1l0.1,0.1l0.1,0l0.2-0.1l0.1-0.1
	l0-0.2l0-0.1l0-0.1l-0.1-0.2h-0.1l-0.1,0.1l0,0l-0.1,0.1l0,0l-0.1,0v0l0-0.2l0-0.1l0-0.1l-0.1,0l-0.1,0.1l0,0l-0.1,0.1L243.4,64.3
	L243.4,64.3z M256.2,66.7l0.3,0.1l0.2,0.1l0.2,0.1l0.3,0l0.2,0l0-0.1l-0.1-0.1l-0.2-0.2l-0.1-0.1l-0.3,0l-0.1-0.2l-0.1-0.1l-0.1-0.1
	l-0.1,0l-0.1,0.1l0,0.2L256.2,66.7z M207.3,52.3L207.3,52.3l0.2,0.1l0.4,0l0.1,0l0.1-0.1l0-0.1l0.1-0.2l0.3-0.5l0-0.3l-0.2-0.1v-0.1
	l0.2,0l-0.1-0.1l-0.3-0.3l-0.4,0.2l-0.1,0.1l0,0.1l-0.2,0.3l-0.1,0.2l-0.2,0.3l-0.1,0.2l0,0.2L207.3,52.3z M210.1,49.9l0,0.1
	l0.4-0.2l0.2-0.1l0.1-0.2l-0.1-0.1l-0.2-0.1l-0.2,0l-0.1,0l0,0l0,0l-0.1,0l-0.1,0l0,0l0,0.1l0,0.1l0.1,0.1l0,0.1l-0.1,0.1l0,0l0,0.1
	L210.1,49.9z M206.5,52.8l-0.1,0.1l-0.1,0.3l0,0.1l-0.2,0.1l-0.1,0.1l0,0.1l0.1,0l0.1,0.1l0.2,0.2l0.1,0l0.1-0.1l0,0.1l0,0.1l0,0.1
	l0.1,0l0.1-0.1l0.1,0l0.1,0l0.1-0.1l0-0.1l0-0.2l0,0l0.1-0.2l-0.1-0.1l-0.1-0.3l-0.1-0.1l-0.4,0L206.5,52.8z M211.8,49.1l0.3,0.1
	l0.1,0.3l0,0.2l0,0.1l0.1,0l0.2,0l0.1,0l0-0.1l0-0.1l0-0.1l0-0.1l0.1-0.2l0-0.2l-0.1-0.1l-0.1-0.1l-0.2,0l-0.1-0.1l0-0.1l-0.1-0.1
	l-0.2,0l-0.1,0l0,0.1l-0.1,0l0,0.1l0.1,0.3L211.8,49.1z M234,55.5l0.2,0.1l0.1,0l0-0.2l0.1,0l0.1,0l0.1,0l0.1-0.1l0-0.1l0.1-0.1
	l0.1-0.1l0.1,0l-0.1,0l-0.1-0.1l0-0.1l0-0.1l0.1,0l0.1,0l0.1,0l0,0.1h0.1l0.1-0.3l0-0.1l-0.1-0.1l-0.1-0.1l-0.1,0l-0.1,0l-0.1,0
	l-0.1,0.1l-0.1,0l-0.2-0.1l-0.1,0.1l0,0.1l0,0.1l0.1,0.1l0,0.2l-0.1,0.3l0-0.1l0-0.1l-0.1-0.1l-0.1,0l-0.1,0.1l0,0.1l0,0.2l0.1,0.1
	L234,55.5z M193.2,36.2l0.3-0.1l0.1,0l0.1,0l0,0l0.1-0.1l0.3-0.2l0.1-0.1l0-0.1l0.1-0.1l0.1-0.1l0.2-0.3l-0.1-0.1l-0.2,0.1l-0.2,0.2
	l-0.3,0.1l-0.1,0.1l-0.1,0.1l-0.1,0.1l-0.1,0.2l-0.2,0.1l-0.2,0.2l0,0.2L193.2,36.2L193.2,36.2z M185.3,281.4
	c-2.9,0-5.3,2.4-5.3,5.3s2.4,5.3,5.3,5.3c2.9,0,5.3-2.4,5.3-5.3S188.2,281.4,185.3,281.4z M316.3,103.8l0,0.1l0,0.1l0,0.1v1.2
	l-0.1,0.6l0,0.3l0.1,0.3l-0.1,0.2l0,0l0,0l-0.1,0l-0.1,0l-0.3,0l-0.1,0h0l0,0l-0.1,0l-0.1,0.1l0.5,0l0.2,0.1l0,0.2l0.1,0.1l0.1,0.1
	l0,0.1l-0.1,0.1l-0.1,0.1l-0.1,0.2l-0.1,0l0-0.1l0-0.1v-0.1l0,0.1l0,0.1l0,0.1l-0.2-0.3l0-0.1l0,0.2l0.1,0.4l0,0.2l-0.1,0l-0.1,0
	l-0.1,0.1l-0.1,0.1l0.2-0.1l0.1-0.1l0.1,0l0,0l0,0.1l-0.1,0.1l-0.1,0.1l-0.1,0.1l0,0.4l0.1,0.1l0.3,0.1l0,0.1l0,0.1l0,0.3l0.1-0.2
	l0.1,0.1l0.1,0.2l0,0.1l0,0.1l0,0l0,0l0,0.1l-0.1,0.2l-0.2,0.8l0,0.1l0,0.1l-0.1,0l-0.1-0.1l-0.2-0.2l-0.1-0.1l-0.1,0l0.1,0.1
	l0.1,0.1l0,0.1l0,0.1l0,0.1l0,0.1l0.1,0.1l0-0.1l0-0.1l0,0.1l-0.1,0.3l0,0.3l0,0.1l-0.1,0.2l-0.1,0.2l-0.1,0.3l0,0.3l0,0.2l0,0.1
	l0,0l0,0l-0.1,0.1l0,0.1l0,0.1l-0.6,1.6l-0.4,0.7l0,0.1l-0.1,0.1l0,0.2l0,0.3l-0.1,0.2l-0.2,0.4l-0.1,0.2l0,0.4l-0.1,0.3l0,0
	l-0.3,0.6l-0.3,0.5l-0.2,0.6l-0.2,0.3l-0.1,0.3l-0.7,1l-0.2,0.1v-0.1l-0.2,0.1l-0.2,0.2l-0.2,0.2l-0.1,0.2l0,0.1l-0.6,1l-0.1,0.1
	l-0.4,0.3l-0.2,0.1l-0.1,0.3l-0.2,0.5l-0.1,0l-0.1,0l-0.2,0l-0.1,0l-0.1,0l-0.1,0.1l0.1-0.2l0.1-0.1l0-0.2l-0.2-0.3l-0.1-0.1
	l-0.1-0.1l-0.1,0l-0.1,0.1l0,0.1l0.1,0.2l0,0.1v0.2l0,0.1l-0.1,0l-0.1,0l-0.4,0.4l0,0l-0.1-0.1l-0.1-0.2l0-0.1l-0.3-0.4l0-0.1
	l-0.1-0.1l-0.2-0.1l-0.2,0.1l0.1,0.1l0.2,0.2l0.1,0.1l0.1,0.1l0.2,0.7l0,0.1l0.1,0l0,0l0-0.1l0,0l0.3,0l0.1,0l0.1-0.1l-0.1,0.2
	l-0.4,0.4l-0.2,0.5l-0.2,0.2l-0.4,0.3l-0.2,0.4l-0.1,0.1l-0.1,0.1l-0.1,0.1l-0.3,0.6l-0.1,0.1l-0.3,0.1l-0.4,0.6l-0.9,0.8l-0.2,0.3
	l-0.1,0.1l0,0.2l0,0.1l0,0.1l0,0l0,0.1l-0.9,1.3l0,0l-0.1,0.1l-0.3,0.1l-0.2,0l-0.2,0l-0.1,0.1l-0.1,0.1l-0.3,0.1l0,0l-0.1,0.1l0,0
	l-0.1,0l-1.3,0.8l-1.1,0.8l-0.4,0.5l-0.1,0.2l-0.1,0.2l-0.4,0.4l-0.1,0.1l0,0.1l0,0.2l0,0.1l-0.6,1l-0.1,0.1l-0.1,0l0-0.1l0-0.1
	l0-0.1l0-0.1l0,0l0,0l0-0.1h-0.1l0,0.1l-0.1-0.1l-0.1-0.3l-0.1,0l-0.3-0.1l-0.1,0l0,0l-0.1,0l-0.1,0.1l0,0.1l0,0.1l0,0.1l0.1,0.1
	l0,0.1l0.1,0l0.1,0l0.1,0l0.1,0l0.1,0.1l0.1,0l0.1,0v0.1l-0.1-0.1l-0.1,0l0,0.1l0.1,0.1l0.1,0l0,0l0,0l0,0l0.1,0l0.1,0l0,0.1l0,0.1
	l0.1,0.1l0,0.3l0.1,0.1v-0.1l0.1,0.1l-0.2,0.1l-0.2,0.1l-0.2,0.1l-0.1,0.2l0,0.1l-0.1,0.1l-0.1,0l-0.1,0l0,0.1l-0.1,0.3l-0.2,0.8
	l-0.1,0.1l-0.4,0.1l-0.1,0l0-0.1l0-0.1v-0.1l-0.1,0l0.2-0.3l0-0.1l0-0.2l0-0.1l0.1-0.1l0.3-0.3l0.1-0.1l0,0l0.1,0l-0.1-0.1l0-0.2
	l-0.1-0.1l0,0.2l0,0.1l0,0.1h0l-0.1-0.3l-0.1-0.2l-0.1-0.1l0,0.2l0.2,0.4l0,0.2l-0.1-0.1l-0.2-0.1l0,0.1l0,0.1l0,0l0,0.1l0,0.1
	l-0.1,0l-0.1,0l-0.1,0l-0.1,0.1l-0.1,0.1l-0.1,0.2l-0.1,0.4l-0.1,0.1l-0.1,0l-0.1-0.1l-0.1-0.3l0,0.1l0,0.1l-0.1,0l-0.1-0.1l0.1,0.3
	l0.1,0.1l0.1,0.1l0.3,0.1l0,0.1l-0.1,0.3l-0.2,0.2l-0.3,0.1l-0.2,0.1l0.1,0l0.1,0l0.2,0l0.2-0.1l0.1-0.1l0.1-0.1l0.1-0.1l0.1-0.1
	l0.1,0l-0.1,0.2l-0.5,0.8l-0.6,1.3l0,0.3l-0.1,0.1l-0.2,0.2l-0.5,1.2l-0.2,0.4l-0.2,0.5l-0.5,0.7l-0.6,1.1l-0.7,1l-0.5,0.8l-0.5,0.7
	L290,150l-0.1,0.1l-0.1,0.1l-0.6,0.7l-0.5,0.7l-0.6,0.6l-0.2,0.3l-0.2,0.1l-0.2,0.1l-0.1,0l-0.2,0l-0.1,0l-0.1,0l-0.2,0.2l-0.2,0.1
	l-0.2,0.1l-0.2,0.1l-0.2,0l0-0.1l0.2-0.3l0.1-0.3l0.1-0.1l0.1,0l0.1,0.2l0-0.2l-0.1-0.1l0-0.1l0.1-0.3l0-0.1l-0.1-0.1l0,0l0-0.1l0,0
	l-0.1-0.1l0,0l0,0l0,0l0,0l-0.1-0.6l-0.1,0l-0.1,0l-0.1-0.1l-0.1-0.1l-0.3,0.1l-0.2-0.1l-0.1-0.2l-0.1-0.4l-0.1,0l-0.1,0l-0.1-0.1
	l-0.1-0.1l0-0.1l0-0.1l0-0.2h0l-0.2,0.3l-0.1,0.1l0,0.2v0.2l0,0.1l0,0l0,0l0,0l-0.1,0.2l0,0.1l0.1,0.1l-0.3,0.6l-0.1,0.1l0,0
	l-0.1,0.1l-0.1,0l-0.1,0l-0.1-0.1l-0.1,0l-0.1-0.1l-0.1-0.2l-0.2-0.6l0-0.1l0.1-0.1l0.2-0.1l-0.1-0.2h-0.1l0,0.1l-0.1,0.1l-0.1,0.1
	l-0.1,0.1l-0.1,0.1l0,0.1l0,0.1l-0.1,0l0.1,0.1l0.1,0.2l0.1,0.1l0.1,0.1l0.1,0l0,0l0.1,0.1l0,0l0,0.1l0,0.1l0,0.1l0.1,0l0.2,0.1
	l0.1,0.1l0.1-0.1l0.1,0l0.1,0l0,0.1l0,0.1l0,0.1l0.1,0l0.1,0l0.1,0l0.1,0l0.1,0l-0.1,0.1l0,0l0,0.1l0,0.1l0,0.1l0,0.1l0,0.2l0,0.1
	l0,0.1l-0.1,0.1l-0.2,0.2l-0.1,0.1l-0.1,0.1l-0.2,0.1l-0.2,0.1l-0.2,0l-0.1,0l0,0.1l0,0.1l0,0.1l0,0.1l0,0l0,0l0.1,0l0.6,0.1l0,0.1
	l-0.1,0l-0.1,0l-0.1,0l-0.1,0.1l-0.2,0.2l-0.5,0.3l-0.1,0.1l-0.1,0.2l0,0.4l-0.1,0.2l0.1,0.3l0,0.1l-0.1,0.1l-0.2-0.1l-0.1,0l-0.1,0
	l-0.2,0.1l0-0.1l0-0.1l0-0.1l0-0.1l-0.2,0.6l0,0.3l0.1,0.3l-0.1,0.1l-0.1,0.1l0,0.2l0,0.2l0,0.4l-0.1,0.1l-0.2,0v0.1l0.2,0l0.1-0.1
	l0-0.4l0-0.2l0.1-0.2l0.2-0.1l0.2,0.1l0,0.1l0,0.2l0.1,0.1l0,0.1l0,0.1l0,0.1l0,0.1l0,0.2l0.1,0.2l0.1,0.2l0.1,0.2l0,0.2l-0.1,0.2
	l-0.1,0.2l0,0.2l0,0.5l0,0.2l0.1,0.1l0,0.1l-0.1,0l-0.1,0l-0.1,0l-0.2-0.1l-0.1-0.1l0-0.1l0-0.1l0-0.1l-0.1-0.1l-0.1,0l-0.1,0
	l-0.1-0.1l0,0l0,0l0,0l0-0.2l-0.1,0l-0.1,0l-0.2,0l-0.1,0.1l-0.1,0.2l0,0.1l0.2-0.2l0,0.1l0,0.1l0,0.1l0,0.1l0.4,0.2l0.1,0.1
	l0.1,0.3l0.1,0.1l0.3,0.1l0,0.1l0,0.1l-0.1,0l-0.2,0l-0.1,0l-0.1-0.1l-0.1,0.2l0,0.1l0.1,0.3l0.1,0l0.1,0.1l0.2,0.1l0.1,0.1l0.1,0.1
	l0,0.1l0,0.1l0,0.1l0,0.1l0.1,0.2l0,0.1l0,0.1l-0.1,0l-0.3,0l-0.1,0l-0.1-0.1l-0.1,0.1l0,0.1l0.1,0.1l-0.1,0.1l0,0.1l0,0.1l0,0.1
	l0.1,0.1l0.1,0l0.1,0.1l0,0.1h0l-0.2-0.4l-0.1-0.2l0.2-0.1l0.2,0l0.2-0.1l0.4-0.2l0-0.1l0-0.1l0-0.1l-0.1,0l0,0l0-0.1l0-0.2l0,0l0,0
	l0,0l0,0l0,0l0.1,0l0,0l0-0.1l0-0.1l-0.1,0l-0.1,0l0,0l0-0.1l-0.1,0l0-0.1l0.1-0.1l0.1-0.1l0.1-0.1l0.1-0.1l0.1,0l0,0.1l0,0.7l0,0.2
	l-0.2,0.8l-0.1,0.2l0,0.1l0,0.1l0,0.2l0,0.1l-0.1,0.3l0,0.1v0.4l0.1,0.3l0,0.1l-0.1,0.1l-0.1,0.1l0,0.1l0,0.1l-0.1,0.1l0,0.1l0,0.1
	l0,0.1l-0.2,0.4l-0.1,0.7l-0.1,0.5l0,0.3l-0.1,0.3l0,0.2l0.1,0.7l0,0.1l0.1,0.1l0,0.1l-0.1,0l-0.1,0l0,0.1l0,0.1l0.1,0l0.1,0l0.1,0
	l0,0.4l0,0.4l0.1,0.6l0.1,2.3l0.2,0.8l0.1,0.7l0.2,1.3l0.2,1.3l0.2,0.4l0.1,0.2l0,0.1l0,0.3l0,0.1l0.1,0.2l0,0.1l0,0.1l-0.2,0.3
	l0,0.1l0,0.2l-0.2,0.6l0,0.2l0,0.1l-0.1,0.2l0,0.1l0,0.7l0,0.1l-0.3,0.6l-0.1,0.2l0,0.2l0,0.2l0,0.3l-0.1,0.2l-0.3,0.5l0,0.1l0,0.1
	l-0.1,0.2l-0.3,1.6l-0.4,1.2v0.4l0,0.1l0.1,0.2l0,0.1l0,0.1l-0.2,0.5l-0.2,1.1l-0.1,0.3l-0.1,0.3l-0.1,0.2l-0.1,1.2l0.1,0.8l0.2,0.4
	l0,0.2l0,1.1l0,0.2l0.1,0.3l0.2,0.2l0.1,0.2l-0.1,0.3l-0.9,1l-0.1,0.1l0,0.1l0,0.1l0,0.1l-0.1,0l-0.1,0l-0.2,0.1l-0.5,0.1l-0.3,0.2
	l-0.3,0.2l-0.4,0.5l-1,1.6l-0.3,0.7l-0.1,0.4l0,0l-0.4,1.7l-0.2,1.4l0,1.9l0.2,1.7l0.2,1.3l0,1.2l-0.1,0.4l-0.6,1.6l-0.2,0.3
	l-0.2,0.2l-0.9,0.4l-0.5,0.4l-0.1,0.2l-0.5,1.2l0,0.2l-0.1,0.1l-0.4,0.1l-0.1,0.1h0.2l0,0.1l-0.1,0.5l-0.1,0l-0.1,0l-0.1,0l-0.1,0.1
	l0,0.1l0,0.1l0.1,0.2l0,0.1l0,0.1l-0.1,0.2l-0.1,0.6l0,0.1l-0.1,0.1l-0.2,0.4l-0.1,0.1l-0.1,0.1l0,0l0,0l-0.1-0.1l-0.1,0l-0.1,0.1
	l-0.1,0.1l-0.1,0l-0.1-0.1l0-0.3l-0.1-0.1l-0.1,0l-0.2,0l-0.3,0l0.1,0.1l0,0.1l0,0.1l-0.2,0v0.1l0,0l0,0l0.1,0l-0.1,0.2l0,0.2l0.1,0
	l0.2,0l0,0.1l0.1,0l0.1-0.1l0.1,0l0.2,0.1l-0.1,0.1l-0.1,0.1l-0.1,0.2l-0.1,0.4l-0.2,0.3l-0.1,0.4l-0.4,0.6l-0.2,0.4l-0.1,0.1
	l-0.1-0.1l-0.2,0.2l-0.1,0.1l-0.3,0.6l-0.1,0.1l-0.2,0.2l-0.1,0.1l-0.1,0.4l-0.2,0l-0.1,0.2l-0.1,0l0-0.1l0-0.1l0-0.1l-0.1,0l-0.1,0
	l0,0l-0.3,0.2l-0.2,0.1l-0.1,0.1l-0.1,0.1l0,0.2l-0.1,0.1l0,0.1l-0.1,0.1l-0.1,0.1l-0.1,0.3l0,0.3l0,0.2l0,0.2l-0.1,0.1l-0.1,0.2
	l0,0.1l0,0.1l-0.6,0.9l-0.2,0.4l-0.1,0.3l0,0l0,0.1l0,0.1l0,0.2l0,0.1l0,0.3l-0.2,0.2l-0.3,0.5l-0.3,0.2l-0.1,0.1l-0.1,0.4l0.1,0.3
	l0.3,0.4l0,0.4l-0.1,0.6l0.1,0.9l0.3,1.1l0,0.4l-0.2,0.2l-1.2,0.7l-0.8,0.4l-0.8,0.2l-1,0.3l-0.7,0.3l-0.9,0.4l-0.6,0.4L260,235
	l0,0.1l0,0.2l0,0.1l-0.1,0.1l-0.3,0.2l-0.1,0.1l-0.2,0.3l0,0l-0.1,0l-0.1,0l-0.1,0l0,0l-0.1,0.2l-0.1,0.1l-0.3,0.1l-0.2,0.3
	l-0.1,0.4l0,0.4l0,0.4l0.1,0.1l0.3,0.3l0.1,0.1l0,0l0.1-0.1l0.1-0.1l0.1,0l0.2,0l0.1,0l0,0.2l-0.1,0.1l-0.1,0.1l0,0.1l-0.2-0.1
	l-0.1,0.1l-0.2,0.2l-0.2,0.1l-0.1,0l-0.1,0l0,0.1l0,0.1l0,0.2l0,0.1l0,0.1l-0.1,0l-0.1,0l0,0l0,0l0,0.1l0,0.2l0,0.2l0.1,0.1l0.1-0.1
	h0.1l0,0.1l0,0.1l-0.1,0.2l-0.1,0l-0.2-0.2l-0.1,0l-0.9,0l-1.6-0.1l-1.3,0l-0.7,0l-0.3,0.1l-0.1,0l0,0l-0.1,0.1l-0.1,0l-0.6,0
	l-0.8,0.1l-0.6,0l-0.8,0l-0.2-0.2l-0.1-0.1l-0.1,0.1l-0.1-0.1l-0.2-0.1l-0.1-0.1l0.1,0l0,0l0.1,0l0.1-0.1l0-0.1l-0.1-0.1l-0.1,0
	l-0.1,0l0-0.1l0.1-0.2l0.1-0.2l0.2-0.2l0.4-0.3l-0.1,0l-0.1,0l0-0.1l0-0.1l0.2-0.1l0.1,0l0-0.1l0-0.2l0-0.1l0-0.2l0-0.1l-0.1,0
	l-0.2,0l-0.1-0.1l-0.1,0.1l-0.1,0.1l-0.1,0.1l-0.1,0l-0.1,0l-0.1,0l-0.1,0l-0.1,0l-0.2,0.1l-0.3,0.2h-0.2l-0.2,0l-0.1,0.1l0,0.2
	l0,0.2l0.2,0.5h0.1l0,0l0,0l0,0l0,0l0,0.1l0,0.1l0.1,0.1l0.1,0l0,0l0,0l0,0l0,0l0.3,0.2l0.1,0.1l0,0.1l0,0.2l0,0.1l0.1-0.1l0,0.2
	l-0.1,0.2l-0.2,0.1l-0.2,0.1l-1.8,0.2l-0.4,0.1l-0.4,0.2l0,0l0,0.1l0,0l0,0l-0.1-0.1l0,0l-0.3-0.1l-2,0.2h-0.3l-0.2,0l-0.1,0.1
	l-0.2,0.1l-0.2,0l-0.1-0.1l0-0.2l0.1-0.2l0.1-0.1l0.3,0l0.1,0l0.2,0.1l0.1,0l0-0.1l0.1-0.3l0.2,0.2l0.3,0.1l0.7,0l0.7-0.1l0.4-0.1
	l0.2-0.1l-0.2,0l-0.2-0.1l-0.1-0.1l-0.1-0.1l0,0l-0.1,0l-0.1,0l-0.1,0l-0.1-0.1l-0.1-0.2l0-0.1l-0.1,0l-0.4-0.1l-0.1,0l0-0.2l-0.1,0
	l-0.2,0l-0.2,0l0.1-0.1v-0.1l-0.1,0l-0.2,0.1l-0.1,0l-0.4,0.1l-0.1,0l-0.2,0.1l-0.1,0l-0.1,0.1l-0.1,0.1l-0.1,0.1l-0.2,0l0.1-0.1
	l0-0.1l0-0.1l-0.1,0l0,0.1l-0.1,0.4l-0.1,0.1l-0.2,0.3l-0.1,0.1h-0.2l0,0l-0.1,0.1l-0.1,0l-0.1,0l0,0l0-0.1l0-0.1l-0.1,0l-0.1,0.1
	l-0.1,0l0,0l0-0.3l0-0.1l-0.1,0l-0.2,0l-0.1,0.1l-0.1,0l0-0.2l-0.1,0.1l-0.1,0l0,0.1l-0.2-0.1l0-0.1l0.1-0.1l0.2,0l0.1,0l0-0.1
	l0-0.1l0,0l-0.1,0l0,0l0.1-0.1l-0.1,0l-0.1,0l-0.1,0l-0.1,0l0.1,0.1l0,0.1l-0.1,0.1l-0.1,0.1l0-0.1l-0.1-0.1l0-0.1l-0.1,0l0,0l0,0
	l-0.1-0.1l-0.1,0.1l-0.1,0.3l0,0.1l-0.2,0.1l-0.2,0.1l-0.4,0.1l-0.6,0.3l0,0l0-0.1l0,0l-0.3,0l-0.2,0.1l-0.1,0.1l-0.2,0.4l0,0.1
	l0,0.1l0,0.1l-0.1,0.2l-0.1,0.3l0,0.1l0,0.3l0.2,0l0.2-0.1l0.2-0.1l0.1,0.1l-0.4,0.3l-0.1,0.2l0.1-0.1l0.1-0.1l0.1,0l0.1,0.1
	l-0.1,0.1l-0.1,0.1l0,0.1l0,0.1l0,0l0.2-0.2l0.1-0.1l0.1-0.1l0.1,0l0.2,0l-0.1,0.1l0,0l-0.1,0l0.1,0.1l0.2,0l0.2,0.1l0.1,0.2
	l-0.2-0.1l-0.1,0.1l-0.2,0.3l-0.2,0.1l-0.1,0l-0.1-0.1l-0.1,0l-0.1-0.1l-0.2,0l-0.2,0l-0.2,0.1l0,0l0,0.1l-0.1,0l-0.1,0l-0.1,0.1
	l-0.1-0.1l-0.1,0.1l-0.1,0.1l-0.1,0l0-0.1l0-0.1l0-0.1l-0.1,0l-0.1,0l-0.1,0l-0.1,0l0.1-0.2l-0.2,0.1l-0.3,0.2l-0.1,0.1l0,0
	l-0.1,0.1l0,0l-0.1,0l-0.1,0l-0.1,0l-0.2,0.1l-0.1,0l-0.1-0.1l-0.1,0.2l0.1,0.1l0.1,0.1l0.1,0.1l-0.2,0l-0.1,0.1l-0.2,0.4l-0.1-0.2
	l-0.1-0.1l0,0.1l0.1,0.2l-0.1,0l-0.1,0l-0.1-0.1l-0.1-0.1l-0.1,0l0,0.1l0,0.2l0,0.1l-0.2,0l-0.2-0.1l-0.1,0l-0.1,0.2l0.1,0.2l0,0.1
	l-0.1,0l-0.1,0l-0.2,0.1l-0.1,0l-0.1-0.1l-0.1,0l-0.1,0l-0.1,0.1l-0.1,0.1l0,0l-0.2,0.1l-0.2,0.1l-0.2,0.1l-0.2-0.1l0,0.1l-0.1,0.1
	l0,0.1l0,0.1l0,0.2l0,0.1l0,0.1l0.1,0l0.1,0l0.1,0l0,0.1l-0.1,0.2l0,0.1l0.1,0.2l0,0.2l-0.1,0.2l-0.2,0.1l-0.1,0l-0.1,0l-0.1,0
	l-0.1,0l-0.1,0l-0.2,0.1l-0.1,0l-0.2-0.1l-0.2-0.2l-0.2-0.1l-0.3,0.1l-0.1,0l0,0l0-0.1l0,0l-0.2,0l0,0l-0.5-0.2l-0.5,0l-0.1,0
	l-0.2-0.1l-0.1,0l-0.3,0l-0.7,0.2L226,248l-0.2,0.1l-0.1,0.1l-0.1,0.2l-0.1,0l-0.2,0l-0.2,0l-0.2,0.1l-0.3,0.1l0,0l0,0h-0.1
	l-0.1,0.2l-0.2,0.2l-0.2,0.1l-0.2,0.1v0.1l0.2,0l0.1,0l0.1-0.1l0.3-0.3l0.1-0.1h0.2l-0.3,0.4l-0.1,0.1l0,0.1l0,0.2l0,0.2l0,0.1
	l-0.1,0.1l-0.1,0l-0.1,0l0-0.1l-0.1,0l-0.1,0l-0.1,0l-0.2,0.1l-0.1,0.1l-0.2,0.1l-0.2,0l0.1-0.1l0.2-0.1l0.1-0.1l0-0.1l-0.1-0.1
	l-0.1-0.1l0-0.1l0-0.1l-0.1-0.1l-0.1-0.1l-0.2,0l-0.1,0l0-0.1l0-0.1v-0.1l-0.2,0l0,0.1l0,0.2l-0.1,0.1l-0.1,0l0,0.1l0,0.1l0,0
	l-0.2,0l-0.2,0l0,0.1l0.1,0.1l0.1,0l0,0l0,0.1l0.1,0.2l0,0l0.1,0l0.1,0l0.1,0l0,0.1l0,0.2l0,0.1l-0.1,0.1l0-0.1l0,0l0,0l-0.1,0
	l-0.5,0.3l-1,0.5l-1.2,0.8L219,252l-0.7,0.4l-0.2,0.2l-0.2,0.3l-0.1,0.3l-0.1,0l0,0l0.1,0.2v0.1l-0.1,0.1l-0.2,0.1l-0.1,0l0-0.2
	l-0.2,0.4l-0.1,0l-0.1,0.1l-0.2,0.2l-0.1,0l-0.4,0.4l-2.1,1.3l-0.1,0l-0.1,0l-0.2,0.1l-0.2,0l-0.1,0l-0.1,0.1l-0.2,0.1l-0.2,0.2
	l-0.4,0.2l-1.5,1.3l-0.1,0.1l-0.2,0.3l-0.1,0l-0.1,0l-0.1,0l-0.1,0.1l-0.3,0.7l-0.2,0.2l-0.4-0.1l0.1-0.1l0.1,0l0.1,0l0.1,0l0-0.1
	l-0.1,0l-0.4,0l-0.1,0l0,0.1l0,0.1l0,0.1l-0.1,0l-0.1,0l-0.1-0.1l0,0.1l0.2,0.1l0.2,0.1l0.2,0l0.2,0.1l0.1,0l0.1,0l0.1-0.1l0.1-0.1
	l0.1,0l0.1,0l-0.3,0.9l-0.2,0.4l-0.4,0.1l-0.1,0.1l-0.4,0.5l-0.1,0.1l0,0.1l0,0l0,0l-0.1,0.1l-0.6,0.4l0,0.1l-0.2,0.3l-0.1,0.4
	l-0.1,0l-0.1-0.1l-0.1-0.2l0-0.2l0.2-0.5l0-0.1l0,0l0,0l0.1-0.1l0.1-0.1l0.2-0.1l0.4-0.2l0.1-0.1l-0.1-0.1l-0.1,0.1l-0.2,0.1l-0.2,0
	l-0.2,0l-0.1,0l-0.1,0.1l-0.1,0l-0.1,0l-0.1-0.2l-0.1-0.1l0,0.2l0,0.1l0,0.1l-0.1,0.2l-0.1,0.1l-0.1,0.1l-0.1,0l0.1-0.3h-0.1
	l-0.1,0.1l0-0.1l0-0.4l0-0.2l0-0.1l-0.1,0.1l-0.1,0.1l-0.1,0.1l0,0.1l-0.1,0l0,0l0.1,0.1l0,0l0,0l0,0l0,0l0,0l0,0l0,0l-0.1,0
	l-0.1-0.1l-0.2-0.1l-0.1-0.1l-0.1-0.2l-0.1-0.1v0.2h-0.1l0-0.1l0,0l0,0l0,0l0,0.1l0.2,0.5l-0.1,0l-0.3,0.1h-0.1v0.1l0.3,0l0.1,0
	l0.1,0.1l-0.1,0.1l0,0.1l0,0.1l0.1-0.1l0,0.1l0.1,0.1l0,0.1l0,0.2l-0.1,0l-0.1,0l-0.1,0l0,0.1l0,0.1l0,0.1l-0.1,0l-0.1,0l-0.1,0
	l-0.2-0.2l-0.1,0.1l-0.1,0l-0.1,0l-0.1,0l0,0.1l-0.1,0l-0.4-0.1l-0.1,0l-0.4-0.3l-0.1-0.1l-0.3-0.4l-0.1-0.1l0,0.1l0.1,0.4l0,0.1
	l0,0l0,0l0.1,0l0,0l0.1,0.2l0,0.1l-0.1,0l-0.2-0.1l0.1,0.3l0.2,0l0.3-0.1l0.3,0l0,0.1l0,0l0,0l-0.1-0.1l-0.1,0l-0.1,0l0,0.1l0.1,0
	l0.1,0l0.1,0.1l0.1,0.1l0.1-0.1l0.1,0l0.2,0l0.3-0.1l0.2,0.1l0.2,0.1l0.1,0.1l-0.1,0.1l0,0l0.1-0.1l-0.1,0.1l-0.1,0l-0.1,0l0.2,0.1
	l0.1-0.1l0.1-0.1l0.1-0.1l0.1,0l0.1,0l0.1,0l0.2-0.1l0.2,0.3l-0.2,0.2l-0.4,0.2l-0.7,1.4l0,0.2l-0.1,0.4l0,0.1l-0.1,0l-0.1-0.2
	l-0.1,0l0-0.1l0,0l-0.1,0l-0.1,0l-0.1,0.1l-0.1,0.1l0.1,0l0.1,0l0.1,0.1l0,0.1l0,0.1l0,0l-0.5-0.1l-0.7,0.1l-0.1,0l-0.1,0l-0.1,0.1
	l0,0.1l0,0.1l0.1,0l0.1-0.1l0.1,0h1.3l0.1,0l0,0l0,0l0,0.1l0,0.1l0,0.1l-0.2,0.6l0,0.2l0,0.1l-0.1,0.3l-0.1,0.2l0,0.1l0.1,0.2
	l0.1,0.8l0,0.1L205,270l-0.2,0l-0.1,0.1l-0.1,0.1l-0.1,0.2l-0.1,0.1l-0.2,0l-0.2,0l-0.2-0.1l-0.1-0.1l0-0.2l0-0.1l-0.1-0.2l0-0.2
	l0-0.2l0-0.1l-0.1-0.1l-0.1-0.3l-0.1,0l0,0.2l0.1,0.2l-0.1,0.1l0,0.1l0,0.1l0,0.1l0,0l0.1,0l0.1,0l0,0.1l0,0.1l0,0l0,0l0,0.1
	l-0.1,0.2l0,0.1l0,0.1l0,0.1l-0.1,0l-0.1,0l0.2,0.3l-0.1,0l-0.1,0l-0.1,0l-0.1,0.1l0.3,0.1l0.2,0.1l0.1,0.1l0.1,0.1l0.5,0.2l0.1,0.1
	l0.1,0.1l0,0.1l0,0.1l0,0.1l0.1,0.1l0.1,0l0.1,0.1l-0.1,0.2l-0.4,0.9l-0.1,0.4l-0.1,0.6l0,0.5l0,0.1l0.1,0.1l0.4,0.3l0.1,0l0.2-0.1
	l0.1,0l0,0.1l0,0.1l0,0.1l-0.1,0.1l-0.1,0.1l-0.1,0.2l-0.1,0.1l0,0.1l0,0.3l0,0.1l0.1,0.1l0,0.1l0,0.1l0,0.1l0,0l0,0.3l0,0.1
	l0.1,0.1l0.1,0l0.1,0l0,0l0.1,0.2l0,0.2l-0.1,0.2l-0.1,0.3l-0.1,0.1l0,0.1l0.2,0.4l0.1,0.1l0.1,0l0.1,0l0.1-0.1l0-0.1l0-0.1l0.1-0.1
	l0.1,0.1l0.1,0.2l0.2,0l-0.1,0.1l0,0l-0.1,0l0.1,0.2l0,0.1l-0.1,0l-0.1,0l-0.1,0l-0.1,0l-0.1-0.1l0.1,0l0-0.1l0-0.1l-0.1-0.1l-0.1,0
	l-0.1,0.1l-0.1,0l0,0l-0.3,0.2l-0.1,0.1l0,0.1l0,0.1l0,0.1l0.1,0.4l0,0.1l0,0l0.3,0.1l0.1,0.1l0,0.2l0,0.4l-0.1-0.1l0-0.1l0,0.1
	l0,0.1l0,0.1l0,0.1l0,0.1l-0.1,0l-0.1,0l-0.1,0l-0.1,0.1l-0.1,0.1l-0.1,0.1l0,0.2l0.3,0.7l0.2,0l0.1,0.1l0,0.2l-0.1,0.2l-0.1-0.1
	l-0.2,0.1l-0.2,0.2l-0.1,0.1l0.1,0.1l0.1,0.2l0,0.2l0,0.2l0,0.1l0.1,0.1l0,0.1l0,0l-0.1,0.1l-0.1,0.1l0,0l0,0.1l0.3,0.3l0.1,0.1
	l0,0.1l-0.1,0l-0.1,0l0,0l0,0.1l0.1,0l0.1,0l0,0l0,0.2l-0.2,0.4l-0.1,0.1l-0.1,0.6l0,0.2l0,0.1l0,0l0,0.1l0,0.1l0,0.1l-0.1,0.1
	l-0.1,0l0,0.1l0,0.1l-0.1,0.3l-0.1,0.4l-0.1,0.4l0,0.2l0.2,0.2l-0.1,0.2l-0.3,0.3l0,0.1l0,0.2l0,0.2l0,0.1l-0.2,0.3l-0.1,0.1
	l-0.1,0.4l-0.1,0.2l0,0.1l0,0.1l0,0.1l0,0.1l-0.1,0l-0.1,0l-0.1-0.2l-0.1-0.2l0-0.2l0-0.2l0.1-0.1l0-0.1l0-0.1l-0.2-0.2l-0.1-0.1
	l-0.1-0.1l-0.1,0l-0.1,0.2l0,0.1l0.1,0.2l0,0.1l0,0.1l-0.1,0.1l0,0.1l0,0.1l0.1,0l0.1,0l0.1,0l0,0.1l0,0.1l0,0.1l0,0.1l0,0.1l0,0
	l0,0l0.1,0.1l0.3,0.2l0.1,0.1l0.1,0.1l0.1,0l0.1-0.1l0.1,0l0.1,0l-0.1,0.2l-0.1,0.1l-0.2,0.3l-0.1,0.2l-0.1,0.1l-0.1,0l-0.4,0
	l-0.1,0l-0.2,0.1l-0.2,0.1l-0.1,0.1l-0.2,0.2l-0.7,0.4l-2.3,2l-1.7,1.9l-1.3,1.9l0,0l-0.8,1.1l-0.4,0.8l-0.6,1l-0.5,1.3l-0.4,0.5
	L192,308l-0.4,1.2l-0.5,1.3l-2.2,3.8l0,0.2l0,0.1l-1,1.6l-0.9,1l-0.4,0.8l-1.2,1.5l-0.9,1l-1.4,1.2l-1.9,1.7l-2.4,1.5l-0.2,0.2
	l-1.2,1.5l-0.3,0.5l-0.1,0l-0.1-0.2l0.1-0.2l0.2-0.4l0.1-0.1l0.1-0.2l0-0.2l-0.1-0.2l-0.1-0.2l0.1-0.1l0.2-0.1l0.1-0.2l-0.1-0.3
	l-0.5-0.6l0-0.3l0.3-0.2l0.4,0.1l0.6,0.5l0.3,0l0.4-0.2l0.2-0.3l-0.2-0.3l0.4-0.1l0.3,0l0.3,0l0.3-0.2l0.9-1l0.1-0.3l0.3-0.2
	l0.1-0.2l0.1-0.2l0.1,0.1l0.2,0.3l0.1,0l0-0.2l-0.1-0.4l0-0.2l0.1-0.2l0.1-0.2l0.1-0.1l0.1,0.3l0.3,0.1l0.3-0.1l0.3-0.2l0.1-0.1
	l0.3-0.2l0.1-0.1l0.3-0.5l0.2-0.6l0.2-0.7l0-0.7l-0.2-0.6l0-0.1l0.1-0.4l0-0.1l0.1-0.1l0.2,0l0.3,0.1l0.2,0l0.2-0.1l0.1,0l0.2,0
	l0.1,0.1l0,0.5l0,0.1l0.1,0l0.1,0l0.1,0l0-0.1l0-0.1l0-0.1l0.1-0.1l0.1,0l0,0l0-0.1l-0.1,0l-0.1,0l-0.1,0l-0.1-0.3l0.1-0.4l0.1-0.4
	l0-0.4l-0.1-0.2l-0.1-0.1l0,0l0.1,0l0.1,0l0.1,0l0.2,0l0.1-0.1l0.6-0.5l0.3-0.1l0.2-0.1l0.1-0.1l0.1-0.1l0.3-0.6l0.1-0.8l-0.1-1.7
	l0-0.2l-0.2-0.4l-0.1-0.3l0-0.1l0-0.1l0.1-0.1l0.1,0l0.1,0l0.1,0.1l0.2,0.2l0,0.1l0,0.1l0,0.1l0,0.1l0,0.2l0.1,0.2l0.1,0.2l0.1,0.1
	l0.3-0.2l0.1-0.1l0-0.2l0-0.2l0-0.1l0.1-0.2l0.1-0.6l0-0.3l0-0.3l0-0.2l-0.3-0.2l0-0.1l-0.1-0.2l0-0.1l-0.1-0.1l-0.1,0l-0.1,0
	l-0.1,0.1l-0.2,0.3l0,0l0,0.1l0,0l0.1,0l0.1,0.1l0,0.1l0,0.1l-0.1,0.1l-0.1,0.1l-0.2,0.1l-0.5,0l-0.1,0l-0.1,0.1l0,0.2l-0.5-0.1
	l-0.1,0l-0.2-0.1l-0.1,0.1l-0.1,0.2l0,0.2l0,0.3l0,0.2l0.1,0.4l-0.2,0l-0.4-0.4l-0.2-0.1l-0.1,0l-0.1-0.1l0-0.2l0-0.1l0,0l0-0.1
	l0.1-0.1l0.1-0.1l0-0.1l0-0.1l0-0.2l-0.1-0.1l-0.1-0.1l-0.1,0.1h-0.1l0-0.2l-0.2,0l-0.2,0.1l-0.1,0l-0.1,0.1l-0.1-0.1l-0.3-0.2
	l0-0.1l-0.1-0.1l-0.2-0.1l-0.1,0l-0.1,0l0,0l0-0.1l0-0.1l0.1-0.1l0-0.1l0-0.2l-0.1-0.1l-0.1-0.1l-0.1-0.1l0-0.2l0.1-0.3l0-0.2
	l-0.2,0.1l0-0.1l0-0.2l-0.1-0.1l-0.1,0l0,0.1l0,0.1l0,0.1l-0.1,0.3l0,0.1l0,0.1l0,0l0,0l0,0l0,0.1l0,0.1l0,0l0,0.2l0,0.1l-0.1,0.1
	l0,0.1l0,0.1l0,0.1l0,0.1l0,0.1l-0.1,0.3l0.1,0l0.1,0l0.1,0l0.1,0l0.1,0.2l-0.2,0.3l0.1,0.2l0.3,0.1l0.1,0.2l0.1-0.1l0.2-0.2l0,0
	l0.1,0.1l0,0.1l0,0.3l0.1,0.2l0.2,0l0.4-0.2l0.2,0l0,0.1l0,0.1l0,0.2l0,0.1l-0.1,0.1l-0.1,0.1l-0.1,0l0,0l-0.1-0.1l-0.1,0l-0.3,0
	l-0.2,0.3l-0.2,0.4l-0.2,0.8l-0.1,0.4l0,0.4l0,0.4l0.1,0.6l0,0.2l0,0.3l-0.1,0.1l-0.1,0l-0.1-0.2l0.2-0.1l0-0.3l-0.2-0.5l-0.1-0.4
	l-0.1-0.1l-0.2,0l-0.2,0.1l0,0.2l0,1.1l0,0.2l0.1,0.4l0,0.2l0,0.2l-0.1,0.1l-0.3,0l-0.2,0l-0.1,0.1l-0.1,0.1l-0.1,0.2l-0.1,0.4
	l0,0.4l0.1,0.4l0.2,0.3l-1,0.4l-0.2,0l-0.3,0.1l-0.2,0.3l-0.1,0.4l0,0.3l0.1,0.1l0,0.1l-0.1,0l-0.1,0l-0.1,0l-0.1,0l-0.1,0l-0.2,0.1
	l-0.2,0l-0.4,0l-0.1,0l-0.2,0.1l-0.2,0.1l-0.1,0.3h-0.2l-0.2,0l-0.2,0l0,0l0,0.1l-0.1,0.1l-0.1,0l-0.1,0l0,0.1l0.1,0.1l0.1,0l0,0
	l-0.1,0.1l-0.3,0.2l0,0.1l0,0.1l0,0.2l0,0.6l0,0.1l0,0.2v0.1l0,0.1l0.1,0.1l0,0.1l-0.1,0.5l0,0.2l0,0.1l-0.1-0.1l-0.1-0.2l0-0.3
	l0-0.1l-0.1-0.1l0,0l-0.1,0l-0.1-0.1l-0.1,0l-0.1,0l-0.1,0.1l0,0.1l0,0.3l0.1,0l0.1,0l0.1,0l0,0.1l-0.1,0.2l-0.1,0.2l-0.1,0.1
	l-0.1,0.1l-0.9,0.4l-0.1,0.1l0,0.2l0,0.1l0.1,0.2l0,0.1l0,0.1l0,0.1l0,0.1l0,0.1l-0.2,0l0,0.2l0.1,0.2l0.2-0.1l0.2,0.3l0,0.1l0,0
	l0.2,0l0.1,0l0.1,0.1l0.1,0.1l0,0.1l0,0.1l-0.1,0l-0.2-0.1l-0.1,0l-0.1,0.1l-0.2,0.1l-0.2,0.1l-0.1,0.2l0,0.4l0,0.2l-0.1,0.2l0.2,0
	l0.1,0.1l0,0.1l-0.2,0.1l0.2,0.1l0.3-0.1l0.2-0.1l0.1-0.1l0-0.1l0.1-0.1l0.1,0l0.1,0l0.1,0.1l0,0.1l-0.1,0.1l-0.4,0.3l-0.2,0.2
	l0.1,0.2l0.1,0l0.3-0.4l0.1-0.1l-0.1,0.4l0,0.2l0.1,0.3v0.1l-0.3,0.1l-0.8,0.7l-0.2,0.3l-1,2.1l-0.5,1.9l-0.2,1.1l-1.2,3l-0.2,0.3
	l-0.8,1.1l-0.6,0.7l-0.8,0.8l-1.4,1.2l-0.8,0.9l-0.6,0.6l-0.9,0.6l0,0l0,0l-0.3,0l-0.1-0.1l-0.1-0.2l-0.1-0.2l-0.1-0.1l-0.1,0
	l-0.1,0h-0.2l-0.2-0.4l0-0.9l0.2-1.6l-0.2-1.5l0-0.7l0.1-0.5l0.1-0.3l0,0l0,0l0.2-0.3l0.3-0.3l1-0.7l0.1-0.1l0.1-0.2l0-0.4l0.1-0.2
	l0.2-0.3l0.5-0.4l0.2-0.2l0.2-0.2l0.3-0.2l0.1-0.1l0-0.2l-0.1-0.1l-0.5-0.6l-0.1-0.1l-0.3-0.1l-0.3-0.2l-0.3,0l-0.1,0l-0.3-0.2
	l-0.5-0.2l-0.5-0.6l-0.5-0.4L165,330l-0.2-0.2l-0.1-0.3l-0.1-0.1l-0.2-0.2l-0.1-0.1l0-0.2l0-0.5l-0.1-0.3l-0.1-0.3l-0.4-0.6
	l-0.2-0.6l0-0.3l0-0.1l-0.1-0.1l-0.5-0.1l-0.2-0.1l-0.1-0.1l-0.1-0.1l0-0.1l0-0.1l0-0.1l-0.1-0.1L162,325l-0.1-0.1l-0.1,0l-0.3,0
	l-0.1,0l-0.1-0.1l-0.1-0.1l0-0.1l-0.1-0.1l-0.2-0.1l-0.2,0l-0.2,0.1l-0.1,0.1l-0.1,0.1l-0.1,0l-0.2-0.1l-0.4-0.4l-0.4-0.3l-0.6-0.5
	l-0.2-0.3l-0.2-0.2l-0.3-0.2l-0.2-0.2l0-0.1l-0.1-0.2l0-0.4l0-0.2l-0.1-0.2l-0.1-0.1l-0.4-0.4l-0.1-0.1l-0.1-0.3l-0.1-0.1l-0.1,0
	l-0.3,0l-1.3-0.2l-0.2-0.1l-0.1-0.1l-0.1-0.1l-0.1-0.1l-0.1-0.1l-0.3-0.2l-0.2-0.2l-0.2-0.3l-0.1-0.2l-0.1-0.2l-0.1,0l-0.2,0.3
	l-0.1,0.2l-0.1,0.1l-0.1,0l-0.2-0.1l-0.4-0.4l-0.2-0.1l-0.3-0.1l-0.1-0.1l-0.1-0.2l-0.1-0.2l-0.1-0.4l-0.1-0.2l-0.3-0.2l-0.1-0.1
	l-0.1-0.2l0-0.3l0-0.2l-0.1-0.2l-0.6-0.7l-0.4-0.3l-0.2-0.2l-0.1-0.1l-0.3-0.2l-0.2-0.3l-0.2,0l-0.2,0l-0.1,0.1l0,0.2l0,0.4l0,0.2
	l-0.1,0.1l-0.2,0l-0.2,0l-0.2,0l-0.1,0.1l-0.1,0.3l-0.1,0.2l-0.1,0.1l-0.4,0.3l0,0.1l0,0.1l0,0.1l-0.1,0.1l-0.1,0l-0.2,0l-0.3,0.1
	l-0.5,0l-0.2,0l0,0l0-0.1l0-0.1l0-0.2l0-0.4l0-0.6l0-0.2l0.1-0.3l0-0.3l-0.1-0.3l-0.1-0.3l-0.5-0.4l-0.1-0.2l-0.3-0.5l-0.1-0.1
	l-0.1-0.1l-0.2-0.1l-0.1-0.1l0-0.1l0-0.1l0-0.1l-0.3-0.3l-0.2-0.2l-0.3-0.1l-0.5-0.4l-0.4-0.2l-0.1-0.1l-0.1-0.2l-0.2-0.3l-0.1-0.1
	l-0.4-0.3l-0.1-0.1l-0.1-0.1l-0.3-0.4l-0.1-0.1l0-0.1l-0.1-0.1l-0.1,0l-0.1,0l-0.1,0l-0.1-0.1l0-0.1l0-0.1l0-0.2l-0.1-0.1l-0.1-0.1
	l-0.1-0.1l-0.3-0.1l-0.5-0.4l-0.1-0.1l-0.1-0.3l-0.3-0.2l-0.3,0l-0.3,0.1l-0.4-0.1l-0.2,0l-0.3,0.1l-0.1,0l-0.2,0.1l-0.1,0l-0.2-0.1
	l-0.1,0l-0.2,0.1l-0.2,0.3l-0.2,0.3l-0.1,0.2l0,0.3l-0.2,0.3l-0.2,0.2l-0.3,0.1l0,0l-0.1-0.1l-0.1,0l0,0l-0.1,0.1l-0.1,0l-0.1,0
	l-0.1-0.1l-0.1-0.1l-0.2,0l-0.1,0.1l-0.2,0.2l-0.1,0l-0.1,0l-0.1-0.2l-0.1-0.1l-0.2,0l-0.4,0.1l-0.2,0l-0.3-0.2l-0.2-0.5l-0.2-0.2
	l0.3-0.1l0.2-0.1l0.3-0.2l0.8-1l0.7-0.6l0.1-0.1l0.1-1.1l0.1-0.3l0.2-0.2l0.3-0.1l0.3-0.1l0.4,0l0.2-0.1l0.2-0.1l0.6-0.7l0.1-0.1
	l0-0.1l0.2-0.3l0.1-0.3l0.1-0.1l0.3-0.3l0.1-0.1l0.1-0.1l0.6-0.6l0-0.1l0-0.1l0-0.1l0.1-0.1l0.1-0.1l0-0.1l0-0.1l0-0.1l0-0.1l0-0.1
	l0.1-0.1l0.1-0.1l0.3-0.2l0.1-0.1l0.1-0.1l0.1-0.2l0.1-0.4l0.1-0.2l-0.1-0.1l0-0.1l0-0.1l0.1-0.1l0.2-0.3l0.3-0.3l0.3-0.2l0.3-0.2
	l0.6-0.1l0.1-0.1l0.1-0.2l0-0.2l0-0.4l0.2-0.4l0.6-0.3l0.2-0.3l0-0.8l0.1-0.1l0.2-0.1l0.4-0.1l0.3-0.2l0.7-0.9l0.5-0.4l0.2-0.2
	l0-0.4l0-0.2l0-0.2l0.1-0.1l0.3-0.1l0.2-0.1l0.3,0l0.1,0l0.1-0.1l0,0l0-0.1l0-0.4l0-0.1l0-0.2l0.1-0.1l0.4-0.2l0.2,0.1l0.3,0
	l0.3,0.1l0.1,0.2l0,0.2l0.1,0l0.1-0.1l0.1-0.1l0.1-0.1l0.1-0.4l-0.1-0.2l-0.1-0.1l-0.1,0l-0.1,0l-0.3-0.2l-0.1-0.1l0-0.2l0.2-0.2
	l0.5-0.2l0.3-0.3l0.1-0.1l0.1-0.1l0,0l0.1-0.1l0.1-0.1l0.2,0l0,0.1l0,0.1l0,0.1l0.1,0l0.1,0l0-0.1l0-0.1l0-0.1l0,0l0.1-0.1l0,0
	l0.1-0.2l0,0l0.1,0l0.1,0l0,0.1l0.1,0l0.1,0l0.2-0.1l0-0.1l0.4-0.4l0.1-0.1l0-0.1l0-0.2l0-0.1l0,0l0.1,0l0.1,0l0.2-0.1l0-0.2l0-0.2
	l0.1-0.1l0.1,0l0.2,0.1l0.1,0l0.1,0l0.3-0.2l0.1-0.2l0.1-0.2l0.2-0.1l0.1,0l0.2,0.2l0.2,0l0.1-0.3l0-0.1l0.1,0l0.2,0l0.1,0l0.2,0.1
	h0.1l0-0.1l-0.1-0.2l-0.2-0.2l-0.1-0.2l0.1-0.1l0.2,0l0.1,0.1l0.1,0.1l0.2,0l0.4-0.4l0.2-0.1l0.1-0.1l0-0.2l0-0.4l0-0.4l0.1,0l0.2,0
	l0.2-0.1l0.1-0.2l0-0.2l0-0.2l0.1-0.1l0.1-0.1l0.1,0l0,0.1l0,0l0,0.1l0,0l0,0l0,0l0.1,0.1l0,0l0.1,0l0.3-0.1l0.1,0l0.2,0l0.1,0
	l0.1,0l0,0l0-0.1l0-0.1l0-0.1l0.1-0.1l0.1,0l0,0l0,0.2l0.1,0l0.1-0.1l0.1-0.2l0-0.2l0-0.1l0.1-0.1l0.1-0.1l0,0l0,0l0.1,0l0,0
	l0.1,0.2l0,0l0.1,0l0.1,0l0.5-0.2l0.2-0.1l0-0.1l-0.1-0.2l0-0.1l0.1,0l0.3,0l0.1,0l0.1,0.1l0,0.2l0,0.1l0.1,0l0.1-0.1l0.1-0.1l0-0.1
	l0-0.3l0.1,0.1l0.1,0.1l0.1,0.1l0.2,0l0,0l0.1-0.1l0.1-0.1l0-0.1l0-0.1l0.1,0l0.1,0l0.1,0l0-0.1l0-0.2l0-0.1l0-0.1l0-0.1l0.2-0.6
	l0.1-0.2l0.1,0.1l0.1,0.1l0,0.2l0.2,0.1l0.3,0l0.6-0.7l0.1-0.2l0-0.1l0.1,0l0,0l0,0l0.1,0l0.2,0l0-0.1l0-0.1l0-0.1l0.1-0.1l0.1,0.1
	l0.1,0.1l0.1,0l0.1-0.1l0.1-0.3l0.1-0.1l0.1,0.1l0.1,0.1l0.1,0.2l0.1,0.1l0.1-0.1l0.1-0.2l0-0.1l-0.1-0.1l0-0.1l0,0l0.1-0.1l0-0.1
	l0-0.1l0-0.3l0-0.1l0,0l0.1,0l0.1,0l0-0.1l0.4-0.8l0.1-0.3l0-0.3l-0.1-0.6l-0.1-0.3l0,0l-0.1,0l0,0l0-0.1l0.1-0.1l0-0.1l0,0l-0.1,0
	l-0.1-0.1l0-0.1l0-0.1l0.1,0l0.1,0l0.1-0.1l0.1-0.2l0-0.2l0-0.4l0-0.2l0.1-0.3l0-0.2l0,0l0-0.1l0-0.1l0-0.1l0-0.1l0.1-0.1l0.1-0.1v0
	l0-0.3l-0.1-0.9l0.1-0.3l0.3-0.5l0.1-0.3l0-0.4L164,270l-0.4-0.6l-0.1-0.3l-0.1-0.3l-0.1-0.3l-0.2-0.3v0l0,0l-0.3-0.3l-0.1-0.1
	l0-0.1l0-0.1l0-0.1l0-0.1l-0.1-0.5l0-0.5l0-0.2l-0.1-0.2l-0.1-0.1l-0.2-0.2l-0.1-0.1l0-0.1l0-0.1l0-0.1l0-0.1l-0.1-0.3l-0.1-0.2
	l-0.1-0.1l-0.3,0.2l-0.2,0l-0.1-0.2l0-0.2l-0.1-0.2l-0.1-0.1l-0.2-0.1l-0.1,0l-0.1,0l0,0l-0.1,0l-0.1-0.1l-0.1,0l-0.1,0.1l0,0.1
	l0,0.1l0,0.1l0,0.1l-0.1,0l-0.1-0.1l-0.1-0.1l0-0.1l0-0.2l0-0.2l0.1-0.1l0-0.2l0,0l0,0l0,0l0,0l-0.2,0.3l-0.1,0.1l-0.1,0l-0.2-0.1
	l-0.1,0l-0.1,0l0.2,0.3l0,0.2l-0.2,0l-0.2,0l0,0l-0.1,0l0,0.1l0,0.1l-0.1-0.1l-0.1-0.2l-0.1-0.1l-0.1,0l-0.2,0l-0.1,0.1l-0.1,0.2
	l-0.1,0l-0.1-0.1l-0.1,0l-0.1,0l-0.1,0.1l0,0.1l0,0.1l0,0.1l-0.1,0.1l-0.2,0.1l0,0.1l0,0.1l0,0.2l0,0.1l-0.1,0l-0.1-0.1l0-0.1l0-0.1
	l0-0.2l-0.1-0.2l-0.1-0.1l-0.2-0.1l-0.2,0l-0.1-0.1l0-0.1l0-0.1l-0.1,0l-0.3,0l0,0l0-0.2l0-0.2l-0.1-0.2l-0.1-0.2l0-0.2l0-0.2l0-0.1
	l0.1-0.3l0.2-0.3l0.2-0.2l0.1-0.2l0.2-0.3l0.2-0.6l0.1-0.2l0.3-0.3l0.1-0.2l0-0.2l-0.2-0.4l-0.1-0.2l0-0.2l0-0.2l0.1-0.3l0.4-1.7
	l0.1-0.2l0.2-0.4l0.1-0.3l0.3-0.9l0-0.3l-0.1-0.6l0-0.3l0.1-0.3l0.3-0.5l0.1-0.2l0.1-0.3l0-0.3l-0.1-0.3l-0.1-0.2l-0.2-0.3l-0.1-0.1
	l0-0.3l-0.1-0.3l0-0.1l0.1-0.3l0.2-0.3l0.3-0.2l0.2-0.1l0,0l-0.2-0.1l-0.8-0.5l-0.4-0.6l-0.2-0.1l-1.4-0.8l-0.2-0.1l-0.1,0.1
	l-0.2,0.2l-0.1,0.1l-1.1,0.4l-0.5,0.3l-0.1,0.1l-0.2,0.2l-0.1,0.1l-0.1,0l-0.3,0l-0.1,0.1l-0.2,0.1l-0.5,0l-0.2,0.1v0h0l-0.3,0.1
	l-0.3,0l-0.3-0.1l-0.3-0.1h0l0,0h0l0,0l-0.3-0.1l-0.5,0l-0.2-0.1l-0.2-0.2l-0.1-0.2l-0.1-1.8l-0.2-0.6l-0.4-0.4l-0.2-0.2l0-0.3
	l0-0.3l0,0l0-0.3l0-0.3l0.2-0.5l0-0.3l-0.1-0.2l-0.2-0.3l-0.1-0.2l0-0.2l0.2-0.4l0-0.2l-0.2-0.7l0-0.1l-0.2-0.1l-0.1-0.1l0-0.1
	l0-0.3l0-0.2l-0.1-0.1l-0.2-0.3l0-0.2l0-0.3l0-0.2l-0.2-0.7l0-0.3l0.1-0.3l0.1-0.3l0.1-0.3l0-0.1l-0.1-0.1l0-0.1l0-0.1l0-0.1l0-0.1
	l0-0.2l-0.1-0.1l-0.1-0.1l-0.2-0.1l-0.3-0.2l-0.2-0.2l-0.1-0.3l-0.1-0.3l0-0.8l-0.1-0.2l-0.1-0.1l-0.3-0.3l-0.4-0.6l-0.1,0.2l0,0.1
	l-0.1-0.1l-0.5,0l-0.1-0.1l-0.1-0.1l-0.1-0.1l-0.1,0.1l-0.1,0l-1.4-0.1l-0.1,0l-0.1-0.1l-0.2-0.2l-0.4-0.3l-0.2-0.2l-0.2-0.3
	l-0.2-0.5l-0.1-0.1l-0.1,0l-0.6,0.1l-0.1,0l-0.1,0.1l-0.1,0.1l-0.1,0.2l0,0.1l0,0.1l0,0l-0.1,0l0,0l-0.1,0.3l-0.1,0.1l-0.3,0.2
	l-0.1,0l-0.1,0l-0.1,0.1l0.1,0.2l0,0.1l-0.1,0l-0.3-0.3l-0.1-0.1l0,0l-0.1,0.2l0,0.1l-0.1,0.1l0,0l0,0l-0.1,0l-0.3,0.1l-0.1,0
	l-0.1,0l0,0l0,0.1l-0.1,0.1l-0.2,0.2l0,0l-0.1,0l-0.2,0l0-0.1l-0.1-0.2l-0.1-0.1l-0.1,0.2l-0.1,0l-0.1-0.1l-0.1,0l-0.1,0l0,0l0-0.1
	l-0.1,0.1l-0.1,0l-0.2-0.1l-0.1,0l-0.3,0l-0.1,0l-0.1,0l0,0l0,0l-0.1,0l0,0l0,0l0,0l-0.1,0l-0.2-0.1l-0.1,0l-0.1,0l0,0l-0.1,0
	l-0.1,0l-0.1,0l0-0.1l0,0l-0.1,0l-0.2,0.2l-0.2,0l-0.4-0.1l-0.1,0l0,0l0,0.1l0,0l-0.1,0l-0.1-0.1l-0.1,0l0,0.1l-0.1,0l-0.3-0.2
	l-0.1,0l-0.1,0l-0.2-0.1l-0.1,0l-0.3,0.1l-0.2-0.1l-0.1,0l-0.1,0l0,0l0,0l-0.1,0l-0.2,0l-0.1,0l-0.1-0.1l-0.1-0.2l-0.1-0.4l-0.1,0
	l-0.1,0l-0.1,0l-0.1,0l-0.2,0l-0.1,0l-0.1,0l-0.2,0.1l0,0l-0.1,0l0,0l0,0l0,0.1l0,0l0,0l-0.1,0.1l-0.1,0l-0.1,0l-0.1,0l-0.1,0.1
	l-0.1,0l0,0l-0.1-0.1l-0.1,0l-0.1,0L130,233h-0.1l-0.3-0.1l-0.1-0.1l-0.1-0.1l-0.1-0.1l0,0l-0.1-0.1l0-0.1l0-0.1l0-0.1l0.2-0.5
	l0-0.1l0.1-0.1l0.2-0.4l0-0.1l-0.1-0.2l-0.1-0.1l-0.1-0.1l0.1-0.2l0.1-0.2l0-0.2l0-0.2l0-0.2l0.4-0.6l0-0.1l-0.1-0.1l-0.1-0.1
	l-0.1-0.2l0-0.2l0.1-0.2l0.1-0.2l0.1-0.2l-0.1-0.1l-0.1-0.1l-0.1-0.2l0-0.2l0-0.2l0.1-0.3l0.5-0.9l0.1-0.2l-0.1-0.1l-0.1,0l-0.1-0.1
	l0,0l-0.1,0l0-0.1l0-0.1l0-0.1l0.2-0.2l0.2-0.3l0.1-0.4l0-0.4l0-0.4l-0.1-0.3l0-0.1l0.2-0.4l0.1-0.2l0-0.2l-0.1-0.1l0,0.2h-0.1
	l-0.2-0.2l-0.2-0.2h0l0,0l-0.1,0l-0.1,0l0-0.1l0.1-0.1l0.3-0.2l0.1-0.1l0-0.2l-0.1-0.1l-0.1-0.1l-0.2,0l-0.2,0l-0.1-0.1l0.1-0.1
	l0.1-0.1l0.1-0.1l0.1,0l0.2,0l0.1,0l0.1-0.1l0-0.1l-0.1-0.1l-0.1-0.1l-0.1,0l0-0.1l0-0.1l0-0.1l-0.1-0.1l-0.1,0l-0.1,0.1l-0.1,0.3
	l-0.1,0l-0.1-0.1l-0.1-0.1l0-0.1l0.1-0.2l0-0.1l0-0.1l-0.1-0.2l0-0.1l0-0.2l0-0.1l-0.1-0.2l0-0.2l0-0.2l0-0.2l0.1-0.3l0-0.2
	l-0.1-0.1l-0.2,0l-0.2-0.1l-0.2-0.1l-0.1-0.2l-0.1-0.1l-0.1-0.2l0-0.2l0.1-0.2l0-0.1l-0.1-0.1l-0.1,0l-0.1,0l0,0.1l0,0.1l0,0
	l-0.2-0.1l-0.1-0.2l0.1-0.1l0.3-0.1l0-0.1l-0.1-0.1l-0.1-0.1l-0.1,0l-0.1,0l0,0l0-0.1l0.3-0.1l0.1-0.1l0-0.1l0.1-0.2l0.1,0l0.2-0.1
	l0.3-0.4l0.2-0.1l0.1,0l0.1,0l0.1-0.1l0-0.1l0.1,0l0.1,0l0.2,0.1l0.2-0.1l0.1-0.1l0.1-0.1l0.1-0.1l-0.8-0.8l-0.7-0.6l-0.6-0.6
	l-0.1-0.2l0.3-0.6l0.1-0.2l0.2-0.5l0.2-0.5l0.1-0.2h0v0l0.3-0.5l0.6-1.2l0.6-1.2l0.3-0.5l0.2-0.4l0.1-0.1l0.5,0l0-0.4l0-0.5l0-0.2
	l-0.1-0.1l-0.3,0l0.1-0.3l0.4-1.3l0.4-1.3l0.4-1.3l0.4-1.3l0.1-0.4l0.1-0.1l0.1,0l0.6,0l0-0.2l-0.1-0.1l-0.1,0h-0.2l-0.3-0.2
	l-0.3-0.5l-0.4-1.1l-0.8-1.4l0.3,0l0-0.2l-0.1-0.2l-0.1-0.2l0-0.1l0.1-0.3l-0.1-0.1l-0.1-0.1l-0.1-0.1l-0.1-0.1l-0.1-0.2l0-0.2
	l0-0.3l0-0.1l0-0.2l0-0.2l-0.1-0.2l-0.1-0.1l-0.2-0.1l-0.1,0l-0.2,0l-0.2,0.1l-0.3,0l-0.3-0.1l-0.2-0.1l-0.4-0.3l-0.1-0.1l-0.3-0.1
	l-0.1-0.1l-0.2-0.3l-0.1-0.1l-0.1,0l-0.1,0l-0.1,0l-0.1-0.1l-0.1-0.3l-0.1-0.1l-0.1,0l-0.1,0l-0.1,0l-0.1-0.1l-0.1-0.1l-0.1-0.1
	l-0.1,0l-0.3,0l-0.3-0.2l-0.1-0.3l0-0.3l0-0.8l0-0.2l-0.1-0.2l0-0.1l0-0.6l-0.1-0.2l-0.1-0.3l-0.1-0.4l0-0.1l0-0.1l0.1-0.2l0-0.1
	l0-0.3l-0.2-0.7l0-0.4l0.1-0.3l0.1-0.3l0.8-1l0.1-0.3l-0.2-0.3l0-0.2l0.2-0.2l0-0.1l0-0.8l-0.1-0.1l-0.3,0l-0.1,0l-0.1,0.2l-0.1,0.1
	l-0.2,0.1l-0.2,0l-0.6,0l-1.5-0.1l-1.5-0.1l-1.5-0.1l-1.5-0.1l-1.5-0.1l-1.5-0.1l-1.5-0.1l-1.5-0.1l-0.6,0l-0.2-0.1l-0.2-0.4l-0.1-1
	l-0.1-0.9l-0.1-1.3l-0.1-1.7l-0.1-1.3l-0.1-0.2l-0.1-0.2l-0.7-0.9l-0.9-1.1l-0.6-0.7l-0.4-0.4l1.6,0l0.9,0l0-0.1l0-0.6l0-0.7l0-0.7
	l0-0.7l0-0.7l0-0.5l-0.1-0.2l-0.4-0.3l-0.1-0.3l0.2-0.1l0-0.4l-0.3-0.6l-0.1-0.5l-0.1-0.1l-0.4-0.4l-0.1-0.2l0-0.2l0-0.2l0-0.2
	l-0.1-0.2l0-0.1l0-0.2l0-0.2l0-0.1l0.1,0l0.2-0.1l0.1-0.1l0.1-0.2l0.1-0.4l0.1-0.2l0-0.1l0-0.1l0,0l-0.1,0l0-0.1l0-0.1l0-0.1
	l-0.2-0.2l-0.1-0.1l-0.1-0.2l-0.1-0.2l0-0.2l0-0.2l-0.1-0.2l-0.1-0.1l-0.6-0.2l-0.1,0l0,0l0-0.1l0,0l-0.1,0l-0.2,0l-0.3-0.2
	l-0.6-0.5l-0.6-0.5L106,158l-0.1,0l-0.1-0.1l-0.3-0.1l-0.4,0l-0.4-0.1l-0.2-0.2v-0.3l0-0.1l-0.1,0l-0.1,0.1l0,0l-0.3,0.1l-0.1,0.1
	l0,0.2l-0.1,0l-0.5,0l-0.2,0.1H103l-0.1,0l-0.2-0.1l-0.3-0.1l-0.1-0.1l-0.1,0l-0.5,0.3l-0.3,0.1l-0.4,0l-0.4-0.1l-0.1,0l-0.2-0.2
	l0,0l0,0l-0.6,0.1l-0.2,0l-0.2,0.1l-0.2,0.1l-0.2-0.1l-0.2,0l-0.2,0.1l-0.2,0l-0.2,0l-0.1-0.1l-0.2-0.6l0-0.1l-0.1-0.1l-0.2-0.1
	l-0.1-0.1l-0.4-0.4l-0.1-0.1l-0.2-0.1l0,0l-0.1-0.2l0,0l-0.1-0.1l-0.4-0.4l-0.2-0.1l-0.1-0.1l0-0.1l0-0.6l0-0.1l0,0l-0.1,0l-0.1,0
	l-0.2-0.2l-0.1,0l0,0.2l-0.2-0.2l-0.1,0l-0.1,0l-0.3,0.1l-0.1,0.1l-0.1,0l-0.2-0.1l-0.1,0.1l-0.1,0l-0.4,0l-0.1,0l-0.1-0.1l0,0
	l-0.1,0l0,0l0-0.1l0,0l-0.2-0.3l-0.1-0.1l-0.2,0l-0.5,0l-0.7-0.3l0,0l0-0.2l0-0.1l-0.1-0.1l-0.1-0.1l-0.2-0.1l-0.1,0l-0.1,0.1
	l-0.1,0.1l-0.2,0l-0.1,0l-0.1,0l0,0.2l-0.2-0.1l-0.1-0.1l-0.1-0.1l0-0.1l0-0.1l0,0l-0.1,0l-0.1,0l-0.1,0l0,0l0-0.1l-0.4-0.6l0-0.1
	l0-0.1l-0.1,0l-0.1,0l-0.1,0l-0.1,0l-0.1,0l-0.1-0.1l-0.1-0.1l-0.1-0.2l0-0.2l0-0.1l-0.1-0.1l-0.2-0.2l0,0l0,0l0,0l0.1-0.1l0,0
	l-0.1,0l0-0.1l-0.1-0.3l-0.1-0.1l-0.2-0.1l-0.2-0.1l-0.1,0l0,0l-0.2,0.1l0,0l0,0.1l0,0l0,0l-0.1,0l0,0l-0.2,0.1l-0.1,0.1l0,0.1
	l-0.1,0l-0.6,0l-0.1,0l-0.2-0.2l-0.1,0l-0.2,0l-0.3-0.2l0-0.1l0-0.1l-0.1,0l-0.1,0l-0.1-0.1l0-0.1l0-0.1l0-0.1l-0.1-0.1l-0.1-0.1
	l-0.1,0l-0.1,0l-0.1,0l-0.2,0l-0.1-0.1l-0.3-0.3l-0.4-0.2l0,0l-1.2-0.2l-0.1,0l-0.2,0.1l-0.1,0l0,0l-0.3,0.3l0,0.1l-0.1,0.1
	l-0.1,0.1l-0.1,0l-0.1-0.1l-0.1-0.1l-0.1,0l-0.3,0.1l-0.2,0l-0.2-0.2l-0.5,0l-0.1-0.1l-0.1,0.2l-0.1,0.1l-0.1,0l-0.2-0.2l-0.1-0.1
	l-0.1,0l-0.2,0l-0.1,0l-0.1,0.1l-0.1,0l0,0l-0.1,0l-0.1,0l-0.1-0.3l-0.1,0l-0.3,0.1l-0.2,0l-0.2-0.1l-0.1-0.1l-0.1-0.1l-0.1-0.1
	l-0.1-0.2l-0.1-0.1l-0.1,0l-0.2-0.1l0,0l0-0.1l0.1-0.3l0-0.2l0-0.2l0-0.1l0-0.1l-0.1-0.1l0,0l-0.1,0l0,0l0,0l0,0l-0.2-0.1l-0.1-0.1
	l-0.1,0l-0.2,0l-0.1,0l-0.4-0.2l-0.2-0.1l-0.1-0.1l0,0l-0.1-0.1l0,0l0-0.1l0.1-0.1v-0.1l0-0.1l0,0l-0.1,0l0,0l0,0.2l0,0.1l-0.1,0
	l-0.1,0l0-0.1l0.1-0.1l-0.3-0.3l-0.1-0.2l0-0.2l-0.1-0.1l-0.1-0.1l-0.1,0l-0.1,0l-0.2,0.1l-0.2,0l-0.2-0.1l-0.2,0l-0.3,0l-0.1,0
	l-0.1-0.1l-0.1-0.1l-0.1-0.1l0-0.2l0.1-0.2l0-0.1l0-0.1l-0.1-0.1l-0.1,0l0,0l-0.1,0l0-0.1l0-0.2l0-0.1l0-0.2l0-0.1l0-0.1l-0.1-0.2
	l-0.1-0.3l-0.1-0.1l-0.1-0.1l-0.1-0.1l0-0.2l0-0.1l-0.1,0l0,0.1l0,0.1l0,0.4l-0.1,0.1l-0.1,0l-0.1-0.1l-0.1-0.1l0-0.1l0-0.3l0-0.1
	l0.1-0.1l0-0.1l0-0.2l0-0.1l0.2-0.1l-0.1-0.1l-0.2-0.1l-0.1,0l-0.1,0l0,0l0-0.1l0-0.1l0.1-0.2v-0.1l-0.1-0.1l-0.1-0.1l-0.2-0.1
	l-0.3,0.1l-0.2-0.2l-0.3-0.7l0-0.1l0-0.1l0.1-0.1l0.1-0.2l0-0.1l-0.1-0.1l-0.2-0.1l-0.2-0.1l-0.1-0.2l0-0.2l0.1-0.1l0.1-0.1l0-0.1
	l-0.1-0.1l-0.1-0.1l-0.1-0.1l0-0.2l0.1-0.1L70,137l0.1-0.2l0-0.2l0-0.1l0-0.2l0.1-0.2l0.1-0.1l0.1,0l0.1,0l0-0.1l0-0.1l0-0.1l0,0
	l0,0l-0.1-0.7l-0.1-0.1l-0.1-0.1l-0.1-0.1l-0.3-0.1l0-0.1l0.1-0.4l0.1-0.3l0-0.1l0-0.2l-0.1-0.1l-0.1-0.1l-0.1-0.2l0-0.1l0.1-0.4
	l0-0.1l0,0l0-0.1l0-0.1l0-0.1l0-0.1l0-0.1l0,0l0-0.1l-0.1-0.1v-0.1l0.2,0l0.1-0.1l0.2-0.4l0,0l0,0l0-0.1l0,0l0-0.2l0.1-0.2l0.1-0.2
	l0.3-0.2l0.1-0.2l0.1-0.4l0.1-0.2l0-0.1l0-0.1l-0.1-0.2l0-0.1l0-0.4l0-0.2l-0.1-0.4l-0.1-0.3l0-0.3l0-0.3l0.1-0.2l0.2-0.3l0-0.2
	l0-0.1l-0.1-0.1l-0.1-0.1l-0.1-0.1l-0.1-0.4l0,0l-0.1-0.3l-0.2-0.2l-0.1-0.1l-0.2,0l-0.1,0L69,125l-0.4,0.3l-0.1,0.1l0,0.1l0,0.1
	l-0.1,0.1l-0.1,0.1l0,0l-0.1,0l0,0l0,0l0,0.1l0,0l0,0.1l0,0.1l0,0l-0.1,0l-0.1,0l-0.1-0.1l-0.2-0.2l0,0l-0.1-0.1l-0.1,0l0,0l-0.1,0
	l0,0l-0.1,0l-0.1,0l0,0l0-0.1l0-0.2l-0.1,0l-0.3,0.1l-0.1,0l0,0l0-0.1l0-0.1l-0.1-0.1l0,0l-0.1,0.2l0,0.1l0,0.1l0,0.1l-0.1,0l0,0
	l0-0.1l0-0.1l0-0.1l-0.1,0.1l-0.1,0.1l-0.1,0l-0.3-0.1l-0.1,0l-0.1,0l-0.2,0l-0.4,0.2l-0.2,0l-0.1,0l-0.2-0.1l-0.1,0l0,0l-0.1,0l0,0
	l-0.1,0.1l0,0l0,0l0,0l0,0l0,0l-0.4,0L63,126l-0.3,0.2l-0.1,0.1l-0.8,0.1l-0.1,0.1l-0.3,0.2l-0.2,0.1l-0.2,0l-0.5,0l-1,0.2l-0.1,0
	l-0.1,0.1l0,0l0,0.1l0,0.1l0,0.1l-0.1,0.1l-0.7,0.3l-0.2,0.1l-1.1,0.9l-1.3,1.4l-0.4,0.2l-0.1,0l-0.2,0l-0.1,0l-0.1,0.1l0,0.1
	l-0.1,0.1l-0.1,0.1l-0.1,0l-0.3-0.1l-0.1,0l-0.3,0l-0.2,0l-0.1,0.1l0,0.1l0,0.2l0,0.1l-0.1,0.1l-0.1,0l-0.1,0l-0.4,0l-0.1,0
	l-0.1,0.1l0,0.1l0,0.1l0,0.1l-0.1,0.2l-0.1,0.1l-0.2,0.1l-0.3,0.1l-0.3,0.1l-0.2,0l-0.1,0.1l-0.1,0.1l-0.2,0.3l-0.1,0.1l-0.2,0.2
	l-0.1,0.1L51,133l-0.1,0.3l-0.1,0.2l-0.3,0.1l-0.2-0.1l-0.3-0.3l-0.2-0.1l-0.1,0l-0.1,0l-1,0l-0.2,0l-0.1,0l-0.1,0l-0.2,0.1
	l-0.2,0.1l-0.1,0.1l-0.3,0.6l-0.5,0.5l-0.1,0.2l-0.2,0.5l-0.1,0.2l-0.1,0.2l-0.2,0.2L46,136l-0.1,0.1l-0.4,0l-0.1,0.1l-0.3,0.2
	l-0.1,0l-0.1,0h-0.1l-0.1,0l-0.3,0.1l-0.4,0.3l-0.2,0.1l-1.1,0.2l-0.1,0l-0.1,0l0-0.1l0-0.3l0-0.2l0.1-0.2l0.1-0.2l-0.1-0.1L42,136
	l-0.2,0l-0.2,0.1l-0.2,0l-0.2,0l-0.4-0.1l-0.2,0l0,0h-0.1l0,0l-0.6-0.3l-0.1,0l-0.3,0l-0.3-0.1l-0.6-0.1l-0.5,0l-0.3,0l-0.3-0.1
	l-0.3,0l-0.5,0.1l-0.3,0l-0.6,0l-0.2,0l-1,0.1l-0.3-0.1l-0.3-0.2l-0.1-0.1l-0.2,0l-0.3,0l-0.2,0l-0.2,0l-0.3,0l-2,1l-0.3,0.1
	l-0.4,0.1l-0.4,0l-0.4-0.1l-0.4-0.2l-0.2-0.2l-0.4-0.4l-0.2-0.2l-0.2,0l-0.7,0.6l0-0.7l0-1.1l0-1.1l0-1.1l0-1.1l0-1.1l0-1.1l0-1.1
	l0-0.7l0-0.4l0-0.5l0.1-0.3l0-0.1l0.1-0.1l0.1-0.1l0.1-0.1h0l0.1,0.1l0,0l0,0l0-0.1l0-0.1l0.1-0.1l0.1-0.1l0-0.2L28,125l-0.1-0.1
	l-0.2-0.2l-0.1-0.1l-0.1-0.2l-0.1-0.3l-0.1-0.2l0,0l0.2,0l0,0l0.1,0l0.1,0l-0.1-0.2l0-0.1l0.1-0.1l0.1,0l0,0l0-0.1l0,0l0.2-0.1
	l0-0.1l0-0.1l0.1-0.1l0,0l0-0.1l-0.3,0l-0.2,0l-0.2,0.1l-0.2,0.2l-0.3,0.4l-0.2,0.2l-0.5,0.3l-0.2,0.1l-0.3,0.3l-0.2,0.1l-0.4,0.2
	l-0.1,0.2l-0.2,0.4l-0.1,0.1l-0.2,0.1l-0.1,0.1l-0.1,0.1l-0.1,0.2l-0.1,0.1l-0.1,0.1l-0.5,0.1l-0.5,0.2l-0.1,0.1l-0.1,0.2l-0.1,0.2
	l-0.1,0.2l-0.4,0.1l-0.3,0.2l-0.2,0.1l-0.1,0l-0.1,0l-0.1-0.1l-0.1,0l-0.1,0l0,0l0,0.1l-0.1,0.1l-0.1,0l-0.3,0l-1.4,0l-1.4,0l-1.4,0
	l-1.4,0l-0.4,0l0.1-0.2l0-0.1l0-0.1l0-0.2l0-0.1l0.1-0.2l0-0.1l0-0.1l-0.1-0.2l0-0.1l-0.2-0.3l-0.6-0.4l-0.1-0.3l0.1-0.3l0-0.2
	l0-0.2l-0.2-0.3l-0.1-0.1l0-0.2l0-0.2l0-0.1l0-0.1l-0.1,0l-0.1,0l-0.1,0l-0.1-0.1l-0.2-0.2l-0.2-0.1l-0.2,0l-0.5,0l-0.4,0l-0.2,0
	l-0.3-0.2l-0.3-0.1l-0.2,0l0,0l-0.1,0l0,0l0,0l-0.1-0.1l0,0l-1-0.2l-3.2,0l0.2-0.3l0.4-0.4l0.2-0.3l0.1-0.3l0.1-0.1l0.1-0.1l0.1,0
	l0.1,0l0.1-0.1l0-0.1l0-0.2l0.4-0.3l0.1-0.1l0.1-0.2l0-0.3l-0.1-0.7l0-0.1l-0.2-0.3l-0.1-0.1l-0.3-0.2l-0.1-0.1L7,117.3L6.9,117
	l-0.1-0.2l-0.1-0.1l-0.2-0.1L6,116.5l-0.2-0.1l-0.1-0.1l-0.3-0.5l-0.1-0.1l0-0.2l0.1-0.4l0-0.2l-0.1-0.2l-0.1-0.1l-0.1,0l-0.2,0
	l-0.1,0l-0.1-0.1l-0.1-0.2l-0.1-0.1L4,113.9l-0.1-0.1l-0.1-0.2l0-0.3L3.7,113l-0.2-0.3l-0.1-0.2l0-0.2l0-0.3l0-0.2l-0.1-0.2L3,111.3
	L3,111.1l-0.1-0.3l-0.3-0.2l-0.3-0.1l-0.2-0.2l0-0.1l-0.1-0.4l0-0.2l0.1,0l0.3,0.1l0.3-0.2l0.1-0.3L2.5,109l-0.2-0.2l-0.3-0.1
	l-0.3-0.1l-0.2-0.2l-1.1-1.1L0.1,107L0,106.9l0.3-0.1l0.1,0l0.1-0.2l0-0.2l0.1-0.1l0-0.1l-0.1-0.2l-0.2-0.4l0-0.2h0.2l0.3,0.1l0.1,0
	l0.2-0.1l0.3-0.2l0.1,0l0.2,0l0.3,0l0.2,0l0.1-0.1l0.1-0.2l0-0.2l-0.1-0.2l-0.1-0.4l-0.6-0.8l0-0.1l0-0.1l0-0.2l0.1-0.2L2,102l0-0.5
	l0-0.1l0.1-0.1l0.3-0.2l0.1-0.1l0.1-0.2l0.1-0.1l0.2-0.1l0.4-0.3l0.7-0.4l0.5-0.5l0.3-0.2l0.3-0.3l0.2-0.1l0.6,0l0.4-0.1l0.3-0.2
	l0.2-0.2L7,97.9l0.1-0.3l0-0.2l0-0.2L7.1,97L7,96.7l0-0.2l-0.1-0.7l0-0.1l-0.4-0.5L6.3,95l0-0.4l0.1-0.3L6.6,94l0.5-1.1l0.3-0.3
	l0.8-1.2l0.1-0.2L8.4,91l0.1-0.8l0-0.2l-0.1-0.3l0-0.3l0.1-0.3l0.2-0.5l0-0.1l0.1-0.4l0.1-0.1L9,88L9,87.9l0-0.1l0-0.5l0-0.1L8.9,87
	l-0.1-0.1l0-0.1l0.2-0.1l0.1,0l0.1,0l0.1-0.1l0,0l0-0.1l0,0l0,0l0.1,0l0,0l0.3-0.1l0.1-0.1l0.1-0.1l0.1-0.1l0.2,0l0.2,0H11l0.1,0
	l0.1-0.1l0-0.1l0-0.1l0-0.1l0.1-0.1l0.2-0.1l0.2-0.2l0.1-0.1l0.1-0.1l0.2,0l0.1,0l0,0l0-0.1l0-0.1l0,0l0,0l0-0.1l0,0l0,0l0.1,0l0,0
	l0.2-0.1l0.1-0.1l0.1-0.1l0.1-0.5l0.1-0.1l0.3-0.1l0,0l0-0.1l0-0.1l0.1,0l0.3,0l0.1,0l0.1-0.1l0.1-0.1l0.4-0.3l0.4-0.3l0.2-0.1
	l0.1-0.1l0.1-0.3l0.1-0.1l0.1,0l0.1,0l0.1,0l0.1,0l0.1-0.1l0.1-0.1l0.2-0.1l0.4-0.4l0.2-0.2l0.1,0l0.7-0.1l0.1,0l0,0l0-0.1l0-0.1
	l0.1,0l0.1,0l0.2,0.1l0.1,0l0.2,0l0.1-0.1l0.1,0l0.1,0.1l0.1,0.1l0.1,0l0.1,0l0.1,0l0.2-0.2l0.1,0l0,0.2l0.4-0.2l0.1,0l0.2,0l0.1,0
	l0-0.1l0.1-0.2l0.1-0.1l0.1,0l0.1,0l0.2,0l0.4-0.1l0.1,0l0.1,0.1l0.1,0.1l0.1,0l0.1,0l0,0l0.1-0.1l0.1,0l0.1,0l0,0l0,0l0.1-0.1
	l0-0.1l0-0.1l0-0.1l0.1-0.1l0.2,0l0.2,0l0.2,0.3l0.1-0.1l0.1-0.2l0.1-0.1l0.1,0.1l0.1,0.2l0.1,0.1l0.1,0l0.1,0l0.1-0.2l0.2-0.1
	l0.4,0.2l0.2-0.1l0-0.2l0.1,0.2l0.2,0.2l0.2-0.2l0.1-0.2l0.1-0.1l0.2-0.2l0.1-0.1l0-0.1l0.1-0.1l0.1-0.1l0.1,0l0-0.1l-0.1-0.2l0-0.1
	l0.1-0.1l0.4-0.2l0.1,0l0.5,0.1l0.1,0l0.1-0.1l0.1-0.3l0.1-0.1l0.1-0.1l0.1,0l0,0.1l0,0.2l0,0.1l0.4,0.2l0.1-0.1l0-0.2l0.1-0.1
	l0.1-0.1l0.1,0.1l0,0.1l0,0.1l0.1,0.1l0.1,0l0.3-0.3l0.1-0.1l0.1,0l0.1,0l0.1,0.1l0.2,0.2l0.1,0l0.1-0.2l0.1,0l0.1,0.1l0.1,0.1
	l0,0.2l-0.1,0.3l0,0.2l0.1,0.1l0.4,0.3l0.1,0l0.1,0l0.1,0l0.1,0.1l0.1,0.1l0.1,0.1l0.2-0.1l0.1-0.3l0.1-0.2l0.1-0.1l0.2,0l0.2,0.1
	l0.1,0.2l0,0.2l0,0.1l0.1,0.1l0.1,0.1l0.1,0l0.1,0l0.3-0.2l0.1-0.2l0.1-0.2l0-0.2l0,0l0,0l0,0l0,0l0,0l0,0l0,0l0,0l0,0l0,0l0,0l0,0
	l0,0l0,0l0,0l0,0l0.2-1.3l0.2-1.3l0.2-1.3l0.2-1.3l0.2-1.3l0.2-1.3l0.2-1.3l0.2-1.3l0.2-1.3l0.2-1.3l0.2-1.3l0.2-1.3l0.2-1.3
	l0.2-1.3l0.2-1.3l0.2-1.3l0.1-0.5l0.1-0.4l0-0.2l0.1-0.6l0-0.4l0.1-0.8l0-0.4l0,0l0.2-0.5l-0.1-0.2L36.9,53l0-0.1l0.1-0.2l0-0.1
	l0-0.3l0,0l0-0.1l0,0l0,0l-0.1,0l0,0l-0.2-0.3l-0.1,0l-0.2-0.1l-0.1-0.1l-0.1-0.1l0-0.1l0-0.1l0-0.1l0-0.1l-0.1,0l-0.1,0l-0.1,0
	L35.8,51l0-0.1l0-0.2l-0.1-0.1l-0.3-0.4L35.4,50l0.1-0.2l0.3-0.4l0.1-0.2l0-0.1l0-0.1L35.6,49l0-0.1l0-0.1l0-0.2l0-0.2l-0.1-0.2
	l-0.1-0.1L35.2,48l-0.1-0.1l-0.6-0.2l-0.1-0.1l-0.2-0.3L34,47.3l-0.2-0.1l-0.1-0.1L33.7,47l-0.1-0.2l-0.1-0.1l-0.1-0.1l-0.3-0.1
	l-0.2-0.1l-0.1-0.1l-0.2-0.3l-0.4-0.4L32,45.4l-0.1-0.2l0-0.3l0-0.4l0-0.2l0-0.6l0-0.8l0-0.9l0-0.9l0-0.8l0-0.6l0-0.2l0-0.6l0.1,0.1
	l0.2,0l0.2-0.1l0.2,0l0.2,0l0.2,0l0.2,0l0.6,0l0.3-0.1l0.3-0.1l0.3-0.2l0.3-0.2l0.1,0l0.2,0.1l0.3,0.1l0.1-0.1l0.1-0.2l0.2-0.1
	l0.1,0l0.3-0.2l0.2-0.1l0.2,0l0.2,0l0.1,0.1l0.6,0.6l0.1,0l0.2-0.1l0.2-0.1l0.1,0l0.1,0.1l0,0.2l0.1,0l0.3,0l0.1,0l0.1,0l0.1-0.1
	l0.1,0l0.1,0l0.2,0.1l0.1,0l0.2-0.1l0-0.1l0-0.2l-0.1-0.2l-0.1-0.1L39,38L38.9,38l0-0.1l0.1-0.1l0.1-0.1l0.1-0.1v-0.2L39,37.1l0-0.2
	l0,0l0.1,0l0.1,0l0-0.1l-0.1-0.1l-0.1-0.1l-0.2-0.1l-0.1-0.1l0-0.3l-0.2-0.1l0-0.1l0-0.1l0-0.1l-0.1-0.1l-0.1-0.1l-0.1-0.2l-0.1-0.1
	l-0.4-0.2l-0.1,0l-0.1,0l-0.4,0.3l-0.1,0l-0.2-0.1l0,0l0,0l0,0l-0.1,0l-0.1,0l-0.3,0l-0.3,0l-0.1,0L35.7,35l-0.2,0l-0.8,0.1l-0.1,0
	l0-0.2l-0.1,0l-0.1,0l-0.1,0l-0.2,0.1l-0.3,0.2l-0.2,0l0-0.5l0-0.6l0-0.6l0-0.6l0-0.6l0-0.6l0-0.6l0-0.6l0-0.6l-0.1-0.3l0.1,0l0.3,0
	l0.1,0l0.3-0.2l0.1,0l0.1,0l0.2,0l0.3,0l0.6-0.3l0.3,0l0.6,0.1l0.6,0.3l0.3,0H38l1,0l1.4,0l1.6,0l1.6,0l1.4,0l1,0l0.4,0l0.6,0
	l-0.1-0.1L47,29.5l0-0.1l0-0.1l0-0.1l-0.1,0l-0.3,0l0-0.2l0-0.2l-0.1-0.1l-0.2,0l-0.1,0l0.2-0.2l0.5-1.2l0.1-0.1l0,0.1l0,0.2l0,0.1
	l0.1,0.1l0.1,0l0.2,0l0.2,0.1l0.1,0.1l0.1,0.2l0.2,0.5l0.2,0.4l0.2,0.3l0.3,0.2l0.3,0.1l0.3,0l0.3-0.1l0.3-0.1l0.3-0.2l0.2-0.2
	l1-1.3l0.6-0.7l0.3-0.2l0.2-0.2l0.1-0.1l0.3,0l0.1,0l0.1-0.1l0.1,0l0.1,0l0.3,0.1l0.1,0.1l0.2,0.2l0.2,0.3l0.3,0.7l0.2,0.4l0.9,1.2
	l0.3,0.7l0.3,0.9l0.1,0.5l-0.2,2.4l0,0.4l0.1,0.2l0.2,0l0.7-0.2l0.5-0.2l0.3-0.1l0.1,0.1l0.4,0.4l0.5,0.5l0.6,0.6l0.6,0.6l0.5,0.5
	l0.4,0.4l0.1,0.1l0.3,0.3l0.5,0.4l0.5,0.1l0.5-0.1l0.2,0l0.2,0.1l0.1,0.1l0.1,0.1l0.2,0l0.2-0.1l0.3-0.3l0.2-0.1l0.4,0l0.2,0
	l0.2-0.1L65,37l0.3-0.4l0.2-0.2l0.2-0.1l0.7-0.3l0.3-0.2l0.2-0.1l0.2,0l0.6,0l0.2,0l0.1,0l0.1,0l0.1,0.1l0.1,0.1l0.2,0.2l0.1,0.2
	l0.1,0.2l0,0.2l-0.1,0.4l-0.2,0.3L68,37.8l0,0.4l0.1,0.2l0.1,0.1l0.1,0.1l0.2,0l0.2-0.1l0.2-0.1l0.2-0.1l0.1-0.3l0.2-0.2l0-0.1
	l0-0.2l0-0.1l0.1-0.2l0.1-0.2l0.5-0.6l0.1-0.1l0.2,0l0.3,0.1l0.2,0l0.2-0.1l0.2-0.3l0.1-0.3l0.1-0.7l0.2-0.4l0.3-0.1l0.3,0l0.3-0.1
	l0,0l0-0.1l0,0l0,0l0.1,0l0,0l0.3-0.2l0.1-0.1l0.2-0.1l0.1,0l0.1,0l0.2-0.1l0.2-0.2l0.1-0.1l0.1,0l0.4,0.2l0.2,0l0.2,0l1-0.7
	l0.1-0.2l0.2-0.4l0.2-0.2l0.2-0.1l0.4-0.2l0.3-0.3l0.2-0.1l0.2,0l0.2,0.1l0,0.2L77.7,32l-0.1,0.2l0,0.2l0,0.2l0.2,0.1l0.1-0.1
	l0.1-0.2l0.2-0.3l0.2-0.2l0.6-0.4l0.4-0.4l0.4-0.2l0.2-0.2l0.1-0.2l0.1-0.2l0-0.2l0-0.2l0-0.5l0.1-0.5l0.1-0.7l0.1-0.3l0.3-0.3
	l0.3-0.1l0.3,0l1,0l0.2,0l0.2-0.1l1.2-1l0.4-0.2l0.1,0l0.2,0l0.1,0l0.5-0.1l0.3-0.1l0.1-0.2l0-0.1l0-0.1l0.1-0.3l0.1-0.3l0-0.1
	l0-0.6l0-0.1l0.1-0.3l0-0.1l-0.2-0.1l-1,0l-0.5-0.1l-1.1,0l-0.5,0.1l-0.5,0l-1-0.3l-0.5-0.1l-0.2,0l-0.1-0.1l-0.1-0.1l0-0.2l0.1-0.2
	l0.3-0.6l0-0.2l0-0.5l0.1-0.2l0-0.1l0-0.1l-0.1-0.2l-0.1-0.4l-0.6-1.2L79.7,19l-0.3-0.5l-0.3-0.3L79,17.9l0-0.3l0.1-0.7l0-0.3
	l-0.2-1.1l0-0.2l0.1-0.2l0.2-0.3l0.1-0.2l0-0.1l0-0.3L79.2,14L79,13.8l-0.4-0.3l-0.5-0.6L78,12.8l-0.4-0.1l-0.3-0.2l-0.8-0.6
	l-0.4-0.5L76,11.1l-0.4-0.3l-0.2-0.2v0h0v0l-0.4-0.7L75,9.6l-0.1-0.1l-0.1-0.1l-0.2-0.1l-0.2-0.1L74.3,9l-0.1-0.2l0-0.2l0-0.2
	l0.1-0.2l0.1-0.1l0.4,0l0.4,0.2l0.3,0.3l0.1,0.2L75.7,9l0.1,0.4l0.1,0.2L76,9.6l1.8-0.3l1,0.1l0.5,0.2l0.2,0.1l0.2,0.2l0.1,0.3
	l0.1,0.3l0.1,0.6l0.1,0.3l0.2,0.2l0.3,0l0.3-0.2l0.3-0.2l0.3-0.2l0.4,0l0.3,0.1l0.2,0l0.2,0l0.4-0.1l0.2,0l0.4,0.1l0.6,0.5l0.4,0.2
	l0.3-0.1l0.1-0.3l0.1-0.3l0.2-0.2l0.3,0l0.3,0.1l0.5,0.3l0.3,0.3l0.5,0.7l0.5,0.4l0.9,1l0.1,0.2l0.1,0.1l0.2,0.1l0.2,0.1l0.2,0.1
	l0.2,0l0.1,0l0.1,0l0.2-0.1l0.2-0.1l0.1,0l0.1,0l0.1,0l0.1-0.1l0.1-0.2l0.2-0.3l0.1-0.3l0-0.3l-0.1-0.3l-0.1-0.3l0-0.2l0-0.1l0-0.1
	l0-0.1l0-0.2l0-0.2l0.1-0.2l0.1-0.2l0-0.2l0-0.2l0-0.1l0.2-0.1l0.1,0l0.5,0l0.7,0.1l0.2-0.1l0.1-0.3l0-0.2l0-0.1l0.1-0.1l0.2-0.1
	L93,9.4l0.1,0l0-0.1l0-0.1l0,0l0.3-0.1l0.4,0.1l1.5,0.7l0.3,0L96,9.7l0.6-0.5L97,9.2l0.2,0.1l0.1,0.1l0.2,0l0.2,0l0.2,0L98,9.3
	l0.2-0.1l0.1-0.1l0.4-0.5l0.2-0.1l0.1,0l0.2,0l0.3,0l0.3,0.1l0.1,0l0.1,0l0.1-0.1l0.1,0l0.1,0l0.1,0l0.1,0l0.1-0.1l0.1-0.1l0.1-0.1
	l0.1-0.1l0-0.1l0-0.6l0.1-0.2l0.4-0.1l0.2,0l0.5,0l0.2,0l0.2,0l0.2-0.1l0.1-0.1l0-0.2l-0.2-0.3l0.1-0.1l0.1,0l0.5,0.1l0.1,0l0.3,0.1
	l0.1,0l0.1,0l0.4-0.1l0.7-0.1l0.3-0.1l0.2-0.3l0.1-0.2l0.1-0.4l0.2-0.5l0.1-0.1l0.1,0l0.2,0l0.1,0l0.8-0.4l0.4-0.2l0.3-0.3l0.5-0.7
	l0.2-0.4l-0.1-0.4l-0.5-1.4l-0.2-0.2l-0.2-0.1l-0.2,0l0.4-0.1l0.2,0l0.5,0l0.1,0l0.1,0l0.1,0.1l0.1,0l0.1,0l0.5-0.1l0.2,0l0.1,0
	l0.1,0.1l0.1,0l0.1,0l0.1-0.1l0.1-0.2l0.1-0.1l0.2,0l0.4,0.1l0.2,0l0.2-0.1l0.3-0.3l0.1-0.1l0.3-0.1l0.1,0l0.1,0.2l0.1,0.1l0.4-0.1
	l0.1,0.1l0.3,0.6l0,0l0.1,0.1l0.2,0.1l0.4,0.2l0.2,0.1l0,0.2L113,2.3l0,0.3l0,0.2L113,2.9l-0.1,0.2l0,0.5L112.8,4l0,0.4l0,0.2l0,0.1
	l-0.1,0.1l-0.2,0.3l0,0.1l0,0.1l0,0.1l0,0.1l-0.1,0.1l-0.1,0l-0.2,0l-0.1,0l-0.2,0.2l0,0.2l0,0.2l0.1,0.1l0.1,0.1l0.1,0l0.1,0l0,0
	l0-0.1l0-0.1l0.1,0l0.1,0l0,0.1l0,0.2l0.1,0l0.1,0l0.2,0l0.2,0.1l0.1,0l0-0.1l0-0.1l0.1,0l0.1,0l0.1,0l0.1,0l0.1,0.2l0,0l0.1,0
	l0.2-0.1l0.1,0l0,0l0,0.1l0,0.1l0,0l0.1,0l0,0l0.2,0l0.1,0l0.1-0.1l0.1,0.1l0.5,0.3l0.1,0.1l0.1,0.1l0.1,0.1l0.1,0l0.1,0l0,0l0,0.1
	l0,0.1l-0.1,0.2L115.2,8l-0.1,0.2l0,0l0.1,0.1l0,0.1l0,0.1l-0.1,0.1l0,0l0,0.1l0,0.1l0,0.1l0.1,0.2l0.1,0.1l0.3,0.1l0.2,0.1l0,0.1
	l-0.1,0.1l0,0.2l0.1,0.1l0.3,0.3l0.1,0.2l0,0l0,0l0,0.2l0.1,0l0.1,0l0.3,0l0.1,0l0.1,0.1l0,0.1l0,0.1l0,0l-0.1,0l-0.1,0.1l-0.2,0.2
	l-0.1,0.2l0,0.2l0,0.2l0,0.1l0,0.1l-0.2,0.1l-0.3,0.2l-0.1,0.1l-0.1,0.2l0,0.1l0,0.1l0,0.1l0,0.1l-0.1,0.1l-0.2,0.1l-0.3,0.3
	l-0.7,0.2l-0.2,0.2l0,0.2l0.1,0.2l0.1,0.2l0.1,0.2l-0.1,0.3l0,0.1l0.1-0.1l0,0.4l0,0.1l0,0.1l0,0.1l0,0l-0.1,0l-0.1,0l0,0l-0.1,0.3
	l-0.2,0.4l0,0.1l-0.1,0.4l-0.1,0.1l-0.1,0.1l0,0.1l0,0.1l0,0.1l0.1,0.1l0,0.1l0,0l-0.1,0l0,0l0,0.1l0.1,0.1l0,0.1l0,0.1l0,0l-0.1,0
	l0,0l-0.2,0.4l-0.1,0.2l0,0.2l0,0.5l0,0.2l-0.2,0.7l-0.1,1.4l0,0.2l0.3,0.5l0,0l0,0.1l0,0l0,0l0.1,0l0,0l0.1,0.1l0,0.1l0,0.1l0,0.2
	l0.2,0.5l0,0.1l0,0.2l0,0.1l0,0.1l-0.1,0.1l0,0.1l0.1,0.2l0.2,0.1l0.3,0.2l0.2,0.2l0.1,0.1l0.1,0l0.2,0l0.1,0l0.2,0.2l0,0.3l0,0.3
	l0,0.3l0.1,0.2l0,0.1l0,0.1l-0.1,0.1l0,0.1l0,0.1l0.1,0.2l0,0.1l0,0.1l0,0.1l0,0.1l0,0.2l0,0.1l0,0.1l-0.1,0.2l0,0.1l0,0.1l0,0.2
	l0,0.2l0.1,0.1l0.1,0l0.2-0.1l0.1,0l0.3,0.1l0.1,0l0.1,0l0,0l0,0.1l-0.2,0.3l-0.1,0.2l0,0.1l0.2,0.2l0.1,0.1l0.1,0l0.1,0l0.2,0
	l0.1,0l0.1,0l0.2,0.1l0.2,0.1l0.2,0.4l0.1,0.2l0.3,0.2l0.1,0.1l0.2,0.3l0.1,0.1l0,0l0.1,0l0,0l0,0l0.1,0.1l0,0l0.1,0l0.2,0l0.1,0
	l0.1,0.1l0,0.2l0,0.1l0.1,0.1l0.1,0.1l0.2,0.4l0.1,0.1l0.1,0.1l0.5,0.2l1.3,0.2l0.3,0.1l0,0l0.2,0.1l0.1,0.1l0.1,0.2l0,0.2l0.1,0.2
	l0.2,0.2l0.2,0.1l0.1,0l0.1,0l0.2,0l0.2-0.1l0.2-0.1l0.1-0.1l0.2-0.3l0.1-0.1l0.1,0l0.8,0.1l0.1,0l0.1-0.1l0,0l0,0l0,0l0,0l0,0
	l0.1,0l0.1,0l0.1,0l0.3-0.4l0.1-0.1l0-0.2l-0.1-0.2l-0.2-0.3l-0.1-0.2l0.1-0.1l0,0l0.6-0.1l0.1,0l0.2-0.2l0-0.1l0-0.2l0-0.1l0.1-0.1
	l0.2-0.1l0.1,0l0.1-0.1l0-0.1l0.1-0.1l0.1-0.1l0,0l0.1,0.1l0.1,0.1l0.1,0.1l0.2,0.1l0.2,0l0.2,0l0.1,0l0.1,0l0.1,0l0.1,0.1l0.1,0.1
	l0.1,0.2l0.1,0.1l0.3,0.1l0.4,0l0.3-0.1l0.1-0.2l0.1-0.3l0.1-0.2l0-0.1l0-0.3l0-0.1l0-0.1l0.1,0l0.2,0.1l0.1,0l0.1-0.1l0.3-0.2
	l0.7-0.3l0.3-0.1l0.3,0l0.7,0.1l0.2,0l0.4-0.1l0.2-0.2l0.5-0.7l0.1-0.2l0.2-0.6l0.1-0.1l0.1,0l0.2-0.1l0.1-0.1l0.1-0.1l0.1-0.1
	l0.2-0.1l0.2,0l0.3,0.2l0.2,0l0.7-0.4l0.4-0.2l0.2,0.2l0.1,0.2l0.1,0.2l0.1,0.1l0.2,0.1l0.1,0l0.1,0l0.3,0l0.2,0l0.1,0l0.1,0.1
	l0.1,0.1l0.1,0l0.6,0.1l0.1,0l0.1,0l0.3-0.3l0.1,0l0.2,0l0.2,0l0.1-0.1l0.1-0.1l0.1-0.1l0.2,0l0.1,0.1l0.1,0.1l0.1,0.1l0.1,0
	l0.2-0.1l0.4-0.1l0.4,0.2l0.1,0l0.2,0l0.2-0.1l0.2,0l0.2,0.1l0.3,0.2l0.2,0.1l0.1,0l0.4,0l0.5,0.1l0.5,0.2l0.5,0.1l0.5-0.2l0.3-0.3
	l0-0.3l0-0.3l0-0.4l0-0.1l0-0.1l0-0.1l0-0.1l-0.1-0.1l-0.3-0.2l-0.3-0.4l-0.1-0.1l-0.2-0.2l-0.1-0.2l-0.1-0.3l-0.2-0.1l-0.1,0
	l-0.4,0l-0.1-0.1l0-0.2l0.1-0.2l0.1-0.2l0.1-0.1l0.1,0l0.1,0l0.1,0l0.1,0l0.1,0l0.1-0.1l0.2-0.4l0-0.1l0-0.4l0.1-0.4l0.1-0.1l0.1,0
	l0.1,0l0.2,0l0.2,0.1l0.4,0.4l0.1,0.1l0.6,0.1l0.1,0l0.1,0.1l0.1,0.2l0.1,0.1l0.2,0l0.6-0.2l0.3-0.1l0.2,0l0.2,0l0.5,0l0.3,0l0.3,0
	l0.3,0l0.2-0.1l0.1-0.1l0-0.2l0-0.2l0.1-0.1l0.1-0.1l0.1,0l0.1,0l0.1,0.1l0.2,0l0.6-0.5l0.3,0l0,0.1l0,0.2l0.1,0.1l0.1,0l0.1,0
	l0.3-0.1l0.3-0.3l0.2-0.1l0.3-0.1l0.1,0l0,0.1l-0.1,0.1l-0.2,0.2l0,0.1l0,0.1l0.8,0.8l0.3,0.1l0.4-0.1l0.1-0.1l0.1-0.1l0.1,0
	l0.2,0.1l0.1,0.1l0,0l0,0.2l0,0l0,0.1l0,0l0,0.1l0,0l0,0l0,0l0,0.2l0.1,0.2l0,0.1l0,0.1l0,0.1l0.1,0l0.2,0l0.2,0l0.2,0l0.2-0.1
	l0.2,0l0.2,0.1l0.2,0.1l0.1,0.1l-0.2,0l0,0.1l0.3,0.2l0.2,0.2l0.1,0.1l0.3,0l0.1,0l0.1,0.1l0.1,0l0.1,0l0.1,0l0.1,0l0.1,0.1l0.2,0.2
	l0.1,0.1l0.1,0l0.4,0.1l0.1,0l0.1,0l0.2,0l0.1,0l0,0l0.3,0.3l0.1,0.1l0.1,0l0.2,0l0,0l0.1-0.1l0.1-0.3l0.1-0.1l0.1,0l0.2,0l0,0
	l0.1,0.1l0,0l0.1,0l0.1-0.1l0,0l0.3-0.1l0.1-0.1l0.1-0.2l0-0.2l0,0l0.1,0l0.2,0l0.1-0.1l0.1-0.1l0.1-0.1l0.2,0l0.1,0l0.1-0.1
	l0.1-0.1l0.1-0.1l0.1-0.1l0.2,0l0.1,0l0.1,0.1l0,0.1l-0.1,0.2l0,0.1l0.1,0l0.2,0l0.5,0.2l0.1,0l0.3,0l0.1,0l0.3,0.2l0.1,0l0.2,0
	l0.3,0l0.1,0l0.3-0.2l0.3-0.1l0.1-0.1l0.2-0.3l0,0l0,0l0.1,0l0.1,0.1l0.2,0.3l0.5,0.4l0,0.1l-0.2,0.1l-0.1,0.1l-0.1,0.1l0.1,0.1
	l0.1,0l1-0.2l0.2,0l0.2,0.1l0.3,0.2l0.3,0l0.3,0.1l0.2,0l0.1,0l0.1-0.1l0,0l0,0l0.1,0l0,0l0.1-0.1l0.1-0.1l0.1-0.2l0.1-0.2l0.1-0.1
	l0.3-0.1l0.9-0.6l0.1-0.1l0.1-0.1l0.2-0.3l0.3-0.3l0.2-0.3l0.2-0.4l0-0.1l0-0.1l0-0.1l0-0.1l0-0.1l-0.1-0.2l0-0.1l0,0l0.2-0.1l0.1,0
	l0-0.1l0.1-0.3l0.6-1.5l0.1-0.1l0.1-0.1l0.1,0l0.1,0l0.1-0.1l0-0.1l-0.1-0.1l0-0.1l0-0.1l0.5-1l0-0.1l-0.1-0.4l0-0.2l0.1-0.2
	l0.3-0.2l0.2-0.4l0.2-0.1l0.1,0l0.1,0l0.1,0l0.1-0.1l0.1-0.1l1.1-1.8l0-0.1l0-0.1l0-0.1l0.2-0.1l0.1-0.1l0.1-0.2l0.3-0.5l0.1-0.2
	l0.1-0.4l0.1-0.2l0.1-0.1l0.1,0l0.1,0l0.1,0l0.1-0.1l0-0.1l0-0.2l0-0.1l0.1-0.1l0.3-0.1l0.5-0.6l0.1-0.2l0.1-0.2l0.1-0.3l0.1-0.3
	l0.2-0.2l0.6-0.3l0.3-0.1l0.2-0.2l0.3-0.8l0-0.5l0.1-0.2l0.1,0l0.1,0.1l0.1,0.1l0.1,0.5l0.2,0.6l0.5,0.9l0.1,0.3l0.1-0.2l-0.1-0.2
	l-0.2-0.4l-0.3-0.6l-0.4-1.2l-0.1-0.9l0-0.1l0.1-0.4l0.1-0.1l0.2-0.1l0.2,0.1l0.3,0.2l0.5,0.4l0.7,0.8l0.6,0.8l0.3,0.7l0.1,0.4v0.8
	l0,1l-0.1,0.9l0.2,0.4l0-0.2l0.1-0.6l0.1-0.7l0.1-0.3l0.2-0.3l0.2,0l0.1,0.2l-0.1,1.3l0,1.1l0,0.8l-0.1,0.4l0,0.6l0.5,1.2l0.1,0.4
	l-0.1,0.3l0.1,0.2l0.1,0.3l0,0.2l0,0.1l0,0.2l0.1,0.1l0.1,0.1l0.1,0.2l0,0.2l0.1,0.2l0.1,0.2l0.1,0.2l0.1,0.1l0,0.1l0,0.1l0,0.1
	l0,0.1l0.1,0.1l0.1,0l0,0.1l0.1,0.1l0,0.1l0,0.1l0.1,0.1l0.1,0.2l0,0.2l0.1,0.2l0.1,0.2l0,0.2l0,0.2l0.1,0.3l0.1,0.3l0,0.2l-0.1,0.1
	l-0.1,0l0,0.1l0,0.1l0,0.1l0.1,0l0,0l0-0.1l0.1,0l0.1,0.1l0.1,0.2l0.1,0.2l0,0.2l0.1,0.2l0.1,0.2l0,0.1l0,0.1l0,0.3l0.1,0.2l0,0.3
	l0,0.2l0.1,0.2l0.1,0.1l0.1,0.2l-0.1,0.2l-0.1,0l-0.1,0l-0.1,0l-0.1,0l-0.2-0.1l-0.1-0.1l-0.1-0.1h-0.1V26l0,0l0,0.1l0,0l0.1,0l0,0
	l0,0.1l0,0.1l0,0.1l-0.1,0.2l0,0.1l0.1,0.1l0,0.1l0.1,0.1l0.1,0l0-0.1l0-0.1l0-0.1l0-0.1l0.1-0.1l0.1-0.1l0.1-0.1l0.2,0l0.2,0
	l0.3,0.2l0.2,0.3l0,0.4l0,0.1l0.2,0.5l0.2,0.3l0.1,0.1l0.1,0.3l0,0.1l0.1,0.1l0.1,0.1l0.2,0.1l0.3,0.1l0.3,0l0.3-0.1l0.2-0.1l0.2,0
	l0.1,0l0.2,0l0.1,0l0.3-0.1l0.1,0l0.2,0l0.1,0l0.2,0.1l0.4,0.1l0.7,0.3l0.4,0.3l0.2,0.3l0.1,0.2l0.1,0.4l0,0.3l0,0.2l0,0.2l0.1,0.5
	l0.1,0.3l0,0.3l0,0.3l-0.1,0.4l-0.1,0.1l-0.1,0.1l-0.2,0.1l-0.3,0.1l-0.4,0.1l-0.3,0l-0.3,0.1l-0.1,0l-0.1,0l-0.1,0l-0.1,0l0,0.1
	l0.1,0.1l0.1,0.1l0.2-0.1l0.2,0.1l0.3-0.1l0.2,0l0.2,0l0.2-0.2l0.2,0l0.1,0.1l0.1,0.2l0,0.1l0,0.1l-0.1,0.3l-0.2,0.3l-0.3,0.2
	l-0.3,0l-0.1-0.3l-0.1,0.1l0,0.3l-0.1,0.3l-0.3,0.1l-0.1,0.1l-0.3,0.4l-0.1,0.1l-0.1,0.1l-0.6,0.3l-0.1,0.1l-0.3,0.4l-0.1,0.1
	l-0.3,0.7l-0.1,0.1l-0.1,0.1l-0.5,0.3l-0.2,0.1l-0.1,0.1l-0.3,0.8l-0.5,0.9l-0.4,0.6l-0.7,0.7l-0.8,1l-0.1,0l-0.1,0h-0.3l-0.6,0.2
	l-0.4,0.3l-0.3,0.4l-0.4,0.8l-0.1,0.1l-0.1,0l-0.5,0l-0.3,0.1l-0.1,0l0,0.1l0,0.1l-0.2,0l-0.2,0.1l-0.4-0.1l-0.1,0v0.1l0.1,0l0.2,0
	l0.1,0.1l0.1,0.1l0,0.1l0,0l0.1,0l-0.6,0.7l-0.1,0.4l-0.2,0.2l-0.1,0.3l-0.1,0.1l-0.1,0.3l-0.1,0.1l-0.2,0.2l-0.1,0.1l0,0.1l0,0.1
	l0,0.1L182,48l-0.3,0.3l-0.2,0.1l-0.1,0.1l-0.1,0l-0.2-0.1l-0.1,0v0.1l0.1,0l0.1,0l0.1,0v0.1l-0.1,0l-0.1,0v0.1l0.1,0l0.1,0l0.1,0
	l0-0.1l0.1,0.1l-0.4,0.4l-0.4,0.6l-0.1,0.1l-0.1,0.1l-0.1,0l-0.3,0.4l0,0.1l-0.1,0.3l-0.1,0.7l0.1,0.8l0,0.3l0,0.1l0,0.1l0,0l0,0
	l-0.1,0.1l-0.2,0.1l-0.3,0.2l-0.1,0.1l-0.2,0.3l-0.1,0.1l-0.6,0.2l0,0l-0.2,0.2l0,0.4l0.1,0.7l0,0.1l-0.1,0.1l-0.2,0.2l-0.2,0.3
	l-0.1,0l-0.5,0l-0.2,0l-0.5-0.2l-0.1-0.1l-0.1-0.1l-0.1-0.1l-0.2,0l-0.2,0.1l-0.1,0.1l-0.2,0.3l-0.1,0l-0.2,0l-0.2,0.1l-0.6,0.1
	l-0.2,0.1l-0.2,0.1l-0.1,0.1l0,0.1l-0.1,0.1l-0.7,0.3l-0.1,0l-0.3,0l-0.5,0.2l-0.1,0.1l-0.1,0.1l0,0.1l0,0.1l0,0.1l0,0.1l0.1,0
	l0.1,0l0.1,0l0.2,0l0.5-0.1l1.4-0.1l0.6-0.1l0.1,0l0.3-0.2l0.1,0l0.1,0.1l0.1,0.1l0.1,0.2l0,0.2l0,0.1l0,0.1l0,0.1l0,0.1l-0.1,0.2
	l-0.1,0.1l0,0.2l0,0.2l0.1,0.1l0.2-0.1l0.1,0l0,0l0,0l0-0.1l0,0l0.3-0.3l0.2-0.1l0.1,0l0.4,0l0,0l0.1-0.1l0.1,0l0.1,0l0.2,0l0.1,0
	l0.4-0.1l0.4-0.2l2-1.4l0.6-0.1l0.1-0.1l0.2-0.1l0.6-0.2l0.2-0.1l0.2-0.1l0.2-0.2l0.1-0.2l0.1-0.1l0.2-0.1l0.4-0.1v0.1l-0.1,0l0,0
	l0,0l0,0.1l0.2,0l0.2-0.1l0.2-0.1l0.1-0.1l0.1-0.2l0.2-0.3l0.1-0.1l0.2-0.2l0.2-0.2l1-0.5l0.2-0.2l0.1-0.2l0-0.1l-0.1-0.1l0-0.1
	l0.1-0.1l0.2,0l0.2,0.2l0.2,0.1v-0.1l-0.1-0.1l0-0.1l0-0.1l0.1-0.1l0.1,0l0.4,0.1l0.2,0l0.1,0l0.1,0.1l0,0.1l0,0.1l0,0.3l0,0.4
	l0,0.1l-0.1,0.1l-0.1,0.1l-0.1,0l-0.1,0.1l-0.2,0.3l-0.1,0.1l-0.1,0l-0.1,0l-0.3,0l0.9,0.6L187,54l0.1,0.1l0,0.2l-0.1,0.5l0,0.5l0,0
	l0.1,0l0.1,0.1l0,0.1l-0.1,0.1l0,0.1l0,0.1l0.1,0.2l0.3,0.3l0.1,0.4l0.1,0.1l0.5,0.5l0.1,0.1l0.1,0.6l0.1,0.2l0.1,0.2l-0.2,0.2
	l-0.1,0l-0.4-0.2l0.1,0.2l0.1,0.1l0.1,0.2l-0.1,0.3l-0.2,0.1l-0.2,0.1l-0.1,0.1l0,0.2l-0.2,0.1l-0.2,0l-0.2-0.1l-0.2-0.1l-0.2-0.1
	l-0.1,0.1l0,0.1l0.1,0l0.1,0.2l0.1,0.1l0,0.2l0.1,0.2l0.1,0.1l0.1,0l0-0.2l0-0.1l0.1,0l0.2,0l0.4,0l0.2-0.1l0.1,0l0-0.2l0-0.1l0-0.1
	l0.1-0.1l0.1-0.1l0.1-0.2l0.1,0l0.2,0.1l0.2,0l0.2,0.2l0.2,0.4l0.1,0.1l0.2,0.1l0.2,0.1l0.1,0l0.1,0l0.1,0l0,0.1l0,0.1l-0.1,0.2
	l0,0.1l0.1-0.1l0.1-0.2l0.1-0.1l0,0.1l0,0.1l0,0.1l-0.1,0.1l0,0.1l0,0.1l0.1,0.2l0.1,0.3l0.1,0.1l0.1,0.1l0-0.2l0-0.1l0.1-0.1
	l0.1-0.1l0-0.1l0-0.1l0-0.1l0-0.1l0.1-0.1l0.2-0.2l0.2-0.2l0.3-0.1l0.2,0.1l0.2-0.1l0.2,0l0.2,0.1l0.2,0.1l0.1-0.3l0.1-0.2l0.2-0.1
	l0.7-0.2l0.2,0l0.2,0l0.2,0.1l0.2,0.1l0.5,0.3l0,0.1l0,0.1l0,0.1l-0.2,0.4l0.2-0.2l0.1-0.2l0,0.2l0,0.2l0,0.2l0,0.2l-0.1,0.2
	l-0.2,0.3l0,0.2h0.1l0.2-0.3h0.1l0,0.1l0.1,0.2l0.1,0.1l0.1,0.1l-0.1-0.4l-0.1-0.4l0-0.7l-0.1-0.1v-0.1l0.1,0l0,0.1l0,0.3l0.1-0.2
	l0-0.1l0.1-0.1l0.2,0l0.2,0l0.1,0.1l0.1,0.1l0.1,0.1l0-0.2l0.1-0.1l0.1,0l0.1,0.1l0.1-0.1l0.1,0l0.2,0.1l0.3,0.3l0.1,0.1l0.1,0.2
	l0,0.2l0.1-0.1l-0.1-0.3l-0.3-0.5l-0.1,0.1l0-0.1l0-0.1l0.2-0.2l0.3-0.2l0.3-0.1l0.2,0.2l0.1-0.5l0.1-0.1l0.2-0.1l0.2,0l0.1,0.1
	l0,0.2l0.1,0l0.1-0.1l0.1,0l0,0.2l-0.2,0.2l0,0.1l0,0.2l0.1,0.1l0.1,0.1l0.2,0.1l0.3,0.1l0.1,0.1l0,0.2l0,0.1l0,0.1l-0.1,0.1
	l-0.1,0.1v0.1h0.1l-0.1,0.1l-0.2,0.2l-0.1,0.1l0,0.1l0,0.7l0,0.1l-0.1,0.2l0,0.2l-0.1,0.1l-0.1,0l-0.1,0.1l-0.2,0.4l0,0l0,0.1l0,0.4
	l0,0.1l0,0.1l-0.1,0.1l0,0.1l0,0.1l0,0.2l0,0.1l-0.1,0.2l0,0.1l0,0.1l0,0.2l0,0.5l0,0.2l-0.5,0.7l-0.1,0.1l-0.2,0l-0.2,0.1l-0.1,0.1
	l-0.1,0.2l0.2,0.1l0.4-0.1l0.6-0.2l0.1-0.1l0-0.1l0-0.1l0-0.2l0.1-0.1l0.2-0.1l0,0l0,0l0-0.1l0-0.1l0.2-0.2l0.1-0.1l0.1-0.2l0-0.2
	l0-0.3l0-0.2l0.1-0.2l0.8-1.4l0.1-0.4l0.1-0.3l0-0.2l0-0.1l0.6-1.2l0.2-0.3l0.2-0.2l0.1,0l0.1,0l0.1-0.2l0-0.1l0.1-0.3l0-0.3
	l0.3-0.2l0.3-0.2l0.3-0.3l0.1-0.4l0.2-0.3l0.3-0.1l0.2-0.1l0.2-0.1l0.1-0.1l0.1,0l0,0.1l-0.1,0.2l-0.1,0.1l0,0.2l-0.1,0.1l-0.1,0.3
	l-0.2,0.1l-0.1,0.1l-0.1,0.1l0,0l0,0.1l0,0.2l-0.1,0.2l-0.1,0.2l-0.2,0.1l-0.1,0.1l-0.1,0.2l-0.1,0.1l0,0.1l0.1,0l0.1,0l0.1-0.1
	l0.1-0.2l0.2-0.1l0.2-0.1l0.1-0.2l0.1-0.2l0.1-0.1l0.1-0.1l0.1,0l0,0l-0.1-0.2l0-0.1l0.1-0.1l0.1-0.1l0.1,0l0,0l0-0.1l0,0l0,0l0,0
	l0,0l0.1,0l0.1,0l0,0l0,0l0-0.1l0,0l0.6-0.9l0,0l0,0v0l0,0l0,0l0.1,0l0,0l0.1-0.1l0-0.1l0-0.1l0.2-0.4l0.2-0.3l0.1,0l0.1,0.2
	l0.1,0.2l0.1,0.2l0.2,0.5l0.1,0.1l0.1,0.1l0.1,0.2l0.1,0.1l0.1,0l0.2,0.3l0.1,0.1l0.2,0l0.1,0l0.1,0.1l0.1,0.1l0,0.1l0.1-0.1l0-0.2
	l-0.1-0.2l0-0.1l-0.1-0.2l-0.3-0.3l0-0.2l0.1,0.1l0.1,0l0.2,0l0.4-0.1l0.2-0.1l0.1-0.1l0.1-0.1l-0.1,0l-0.3,0l-0.1,0l-0.1,0l-0.1,0
	l-0.1,0l-0.1,0.1l-0.1,0l-0.2,0l-0.2,0l-0.2-0.1l-0.1-0.1l0-0.1l0-0.2l0.1-0.7l0.1-0.4l0.2-0.3l0.1-0.2l0.1,0.1l0,0.3l0,0.3l0.1,0
	l0.6,0.1l0,0l0-0.2l0-0.1l0.1-0.4l0.1-0.3l0.2-0.2l0.3,0.2l-0.1-0.1l-0.1-0.1l-0.1-0.1l0.1-0.1l-0.1-0.1l0.1-0.1l0.1,0l0.1,0l0.1,0
	l0.1,0l-0.1,0l-0.1,0l-0.2,0l0,0l-0.1-0.2l0-0.2l0-0.1l0.1,0l0.4,0l0.1,0l0.1-0.1l0.1-0.1l0-0.1l0-0.1l0-0.1l0,0l0,0l0.1-0.1l0,0
	l0-0.2l0-0.2l0,0l0,0l0,0l0,0l0-0.1l0,0l0-0.2l0-0.1l0-0.1l-0.1-0.1l-0.1,0l0,0l0-0.2l0-0.1l0.3-0.5l0.6-0.5l0.1,0.1l0,0.1l0,0.1
	l0,0.1l0,0.1l0,0.1l0,0l0.1,0.1l0,0l0.1,0.1l0.3,0.3l0.1,0l0.1-0.3l0.5-0.4l0.1-0.2l0.1,0l0.2,0.1l0.2,0.1l0-0.1l-0.1-0.1l0-0.2
	l0-0.3l0.1-0.1l0-0.1l0-0.1l0.2,0.1l0.1,0.1l0,0.2l0,0.1l0.2,0l0.2,0.1l0.1,0.2l0,0.4l-0.1,0.1l-0.1,0.1l-0.1,0.1l0.1,0.1l0.1,0
	l0.6-0.3l0.2-0.1l0.1-0.1l0.1-0.1l0.1-0.3l0.1-0.1l-0.1-0.2l0-0.3l0.1,0l0.1,0.1l0.2,0.2l0,0.1l0.1,0.1l0,0.1l0,0.1l0,0.1l0,0.1
	l0.1,0.1l0.1,0.2l0,0.1l0,0.1l-0.1,0.2h0.6l0.1,0.1l0,0.3l0.1,0.1v-0.1l0-0.1l0-0.1l0.1-0.1l0,0l0,0l0-0.1l0-0.1l-0.2-0.1l-0.2-0.3
	l-0.1-0.1l0,0.1l0,0.1l0,0.1l-0.1,0.1l0-0.9l0-0.1l0.1,0l-0.1-0.1l0.1-0.1l0.1,0l0.1,0l0.1,0.1l0,0.1l0,0.1l0,0l0,0.1l0,0.3l0.1,0.2
	l0-0.1l0-0.1l0-0.1l0.1,0l0,0.1l0,0.1l0.1,0.1l0.1,0v0l-0.1,0l-0.1-0.1l0-0.1l0.1-0.1l0.1,0l0.1,0.1l0.2,0.1l0-0.1l-0.1-0.1
	l-0.1-0.1l0-0.1l0.1,0.1l0.1,0l0.1-0.1l0.1,0l0.1,0.1l0,0.1l0,0.2l0,0.1h0.1l0.1-0.1l0.1,0.1l0,0.1l-0.1,0.1l0.1-0.1l0-0.1l0-0.1
	l0-0.1l0.4,0.3l0,0.1l0,0.1l-0.1,0l-0.1-0.1h-0.1l0,0.1l0,0.1l-0.1,0l-0.1,0v0.1l0.1,0.1h0.1l0.1-0.1l0.1,0l0.1,0l0.1,0.1l0-0.1
	l0-0.1l0,0l0.1,0l0,0.1l0,0.1l0,0.1l-0.1,0.1l-0.1,0l-0.1,0.1l0,0l0,0.1l0.1,0l0.1,0l0.1-0.1l0.1,0.1l0.1,0.1l0,0.1l0,0.1l0-0.2
	l0-0.2l0-0.2l0.1-0.1l0,0.1l0,0.1l0,0l0-0.1l0,0l0,0l0-0.1l0-0.1l0.1-0.1l0-0.1l0-0.2l0-0.1l0.1,0l0.1,0l0,0.1l0,0.1l0,0.1l0,0l0,0
	l0,0l0,0l-0.1,0.1l0,0.2l0,0.1l0,0.1l0.1-0.1l0,0.1l0,0.1l0,0.1l0.1,0l-0.1,0.1l-0.2,0.1l0,0.1l0,0.1l0.1,0.2l0,0.1l0-0.1l0-0.3
	l0-0.1l0-0.1l0.1-0.1l0-0.1l0,0l0.1,0l0-0.2l0-0.1l0.1,0h0.1l0.1-0.1l0.1-0.2l0.1-0.3l0.1,0.1l0,0.2l-0.1,0.4h0.1l0.1-0.1l0.1,0
	l0,0.1l0,0.1l0,0.1h0.2l0,0.1l-0.1,0.1l0,0l0.1,0l0,0l0,0l0,0.1l-0.1,0.1l-0.1,0l-0.1,0l-0.1,0.1l0,0.1l0,0.1l0.1,0.1l0-0.1l0-0.1
	l0-0.1l0.1-0.1l0.2,0.1l0.1,0l0-0.2l0.1,0.1l0-0.1l0-0.4l0.1,0l0.1,0l0,0.1l0,0.1h0.1l0-0.1l0,0l0,0l0.1,0l0-0.1l0,0l-0.1,0l-0.1,0
	l0.1-0.1l0.2-0.3l0.1-0.1v-0.1l-0.1-0.1l0.1,0l0.1,0l0.1,0.1l0,0.1l-0.1,0l0,0.1l0,0.1l0.1,0.1l-0.1,0l-0.1,0v0.1l0.1,0.1l0,0
	l-0.1,0l-0.1,0v0.1l0.1,0l0,0.1l0,0.1l0,0.1l0.1,0l0.1,0l0-0.1l0-0.1h0l-0.1,0.5l0,0l0,0l0,0.1l0.1,0.2l0,0.1l0-0.1l0-0.1l0-0.1
	l0.1-0.1h0.1v0.2l0.1,0l0-0.1l0-0.3l0.1,0.1l0.2,0.3l0,0.1l0,0.1l-0.2,0.4l0.1-0.1l0.2-0.3l0.1-0.1l0-0.1l0-0.2l0.1-0.2l0.2,0.1
	l0.1,0.1l0,0.1l0,0.1l0.1,0l0.1,0l0-0.1l-0.2-0.3l0-0.1l0.1,0l0.2,0.1l0.1,0.4l-0.2,0.3l0,0.1h0.1l0.1,0l0,0.1l0,0.1l-0.1,0.1
	l-0.1,0.1l-0.1,0l-0.1-0.1l0-0.1h-0.1l0,0.1l-0.1,0.1l-0.3,0.2l-0.1,0.1l-0.1,0.1l0,0.2l0.1-0.1l0.1-0.1l0.2-0.1l0.2-0.1l0,0l0.2,0
	l0.2,0l0.2,0l0.2,0.1l0.1-0.2l0-0.2l0.1-0.1l0.2-0.1l0.1-0.1l0.1,0l0.1,0l0.1-0.1l0.2,0l0.2,0l0.1,0.1l0,0.1l-0.1,0.1l-0.2,0
	l-0.2,0.1l0.1,0.1l0,0.1l-0.1,0.1l0,0.1l0.1,0.1l0,0.2l0,0.1l0.1,0l0,0.1l-0.1,0.1l0.1,0l0.1,0l0.1,0l0-0.1l0,0l0.1,0l0.1,0.1l0.1,0
	l0.1-0.1l0.1-0.1l0.2,0l0,0.1l0,0.2l0,0.2l0,0.1l0-0.1l0-0.2l0-0.1l0.1-0.1l0.1,0l0,0.1v0.3l0,0.1l0,0.1l0,0.1l0.1-0.1l0.1-0.1
	l0-0.2l0-0.2h0.1l0.1,0.1l0.2,0.2l0.1,0.1l0-0.1l-0.1-0.2l0-0.1l0,0l0-0.1v-0.1l0.2,0l-0.1-0.1l-0.1-0.1l0-0.1l0.1-0.1l0-0.2
	l0.1-0.2l0.1-0.1l0.3-0.1l0.2,0.1l0,0.3h-0.1l-0.1,0l-0.1,0.1l-0.1,0.2l0,0.1l0.1,0l0.1,0l0,0.1l-0.1,0.1l0,0l0,0l0,0l0,0l0,0l0,0.1
	l0,0l0.1,0.1l-0.4,0.9l0.3-0.3l0.1-0.1l0.1,0l0.1,0.1l0.1,0l0.1,0l0.1-0.2l0.1-0.1l0.1,0l0,0.1l-0.1,0.3l0,0.1l0.1-0.1l0-0.1l0-0.4
	l0-0.1l0.1-0.1l0.1-0.1l0,0l0.1,0l0,0.1l0,0.1l0,0.1l0.1,0.2l0,0.1l-0.1,0.1l-0.1,0.1l-0.1,0.1l0,0.2l0.1,0.1l0.1-0.1l0.1-0.1
	l0.1-0.2l0.1,0.1l0,0.1l0,0.1l0,0.1l0.1-0.1l0-0.1l0-0.2l0-0.1l0-0.1l0.1-0.1l0.1-0.1l0-0.2h0.1l0,0l0,0l0,0l0,0l0.1,0l0-0.2l0-0.1
	l0.1-0.1l0.1,0.1l0,0.1l0,0.1l-0.1,0l0,0l0.1,0.1l-0.1,0l0,0.1l0,0.2l0.1,0l0.1,0l0.1,0l0.1,0l-0.1,0l-0.3,0l0,0.3l0,0.1l0.1,0
	l0.1,0l0.1,0l0,0.1l0,0.2l0.1,0.1l0.1,0l0-0.1l0-0.1l0-0.1l0,0l0,0l0,0l0,0l0-0.1l0.1-0.2l0.1-0.3l0.2-0.4l0.2-0.2l0.1,0l0,0.3
	l-0.3,0.3l0,0.1l-0.1,0.1l0,0l0,0.2l0,0.1l0.1-0.2l0-0.1l0.1-0.1l0,0.1l0,0l0.1,0.2l-0.1,0.1l-0.1,0.1l0,0.2l0.2-0.2l0.1,0v0.1
	l0,0.1l0,0.1v0.1l0,0l-0.1,0.1l0,0.1l0.2-0.1l0.1-0.1l0.1-0.2l0-0.3l0.1,0.1l0.1,0.2l0,0.2l-0.1,0.1l-0.1,0.1l0,0.1l0.1,0.2l0.1,0.1
	l-0.1-0.3l0.1-0.2l0.1-0.1l0.1,0.1l0.1-0.1l0-0.3l0-0.2l0.1-0.1l0.2-0.6l0.2,0l0,0.2l-0.3,0.5l-0.1,0.2h0l0,0l0-0.1l0.1-0.1l0.1-0.2
	l0.1,0.1l0,0.2l0,0.1l0,0.1l0.1,0.1l0.1,0l0,0.2l0.1,0.1l0,0.1l0,0.1l-0.1,0.1l-0.1,0.1l0,0.1l0.3,0l0.1,0l0.1-0.1l0-0.1l0-0.1
	l0-0.1l0-0.1l-0.1-0.1l0-0.1l0.1-0.1l0.1,0l0.1,0l0,0.1l0,0.1l-0.1,0l0,0l0,0l0,0l0,0l0,0.1l0,0.1l0,0.1l0,0l0.2-0.4l0.1-0.1
	l0.1,0.1l-0.1,0l-0.1,0l0,0.1l0,0.1l0,0l0.1,0l0,0l-0.1,0.1l-0.1,0.1l0,0.1l0,0.1l0,0l0.1,0l0-0.1l0.1-0.1l0-0.1h0.1l0,0.3l0,0.1
	l-0.1,0.2l0,0.2l0,0.1l0.1-0.1l0.3-0.4l0-0.1l0-0.1l0-0.1l0-0.1l0.1,0l0.3-0.1h-0.2l0.2,0l0.1,0l0.1,0.1l0,0.2l0,0.1l0,0.1l0,0.1
	l0,0l-0.2,0l0,0l-0.2,0.1l0,0l0,0.1l0,0.1l0,0.1l0,0.1l-0.1,0.2l0,0.1l0,0.1l-0.2,0l-0.1,0l-0.2,0.2l0.1,0l0.1,0l0-0.1l0-0.1
	l0.1,0.1l0,0.1l0,0.1l-0.1,0.1l0.1,0l0.1,0l0,0l0-0.1l0.1,0.1l0,0.1l0,0.1l0,0.1l0.1-0.2l0-0.2l-0.1-0.4l0-0.1l0.1-0.1l0.1-0.1
	l0.1,0l0,0l0,0.1l0,0.1l-0.1,0.1l0.1,0l0.1-0.1l0,0l0,0l0.1-0.2l0-0.2l0.2-0.4l0-0.1l0-0.1l0.1-0.1l0.2,0l0.1,0.1l0,0.1l0.1,0.7
	l-0.1,0l0,0l-0.1,0.2l-0.2,0.1l-0.2,0.1l-0.2,0.2l0.1,0.1l0.1-0.1l0.1-0.1l0.1,0l0.1,0l-0.1,0.1l-0.1,0.1l0,0.1l0,0.1l-0.1,0
	l-0.1,0.1l-0.1,0.1l0.1,0.2l0-0.1l0-0.1l0-0.1l0.3,0.1l0.1,0.2l0,0.2l-0.1,0.4l0,0.1l0,0.1l0,0.2l0,0.1l0.1,0.1l0.1,0.1l0.1,0.1
	l0.3-0.1l0.1-0.1l0-0.1l0.1-0.1l0.3-0.1l0.1-0.1l0-0.1l-0.2-0.3l0-0.1l0.1-0.2l0.2-0.3l0.2-0.2l0.2,0l0-0.2l0.1-0.1l0.1,0l0.1,0.2
	h0.1l0-0.1l0.1-0.1l0.1,0l0,0l0.1,0l0.1,0.1l0,0.1l-0.2,0l0.2,0l0.1-0.1l0-0.2l0.1-0.2l0,0.3l0,0.1l0.1,0l0.1,0l0.1,0l0.1,0l0.1,0
	l0.1,0.2l0,0.1l-0.2,0l0.1,0.1l0.1,0l0.1,0l0.1,0.1v0.1l-0.1,0.1L234,57l-0.1,0.1l0,0.2h0.1l0.1-0.2l0.1,0l0.2,0.1l0-0.1l0-0.1
	l0.1-0.1l0-0.1l0-0.3l0.1-0.1l0.2,0v-0.1h-0.1v-0.1l0.1-0.1l0.2-0.1l0.1-0.1l0.1-0.1l0,0l0.1,0l0.1,0.1l0,0.1l0,0.3l0,0.1l0,0
	l-0.2,0.1l-0.1,0.1l0,0.1l0,0.1l-0.1,0.2l-0.1,0.1l0,0.1l0.1,0.2l-0.1,0l-0.1,0l-0.1,0l0.1,0.1l0.1,0.2l0.1,0.1l-0.1,0.1l0.1,0l0,0
	l0.1-0.2l0-0.1l0-0.1l0.1-0.1l0.1,0.1l0.1,0.1l0.1,0.1l0.1-0.1l-0.1,0l0-0.1l0-0.1l0.1-0.1h-0.1l0,0l0,0l0,0l0-0.1l0.1,0.1l0.1,0.1
	l0,0.2l0,0.2l0.1-0.2l0-0.1l0.1,0.1l0,0.1l-0.1,0.1l0,0.1l0,0.1l0.1,0.1l0,0.1l0,0l-0.1,0.2l0.1,0.1l0.1,0.1l0,0l-0.1,0.1l-0.1,0
	l-0.1,0.1l0,0l0,0l-0.1,0l0,0l0,0l0,0.1l0.3-0.2l0-0.1l-0.1-0.2l0.3,0.1l0.1,0l0.1,0l-0.1,0.3l-0.2,0.2l-0.5,0.3V59l0.1,0l0.3,0
	l0.1,0l0.1-0.1l0.1,0l0,0.1l0.1,0.1l0.2,0l0.1-0.2l0.1-0.3l0-0.3l0.4,0.2l-0.1,0.1l-0.1,0.1l-0.1,0.1l0,0.1l0,0.1l0,0.1l0,0.1
	l-0.1,0v0.1l0.1,0l0.1-0.1l0.1,0l0.1,0l0,0.1l0,0.1l0,0l0-0.1l0-0.1l0-0.1l0.1,0l0.1,0l0,0.1l0,0.1l-0.1,0.1l0,0.1l0.1-0.1l0.1-0.1
	l0.1-0.1l0-0.1l0.1,0l0,0l0,0.1l0,0.1l-0.1,0.1l-0.3,0.2l-0.1,0.1l0.2,0l0.3-0.1l0.1,0l0.1,0.1l0.1,0.1l0,0.1l0,0.1l0,0.1l0.1,0.1
	l0,0.1l0,0.1l0,0l0,0l0,0l-0.1,0.1l-0.2,0l-0.2,0l-0.1,0l-0.1,0.1l-0.1,0.1l-0.2,0.1l0,0h0l0,0l0,0l0.1-0.1l0.2,0l0.2,0l0.2,0l0.1,0
	l0.1,0l0,0.1l0,0.1l-0.3,0.2l-0.2,0.1l-0.2,0.3l-0.2,0.3l-0.3,0l-0.1,0.1l0.1,0l0.1,0l0.1,0l0,0l0.1,0.1l0,0.1l-0.2,0.1l-0.3,0.3
	l-0.2,0.1l-0.3,0l0.1,0.1l0,0.1l0,0.1l-0.3-0.1l-0.1,0l-0.1,0.1l-0.1,0.1l-0.1,0.1l-0.2-0.1l0.2,0.1l0.4-0.1l0.3-0.1l0.1,0.3h0.1
	l0.1-0.1l0.1-0.1l0.1,0l0,0.1l0,0.1l0,0.1l-0.1,0.1l0,0.1l-0.1,0.2l0,0l-0.1,0.1l-0.1,0.1l0,0.2l0,0.1l0.1,0.1l0-0.1l0-0.1l0-0.1
	l0.2-0.2l0.1,0l0,0.1l0,0.3l0,0.1l0.1,0.1l0-0.1l0-0.1l0-0.1l0.1-0.2l0-0.1l0-0.1l0-0.1l0-0.2l0-0.2l0.1-0.1l0.1-0.2l0.4-0.3
	l0.1-0.1l0.1,0l0.1,0l0.1-0.1l0,0l0-0.1l0,0l0.1,0l0,0l0.3-0.2l0.3,0l0.3,0.1l0.2,0.3l0.1,0.2l0,0.2l0,0.3l0,0l0.1,0.1l0,0.1l0,0.1
	l0,0.2l-0.1,0.4l-0.1,0.1l-0.1,0.1l-0.3,0l-0.2,0l-0.2,0l-0.1,0l-0.1-0.1l-0.1,0l0,0l0,0l0,0l0,0l0,0l0,0l0,0l-0.1,0.1l-0.1,0.1
	l-0.1,0.1l-0.1,0.1l0.4-0.2l0.1,0l0.1,0.2l-0.1,0.4l-0.1,0.3l-0.1,0.2l-0.1,0l-0.1,0l-0.1,0l-0.1,0.1l-0.1,0.2l-0.1,0l-0.1,0
	l-0.2,0.1l-0.2,0.1l0,0.1l0.1-0.1l0.4-0.2l0.2-0.1l0.1-0.1l0-0.1l0-0.1l0.1,0l0,0l0,0.1l-0.1,0.1l0,0l-0.4,0.9l-0.2,0.2l0.1,0.1
	l0,0.1l-0.1,0.2l-0.1,0.2l0,0.2l0,0.4l0,0.2l-0.3,0.5l0,0.1l0,0.2l0,0.1l0,0.2l0,0.1l0.1,0.1l0.2,0l0.2,0l0.1,0.1l0,0.2l-0.1,0.1
	l-0.2,0.1l-0.1,0.1l0,0.1l-0.1,0.1l-0.1,0.1l-0.1,0.1l0,0.1l0,0.2l0,0.1l-0.2,0.1l-0.2,0l-0.1,0.1l-0.1,0.1l0,0.2l0,0.2l0.1,0.1
	l0.1,0.1l-0.3,0.1l0.3,0l0.1-0.1l-0.1-0.4l0-0.2l0.1-0.1l0.1-0.1l0.4,0l0.2-0.1l0.1-0.1l0.1-0.2l0.1-0.3l0.1-0.1l0.2,0l0.4-0.6
	l0.4-0.2l0.1,0l0-0.1l0.3-0.3l0.1-0.1l0.1-0.2l0.1-0.2l0-0.2l0-0.4l0-0.2l0.1-0.1l0,0l0,0l0,0l-0.1,0l0.3-0.9l0.1-0.3l0,0.1l0,0.1
	l0,0.1l0,0.1h0.1l-0.1-0.9l0.1-0.1l0-0.1l0.1,0l0.2,0l0.1,0.1l0.1,0.1l0.1,0.3l0-0.2l0-0.1l-0.1-0.1l0-0.1l0-0.1l0-0.1l0.1-0.1
	l0.1,0l0.5,0l0.9-0.5l0.2,0l0.1-0.1l0.2,0l0.2,0.1l0,0.2l-0.1,0l-0.2,0l-0.2,0l0,0.1l0.2,0l0,0l0,0.1l0,0.2l0,0.1l0-0.1l0-0.1l0-0.1
	h0.1l0.1,0.2l0,0.2l0,0.2l-0.1,0.2l-0.1,0l-0.1,0.1l-0.1,0.2l0,0l-0.1,0l-0.1,0l-0.1,0.1l0.1,0.1l0,0.2l-0.2,0.4l-0.1,0.1l-0.1,0.1
	l-0.1,0l-0.1,0l-0.1,0l-0.1-0.1l0,0.1l0,0l0.1,0l-0.1,0.1l-0.2,0.1l-0.1,0.1l-0.2,0.2l0,0l-0.2,0.1l-0.2,0.2l-0.1,0.2l0.1,0.1l0-0.2
	l0-0.2l0.1-0.1l0.1,0.1l-0.1,0.1l0,0v0.1l0.1,0.1l0.1-0.2l0,0l0.1,0l0,0l0,0l0-0.1l0-0.1l0-0.1l0-0.1l0.1,0.1l0.2,0.2l0-0.1l0.1-0.1
	l0.3-0.1l0,0.2l0.1,0.2l-0.1,0.1l-0.1,0l-0.1,0.1l-0.1,0l0,0.1l0,0h0l0.1,0l0,0l0,0l0,0l0,0.1l0.3-0.3l0.1-0.1l0,0l0,0l0,0l0,0
	l0.1-0.1l0.1-0.1l0-0.1l0-0.1l0.1-0.1l0.1-0.1l0.1,0l-0.1,0.1v0.1l0.1,0l0,0l0-0.1l0.1,0.1l0,0.1l0,0l0,0l0,0.1l0-0.1l0,0l0,0l0,0.1
	l0,0.1l-0.1,0.1l0.1-0.1l0-0.2l0-0.4l0-0.1l0.1-0.1l0.1-0.2l0.1-0.2l0.1-0.1l0.2-0.2l0,0l0,0l0.2,0.2v-0.1l-0.1-0.1l0-0.1l0.1-0.2
	l0.1-0.2l0.1-0.1l0,0l0.2,0.4l0.1,0.3l0-0.1l0-0.1l0-0.1l0-0.1l0-0.1l0.2-0.1l0.1,0l0.1,0l0,0l0.1,0h0.1l0,0l0.1,0l0.2-0.1l0.1-0.1
	l0.1,0l0.1,0l0.1-0.1l0-0.3l0.1-0.1l0.1,0.1l0,0.2l0,0.2l-0.1,0.1v0.1h0.1v-0.1h0.1v0.1h0.1l0-0.1l0,0l0-0.1l0.1,0l0.1,0l0.1,0
	l-0.2-0.1l0-0.2l0.1-0.2l0.2-0.1l-0.1,0.1l0,0.1l-0.1,0.2l0.1-0.1l0.1,0l0.1,0.1l0,0.2l0.2-0.1l0.3,0.1l0.1,0l-0.1-0.1l-0.1,0l0-0.1
	l0-0.1l0.1-0.1v0.2l0.1-0.1l0-0.1l0-0.1l-0.1-0.1l0.1-0.2l0.1,0.1l0,0.2l0,0.2l0.1,0l0.1,0.3l0.1,0.1l-0.1,0.1l0.1,0l0.1-0.1l0-0.1
	l0-0.1l0.1,0.1l0,0.1l0.1-0.1l0-0.1l0-0.1l-0.1-0.2l0.1,0l0.3,0.1v-0.1l-0.1,0l-0.1-0.1l-0.1-0.1l0-0.1h0.1l0,0.1l0.1,0l0.1,0l0.1,0
	l-0.1-0.1l-0.4-0.2l-0.1-0.2l0-0.1l0.1-0.1l0.1-0.1v-0.1l0.1,0l0.1,0l0.1,0l0.2,0l0.2,0l0.2,0l0.2,0l0.2,0l0.5,0.2l0.4,0.1l0.7,0.3
	l0.8,0.3l0.6,0.2l0.2,0.1l0.3,0.1l0.2,0.1l0.3,0.2l0,0l0.1,0l0.3,0.1l0.1,0l0.5,0l0.1,0l0.1,0.1l0,0.1l0,0l0.1,0.1l0.3,0.4l0.4,0.2
	l0.1,0l0.1,0l0.1,0h0.1l0.1,0l0.2-0.1l0,0.1l0,0.1l-0.1,0l-0.1-0.1l0.1,0.2l0.1,0.1l0.2,0.1l0.2,0.1l0.1,0l0.2-0.1l0.1-0.1l0,0.1
	l0,0.1l0.2,0.1l0.9,0l0.1,0.1l0,0.1l0,0.2l-0.1,0.1l0.2-0.1l0,0l0,0.2h0l0-0.1l0.1-0.1l0.1-0.1l0.1,0l0.1,0.1l0.1,0l0.1,0l0.1-0.1
	l0.5,0l0,0l0,0h0l0,0l0,0.1l0,0.1l0.1-0.1l0.2,0l0.1,0l0.1,0l0-0.1l0.1,0l0.3,0.2l0.1,0l0.1,0l0-0.1l0-0.3l0-0.1l-0.1,0h0l-0.1-0.1
	l-0.3-0.2l-0.1-0.1l0-0.1l0.1,0l0.8,0l0.5,0l0.1,0l-0.2,0.3l0,0l0.1,0l0.1,0l0.1-0.1l0.2,0.3l0.7,0.4l0.2,0.2l0.1,0.1l0,0l-0.1-0.1
	l0,0l0,0l0,0.1l-0.1,0l-0.1,0v0.1l0.1,0.1l0.1,0l0.1,0l0.1-0.1l0.1,0.1l0.1,0.1l0.2,0l0.7,0l0.2,0l0.2-0.1l0.1,0.1l0.1,0.1l0,0.1
	l-0.1,0.1l0,0l0.1,0l0,0l0,0l0,0l0,0l0.1,0l0,0l0.1,0l-0.1-0.2l0.1,0l0.6,0.1l0.1,0l0.1,0.1l0,0.1l0,0.1l-0.1,0l0,0l0.1,0.1l0,0l0,0
	l0,0l0,0.1l0,0.1h0v-0.1l0.2,0.1l0.1,0.2l0.1,0.1l0,0l0,0l0-0.2l0-0.1l-0.1-0.2l-0.1-0.2l-0.1-0.1l0-0.1l-0.1,0l-0.1,0l0,0l-0.1,0
	l0.1-0.1l0.2-0.1l0.1,0h0.5l0.2,0l0.2,0.1l0.2,0.1l0.2,0.2h0.1l0-0.1l0-0.1l-0.1-0.2l0.1,0.1h0.1l1.2-0.1l0.1,0l0.2,0l0.1,0l0.1,0
	l0-0.1l0.1,0l0.2,0l0.1,0l0,0.1h0.1l0.1-0.1l0.4-0.2l0.1,0l1.4-0.1l0.4-0.2l0.1,0l0,0l0.1-0.1l0.1,0l0,0l0,0l0,0l0.6,0.1l1,0
	l0.7,0.1l0.1,0l0.2,0.2l0.1,0l0.1,0l0-0.1l0-0.1l0.1,0l0.1,0l0.1,0l0.1,0.1l0.1,0l0.4,0l0.1,0l0.7,0.4l0.2,0.1l0.1,0l0.4,0.4
	l0.1,0.1l0.1,0l0.1,0.1l0.2,0.2l0.1,0.2l0,0.1l0.1,0l0.1,0l0.1,0l0.1,0l-0.1-0.1l0.1-0.1l0.1,0l0.3,0.2l0,0l0.2,0l0,0l0,0.1l0,0
	l0.3,0.3l0.6,0.3l0.1,0.1l0.7,0.3l0.1,0l0.1,0l0.1,0l0.1,0l0,0l0,0.1l0.1,0.1l0.2,0.1l0.3,0.2l0.1,0l0,0l0,0l0,0l0,0l0,0l0.5,0.4
	l0.2,0.2l0.1,0l0.1,0l0.2,0l0.1,0l0.1,0.1l0.1,0.1l0.1,0.1l0.2,0l0.3,0l0.1,0l0.1,0.1l0.2,0.2l0.1,0.2l0.2,0.5l0.2,0l0.1,0.1
	l0.1,0.1l0.1,0.1l0.4,0.1l0.1,0.2l0.2,0.2l0.3,0.2l0.2,0.1l0.1,0.1l0.2,0.3l0.1,0.1l0.5,0.1l0.6,0.2l0.3,0l0.1-0.2l0.1,0.1l0.1,0.1
	l0.2,0.3l0.2,0.3l0.1,0.1l0.1,0.3l0.1,0.1l0.1,0.1l0.5,0.4l0.1,0.1l0.4,0.2l0.1,0.1l0.5,0.8l0.7,0.9l0.6,0.7l0.8,0.6l0.1,0.1
	l0.5,0.5l0.2,0.1l0.2,0.1l0.2,0l0.2,0l0.5,1l0.2,0.3l0.3,0.3l0.3,0.2l0.3,0.2l0.2,0.1l0.1,0l0.1-0.1l0.2,0.1l0.5,0.3l0.8,0.3
	l0.3,0.2l0.1,0.2l0.3,0.7l0,0.1l0.4,0.6l0.4,0.2l0.2-0.1l0.1,0l0.1,0l0.3,0.1l0.1,0l0.2-0.1l0.2,0l0.7,0.1l0.1,0.1l0.3,0.3l0,0.1
	l0.1,0l0.1,0.1l0.1,0.1l0,0.1l0.1,0.2l0.3,0.1l0.3,0.1l0.2,0l0,0.1l0.1,0l0.3,0l0.3,0.1l0.1,0.1l0.2,0.2l0.1,0l0.1,0l0-0.1l-0.1,0
	l-0.3-0.1l-0.1-0.1l0.3,0.1l1-0.1l0.7,0.1l0.3,0.1l0.2,0l0.2,0v-0.1h-0.3v-0.1l1.3,0.1l0.1,0l0.3-0.2l0.3-0.1l0.2-0.1l0.2,0l0.6,0.1
	l1.2,0.2l0.9,0.2l0.6,0.1l0.3,0.1l0.3,0.1l0.1,0.1l0.3,0.3l0.1,0.1l0.1,0.1l0.1,0.1l0.1,0.2l0.2,0.3l0.1,0.2l0.1,0.2l0,0.2l0,0.1
	l0.2,0.2l0.5,0.8l0.1,0.3l0.1,0.2l0.1,0.2l0.1,0.1l-0.1,0.1l0,0.1l0.2,0.6l0,0.1l0.1,0.1l0,0.6l0.1,0.1l0.1,0.1l0.1,0.1l0,0.2l0,0.1
	l0,0.1l0,0.1l0.1,0.2l0,0l0,0.1l0,0.3l0,0.1l0.1,0.1l0,0.1l0,0l0.1,0.1l0,0.1l0,0.1l0,0.3l0,0.2l0,0.1l0.1,0l0,0l0.1,1l-0.2-0.2
	l0,0.2l-0.2,0.2l0,0.1l0.1,0.1l0.1-0.1l0.1-0.1l0.1-0.1l0.1,0l0.1,0.2l0.1,0l0.2,0l0.1,0l0,0.1l0,0.2l0.1,0.3l0,0.2l0,0.1l0,0.1
	l0.1,0.1l0.1,0.1l0.1,0.1l0.1,0.1l0.1,0.1l0.1,0.4l0.1,0.6l0,0.3l0,0.4l-0.1,0.3l0.1,0.2l0,0.1l0,0.2l0,0.1l0.1,0.1l0,0.1l0,0.2
	l0,0.2l0,0.2l0.1,0.2v-0.1l0.1,0.7l0.1,0.2l0.1,0.1l0.2,0.1l0,0.1v0.4l0,0.1l-0.1,0.1l-0.1,0l0,0.1l0,0.1l0,0.2l0,0.1l-0.1,0.3l0,0
	l-0.1,0.1l0,0l0,0l-0.1-0.1l0.1,0.1l0,0.1l0,0.1l0,0.1l0.1-0.1l0.2-0.2l0.1-0.2l0.1-0.2l0-0.2l0.1-0.3l0-0.2l0.1,0.1l0,0.2l-0.1,0.3
	v0.5l0,0.3l0,0.1l0.1,0.1l0.1,0.1l0,0L316.3,103.8z M194.2,286.8c0-4.9-4-8.9-8.9-8.9c-4.9,0-8.9,4-8.9,8.9c0,8.9,8.9,19.5,8.9,19.5
	S194.2,295.6,194.2,286.8z M241.3,242.2L241.3,242.2l-0.1-0.2l0,0l0-0.1l0-0.1l-0.1,0l0,0l0,0.1l0,0.1l-0.1,0l-0.1,0l-0.1-0.1
	l-0.1-0.1l-0.1,0.1l-0.2-0.1l0,0l0,0l0,0l0.1,0v-0.1l-0.1-0.1l-0.1,0l-0.1,0l-0.1,0l0,0l0,0l0,0l0,0l0,0.1l0,0l-0.2,0.2l-0.1,0.1
	l-0.1-0.1l-0.2,0.3l-0.3,0.2l0,0l0,0l0,0.1l0,0l0.1,0l0.1,0l0,0.1l0,0.1l0,0.1l0.1,0.1l0,0l0,0l0,0l0,0l0-0.1l0.1-0.1l0.1-0.1
	l0.1-0.1l0.1,0l0.1,0.1l0.1,0.1l0.1,0.1l0.1,0l0.3-0.1l0.1,0l0.1-0.1l0.1-0.1l0.1,0.1l0,0l0,0l0.1,0l0.1,0l0,0l0,0l0,0l0,0l0,0l0,0
	l0.1,0l0-0.1L241.3,242.2z M316,108.2L316,108.2l-0.1,0l0,0.1l0,0.1l0,0.1l-0.1,0.1l-0.1,0.1l0,0.1l0,0.2l0,0.1l0.1,0l0.1,0l0.1,0
	l0.1,0l0-0.1l0-0.1l0.1-0.1l0-0.1l0-0.1l0-0.1l0-0.1L316,108.2L316,108.2z M232.3,249.1L232.3,249.1L232.3,249.1l-0.1-0.1l-0.3,0.1
	l-0.1-0.3l0-0.3l0.2,0l0.1-0.7l-0.1-0.1l-0.4-0.3l-0.1,0l-0.1,0l-0.1,0l-0.1,0l0,0.1l0,0.1l0,0.1l0,0.1l-0.1,0.3l-0.1,0.2l-0.5,0.5
	l-0.1,0.1l-0.1,0.1l0,0.1l0,0.2l0.2,0.2l0.3,0l0.3-0.1l0.3-0.1l0,0.1l0.1-0.1l0.1,0.1l0.1,0.2l0.1,0.1l0,0h0l0,0l0,0l0.1-0.1l0,0
	l0.1-0.1l0,0l0,0l0-0.1l0-0.1l0-0.1L232.3,249.1z M238,67.3L238,67.3l0.2-0.4l0-0.5l-0.4,0.2l-0.2,0.1l-0.2,0.5l-0.1,0.2l0,0.1
	l0,0.1l0.1,0.3l0,0.1l0,0.1l-0.1,0.2l0,0.2l0,0.1l-0.1,0.1l-0.1,0.2l0,0l0,0.1l0,0l0,0l0,0.1l0,0.1h0.1l0,0l0,0l0-0.1l0-0.1l0.2-0.3
	l0.2-0.3l0.2-0.1l0.1-0.1l-0.1-0.3l0-0.1l0.1-0.1l0-0.2l0.1-0.7l-0.2,0.2l-0.1,0.1l0-0.1L238,67.3L238,67.3z M179.8,53.3l-0.3,0.2
	l-0.2,0l-0.1,0l0,0l0,0l-0.1,0.2l0,0l-0.1,0l-0.5,0.4l-0.1,0.1l0,0.1l0,0.3l0,0.2l0,0.1l-0.3,0.4l-0.1,0.3L178,56l0.1,0.1l0.1,0.1
	l0.2,0l0.3-0.2l0.4-0.1l0.2-0.1l0.4-0.2l0.3-0.3l0,0l0.1,0l0,0l0,0l0-0.1l0,0l0.1,0l0.2-0.1l0.1-0.1l0.1-0.1l0.1-0.1l0.1,0l0.3-0.2
	l1-0.8l0.2-0.3l0.6-1.2l0.2-0.1l0.2,0.2l0.1-0.1l0-0.1l0.2-0.5l0.2-1l0.1-0.3l0.5-1l0-0.2l0-0.2l-0.1-0.1l-0.2-0.1l-0.1-0.1
	l-0.2-0.4l-0.1-0.2l-0.1-0.1l-0.4-0.1l-0.1,0l0,0.1l0,0l0,0.1l0,0.1l0,0.1l0.2,0.3l-0.1,0l-0.1,0l-0.1,0l-0.1-0.1v0.2h-0.1v-0.2
	l-0.1,0.1l0,0.1l0,0.1l0,0.1l-0.1,0.1l-0.2,0.2l-0.1,0.1h-0.1l0-0.1l0.1-0.1l0-0.1l0-0.1l0,0l0,0l0,0l0-0.1l0-0.2l0.1-0.2l0.1-0.1
	h-0.1l-0.1,0l-0.4,0.2l-0.1,0.1l-0.1,0.1l-0.4,0.3l-0.2,0.2l-0.2,0.3l-0.2,0.3l-0.3,0.8l-0.4,0.5l-0.1,0.3l0,1.1l0.2,0.3l-0.1,0.3
	L179.8,53.3z M184.6,45.1L184.6,45.1L184.6,45.1L184.6,45.1L184.6,45.1l-0.3-0.1l0,0l-0.1,0.2l0,0l-0.1,0l-0.2,0l0,0l-0.1,0.2
	l-0.2,0.2L183,47l0,0.1l-0.1,0.1l0,0l-0.1,0.1l-0.1,0.1l-0.1,0.1l-0.1,0.1l0,0.2l0.1,0.1l0.1,0l0.3-0.2l0.5-0.3l0.6-0.5l0.3-0.3
	l0.1-0.3l0-0.3l0-0.2l0.1-0.1l0-0.1l0-0.1l0-0.2L184.6,45.1z M205.2,271.8l0.2-0.2l0-0.1l0-0.2l0.2-0.3l0.1-0.2l0.1-0.1l0-0.1l0-0.1
	l0-0.1l-0.2-0.3l-0.1-0.1l-0.1,0l-0.1,0.1l0.1,0.2l-0.2,0.1l-0.2,0.1l-0.2,0.1l-0.1,0.1l0,0.1l-0.1,0.1l-0.1,0l-0.1,0l-0.1,0.1
	l-0.1,0.2l0,0l0,0l0.3,0.3l0.1,0.1l0.1,0.3l0.1,0.2l0.2,0l0,0.1l0,0l0,0l0-0.2L205.2,271.8L205.2,271.8z M207.8,262.4l0-0.2l-0.1,0
	l-0.2,0.2l-0.2,0.2l-0.1,0.2l0,0.2l0.1,0.2l0,0.1l0,0.1l0.1,0.2l0.1,0l0.2-0.1l0.1-0.1l-0.1-0.2l0-0.2l0.1-0.3L207.8,262.4z
	 M190.1,26.4l-0.1,0l-0.1,0.1l-0.1,0l-0.1,0l-0.1,0.1l0,0.2l-0.1,0.2l0,0.3l0.1,0.1l0.1,0.1l0,0.1l0.2,0.2l0.1,0.5l0.1,0.1l0.2,0.1
	l0.2-0.1l0.1-0.1l0.3-0.3l0.1-0.2l0.1-0.1l0-0.2l-0.1-0.2l-0.1-0.1l-0.1-0.2l0-0.2l-0.1-0.1l-0.2-0.2l-0.1-0.1l-0.1,0l-0.1,0
	L190.1,26.4z M189.3,26L189.3,26l0.1,0.1l0,0.2l0.1,0l0.1,0l0.1,0l0.1,0l0.1-0.1l0.1,0l0.1,0l0.1,0l0.1-0.1l0-0.1l-0.1-0.2l-0.1-0.1
	l-0.1-0.1l-0.2,0l-0.2,0l-0.2,0.2L189.3,26L189.3,26L189.3,26z M194,41.3l-0.4,0l-0.3,0.1l-0.2,0.3l-0.4,0.3l-0.2,0l-0.6,0l-0.3,0
	l-0.2,0l-0.2,0l-0.2,0.1l-0.5,0l-0.1,0.1l0,0.1l0,0.5l0,0.2l0.1,0.2l0.1-0.2l0.1-0.1l0.1-0.1l0,0.1l-0.1,0.3l0,0.2l0.1,0.1l0.2,0.2
	l0.2,0.1l0.2,0l0.2-0.1l0.2,0l0,0l0.1,0l0.1,0l0.1,0.1l0.1,0l0.4-0.1l0.2,0.1l0.2,0.1l0.2,0.2l0.2,0.2l0.1,0.2l0.1,0.1l0.1,0l0.1,0
	l0.1,0l0.1,0l0.2,0l0.5-0.2l0.3-0.2l0.2-0.3l0.2-0.4l0.2-0.3l0.6-0.6l0.4-0.2l0.3-0.3l0.6-0.3l0-0.4l-0.2-0.3l-0.7,0l-0.8,0.3
	l-0.6,0.3l-0.3,0.2l-0.5,0.1L194,41.3z M196.3,43.7l-0.5,0.2l-0.5,0.4l-0.2,0.2l-0.1,0.3l0.9,0.4l0.2-0.1l1.6,0l0.2,0l0.2-0.1
	l0.1-0.1l0.1-0.1l0.3-0.2l0-0.1l0,0l0.1,0l0,0l0-0.1l0-0.1l0-0.1l0-0.1l0-0.1l0,0l-0.1,0l-0.1-0.1l0-0.1l0-0.1l0-0.1l-0.1-0.1
	l-0.1-0.1l-0.3-0.2l-0.1,0l-0.1,0l-0.1,0l-0.1,0.1l0,0l-0.1-0.1l0,0l-0.2,0.1l-0.8,0.1L196.3,43.7z M185.3,49.6l-0.1-0.1l-0.1,0l0,0
	l0,0.1l0,0l0,0l-0.2,0.2l-0.1,0.2l0,0.2l0,0.2l0.1,0.2h0.1l0.1-0.1l0.2-0.1l0.2-0.1l0.2,0l0.2-0.1l0.3-0.3l0.2-0.1l0.3,0l0.2-0.1
	l0.2-0.1l0.1-0.3l0-0.1l-0.1-0.3l-0.1-0.3l0-0.1l0-0.1l0,0l0,0l-0.3,0.5h-0.1l0-0.1l0.1-0.3l-0.4,0.1L186,49l-0.2,0.2l-0.3,0.3
	L185.3,49.6L185.3,49.6z M206.7,281.6l-0.1-0.2l-0.1-0.1l-0.1,0.1l-0.1,0.1l-0.4,0.1l-0.1,0l0,0.2l-0.1,0.1l-0.1,0.1l-0.1,0.1l0,0.1
	l0.1,0.1l0,0.1l0,0.1l0,0l0,0.1l0,0.1l0.1,0l0.1,0l0,0l0,0.1l0,0.1l-0.1,0l-0.1,0l-0.2,0.1l0.1,0.1l0.1,0.2l0,0.2l-0.2,0.2l-0.1,0.2
	l0.1,0.1l-0.1,0.2l-0.1,0.3l0,0.7l0,0l0,0l0.1,0l0.1,0l0.1-0.1l0.1-0.2l0.1,0l0.2,0l0.1,0l0-0.1l-0.1-0.3l0-0.2l0.4-0.6l0.1-0.1
	l0.1-0.1l0.1-0.2l0.1-0.2l0-0.1l0-0.2l0-0.1l0-0.1l0-0.1l0,0l0.1-0.2l0.1-0.2l0.1-0.2l0-0.2L206.7,281.6z M214.1,256.3L214.1,256.3
	l-0.3,0l-0.1,0l-0.1,0.1l-0.2,0.2l-0.4,0.2l-0.5,0.5l-0.4,0.2l-0.9,0.8l-0.3,0.4l-0.1,0.1l0,0.2l-0.1,0.3l0,0.2l0.1,0l0.1-0.1
	l0.1-0.4l0.2-0.3l0.1-0.2l0.3-0.2l1.9-1.7l0.2-0.1l0.3-0.1l0.4-0.3v-0.1l-0.1,0L214.1,256.3z M223.6,249.7l-0.1-0.2l-0.1-0.2l0,0
	l0,0l0,0l-0.1,0h-0.2l-0.3-0.1l-0.1,0l0,0.1l0,0.1l0,0l0,0.1l-0.1,0l0,0l-0.1,0.1l0.1,0.2l0,0l0.1,0l0.1,0l0.1,0l0.1-0.1l0.1,0
	l0.4,0.2L223.6,249.7z"/>
</svg>
