<?xml version="1.0" encoding="utf-8"?>
<!-- Generator: Adobe Illustrator 19.0.1, SVG Export Plug-In . SVG Version: 6.00 Build 0)  -->
<!DOCTYPE svg PUBLIC "-//W3C//DTD SVG 1.1//EN" "http://www.w3.org/Graphics/SVG/1.1/DTD/svg11.dtd">
<svg version="1.1" id="chart" xmlns="http://www.w3.org/2000/svg" xmlns:xlink="http://www.w3.org/1999/xlink" x="0px" y="0px"
	 viewBox="0 0 256.8 256.8" enable-background="new 0 0 256.8 256.8" xml:space="preserve">
<circle id="base_2_" fill="none" stroke="#E4EAEC" stroke-width="30" stroke-miterlimit="10" cx="128.4" cy="128.4" r="113.4"/>
<path id="slice_2_" fill="none" stroke="#9AC6E2" stroke-width="30" stroke-miterlimit="10" d="M128.4,15
	c62.6,0,113.4,50.8,113.4,113.4S191,241.8,128.4,241.8c-38.8,0-73-19.5-93.5-49.2"/>
<path id="sfdc" fill-rule="evenodd" clip-rule="evenodd" fill="#FFFFFF" d="M198.7,123.1c0-16.9-13.6-30.6-30.3-30.6
	c-4.4,0-8.5,0.9-12.3,2.6c-4.3-7.7-12.4-12.9-21.7-12.9c-7,0-13.3,2.9-17.8,7.7c-5-6.5-12.9-10.7-21.7-10.7
	c-15.1,0-27.3,12.2-27.3,27.3c0,3.9,0.8,7.5,2.2,10.8c-7,4.1-11.7,11.8-11.7,20.5c0,13.1,10.5,23.7,23.5,23.7c1.7,0,3.3-0.2,4.8-0.5
	c3.6,9.7,12.8,16.5,23.7,16.5c10.5,0,19.4-6.4,23.3-15.4c2.9,1.4,6.2,2.2,9.7,2.2c8.3,0,15.5-4.6,19.3-11.4c1.9,0.4,3.9,0.6,6,0.6
	C185.1,153.7,198.7,140,198.7,123.1z M88.2,128c0,2.5-1.8,4-4.7,4c-1.4,0-2.8-0.2-4.2-1c-0.3-0.2-0.5-0.3-0.8-0.5
	c0,0-0.1-0.1-0.1-0.3l0.6-1.6c0.1-0.3,0.3-0.2,0.4-0.1c0.2,0.1,0.3,0.2,0.5,0.3c1.7,1.1,3.2,1.1,3.7,1.1c1.3,0,2-0.7,2-1.6v0
	c0-1-1.2-1.3-2.6-1.8l-0.3-0.1c-1.9-0.5-3.9-1.3-3.9-3.7v0c0-2.3,1.8-3.9,4.5-3.9l0.3,0c1.5,0,3,0.5,4.1,1.1
	c0.1,0.1,0.2,0.2,0.1,0.3c-0.1,0.1-0.5,1.4-0.6,1.6c-0.1,0.3-0.4,0.1-0.4,0.1c-0.9-0.5-2.4-0.9-3.7-0.9c-1.1,0-1.8,0.6-1.8,1.4v0
	c0,0.9,1.2,1.3,2.7,1.8l0.2,0.1C86.2,124.8,88.2,125.7,88.2,128L88.2,128z M100,131.2c0,0-0.3,0.1-0.6,0.1c-0.3,0.1-1.3,0.3-2.1,0.4
	c-0.8,0.1-1.6,0.2-2.5,0.2c-0.8,0-1.5-0.1-2.2-0.2c-0.6-0.1-1.2-0.4-1.7-0.7c-0.5-0.3-0.8-0.8-1.1-1.3c-0.3-0.5-0.4-1.1-0.4-1.9
	c0-0.7,0.1-1.3,0.4-1.9c0.3-0.5,0.7-1,1.2-1.3c0.5-0.4,1.1-0.6,1.7-0.8c0.6-0.2,1.3-0.3,2-0.3c0.5,0,0.9,0,1.3,0
	c0,0,0.6,0.1,1.3,0.2v-0.3c0-1.1-0.2-1.6-0.7-1.9c-0.5-0.3-1.1-0.5-2-0.5c0,0-2,0-3.6,0.8c-0.1,0-0.1,0.1-0.1,0.1S91,122,91,121.8
	l-0.6-1.5c-0.1-0.2,0.1-0.3,0.1-0.3c0.7-0.6,2.5-0.9,2.5-0.9c0.6-0.1,1.6-0.2,2.2-0.2c1.6,0,2.9,0.4,3.7,1.1c0.9,0.8,1.3,2,1.3,3.6
	l0,7.5C100.2,131,100.2,131.2,100,131.2z M105.5,131.5c0,0.1-0.1,0.2-0.2,0.2h-2.2c-0.1,0-0.2-0.1-0.2-0.2v-17.4
	c0-0.1,0.1-0.2,0.2-0.2h2.2c0.1,0,0.2,0.1,0.2,0.2V131.5z M119,125.9c0,0.2-0.2,0.2-0.2,0.2l-8.1,0c0,1.2,0.3,2.1,0.9,2.7
	c0.6,0.6,1.5,1,2.8,1c1.9,0,2.8-0.4,3.3-0.6c0,0,0.2-0.1,0.3,0.1l0.5,1.5c0.1,0.3,0,0.3-0.1,0.4c-0.5,0.3-1.8,0.8-4.1,0.8
	c-1.1,0-2.1-0.2-3-0.5c-0.8-0.3-1.5-0.8-2.1-1.4c-0.5-0.6-0.9-1.3-1.2-2.1c-0.2-0.8-0.4-1.7-0.4-2.6c0-0.9,0.1-1.8,0.4-2.6
	c0.2-0.8,0.6-1.5,1.1-2.1c0.5-0.6,1.1-1.1,1.9-1.4c0.8-0.4,1.7-0.5,2.7-0.5c0.9,0,1.7,0.2,2.3,0.5c0.5,0.2,1,0.6,1.5,1.2
	c0.3,0.4,0.8,1.1,1,1.9C119.3,124.2,119,125.8,119,125.9z M121.5,131c-0.3-0.2-0.5-0.3-0.8-0.5c0,0-0.1-0.1-0.1-0.3l0.6-1.6
	c0.1-0.3,0.3-0.2,0.4-0.1c0.2,0.1,0.3,0.2,0.5,0.3c1.7,1.1,3.2,1.1,3.7,1.1c1.3,0,2-0.7,2-1.6v0c0-1-1.2-1.3-2.6-1.8l-0.3-0.1
	c-1.9-0.5-3.9-1.3-3.9-3.7v0c0-2.3,1.8-3.9,4.5-3.9l0.3,0c1.6,0,3,0.5,4.1,1.1c0.1,0.1,0.2,0.2,0.1,0.3c-0.1,0.1-0.5,1.4-0.6,1.6
	c-0.1,0.3-0.4,0.1-0.4,0.1c-0.9-0.5-2.4-0.9-3.7-0.9c-1.1,0-1.8,0.6-1.8,1.4v0c0,0.9,1.2,1.3,2.7,1.8l0.2,0.1
	c1.9,0.6,3.9,1.4,3.9,3.7v0c0,2.5-1.8,4-4.7,4C124.3,132,123,131.8,121.5,131z M140,121c0,0.2-0.3,0.2-0.3,0.2H137l-1.8,10.4
	c-0.2,1.1-0.4,2-0.7,2.7c-0.3,0.8-0.6,1.3-1.1,1.8c-0.4,0.5-0.9,0.8-1.5,1c-0.6,0.2-1.3,0.3-2,0.3c-0.4,0-0.7,0-1.2-0.1
	c-0.3-0.1-0.5-0.1-0.7-0.2c-0.1,0-0.2-0.2-0.1-0.3c0.1-0.2,0.5-1.5,0.6-1.7c0.1-0.2,0.3-0.1,0.3-0.1c0.1,0.1,0.2,0.1,0.4,0.1
	c0.2,0,0.5,0.1,0.7,0.1c0.4,0,0.7,0,1-0.1c0.3-0.1,0.5-0.3,0.7-0.6c0.2-0.3,0.4-0.7,0.6-1.2c0.2-0.5,0.3-1.2,0.5-2l1.8-10.2h-1.8
	c-0.2,0-0.3-0.1-0.3-0.3l0.3-1.7c0-0.2,0.3-0.2,0.3-0.2h1.8l0.1-0.6c0.3-1.6,0.8-2.9,1.6-3.7c0.8-0.8,2-1.2,3.5-1.2
	c0.4,0,0.8,0,1.1,0.1c0.3,0.1,0.5,0.1,0.8,0.2c0.1,0,0.2,0.1,0.1,0.3l-0.6,1.7c-0.1,0.1-0.1,0.2-0.4,0.1c-0.1,0-0.2,0-0.4-0.1
	c-0.2,0-0.4-0.1-0.7-0.1c-0.3,0-0.6,0-0.9,0.1c-0.3,0.1-0.5,0.2-0.7,0.4c-0.2,0.2-0.4,0.5-0.6,0.9c-0.3,0.9-0.4,1.8-0.4,1.8h2.6
	c0.2,0,0.3,0.1,0.3,0.3L140,121z M151.9,128c-0.2,0.8-0.6,1.5-1.1,2.1c-0.5,0.6-1.1,1.1-1.8,1.4c-0.7,0.3-1.6,0.5-2.6,0.5
	c-1,0-1.8-0.2-2.6-0.5c-0.7-0.3-1.4-0.8-1.8-1.4c-0.5-0.6-0.9-1.3-1.1-2.1c-0.2-0.8-0.4-1.7-0.4-2.6s0.1-1.8,0.4-2.6
	c0.2-0.8,0.6-1.5,1.1-2.1c0.5-0.6,1.1-1.1,1.8-1.4c0.7-0.3,1.6-0.5,2.6-0.5c1,0,1.8,0.2,2.6,0.5c0.7,0.3,1.4,0.8,1.8,1.4
	c0.5,0.6,0.9,1.3,1.1,2.1c0.2,0.8,0.4,1.7,0.4,2.6S152.2,127.2,151.9,128z M162,119.5c-0.1,0.2-0.5,1.3-0.6,1.7
	c-0.1,0.1-0.1,0.2-0.3,0.2c0,0-0.5-0.1-0.9-0.1c-0.3,0-0.7,0-1.1,0.2c-0.4,0.1-0.7,0.3-1,0.6c-0.3,0.3-0.5,0.7-0.7,1.2
	c-0.2,0.5-0.3,1.3-0.3,2.1v6.1c0,0.1-0.1,0.2-0.2,0.2h-2.1c-0.1,0-0.2-0.1-0.2-0.2v-12.2c0-0.1,0.1-0.2,0.2-0.2h2.1
	c0.1,0,0.2,0.1,0.2,0.2l0,1c0.3-0.4,0.9-0.8,1.4-1c0.5-0.2,1.1-0.4,2.1-0.3c0.5,0,1.2,0.2,1.4,0.2
	C161.9,119.2,162.1,119.3,162,119.5z M172.2,131.4c-0.9,0.4-2.2,0.6-3.4,0.6c-2.1,0-3.7-0.6-4.8-1.8c-1.1-1.2-1.6-2.8-1.6-4.8
	c0-0.9,0.1-1.8,0.4-2.6c0.3-0.8,0.7-1.5,1.2-2.1c0.5-0.6,1.2-1.1,1.9-1.4c0.8-0.3,1.7-0.5,2.7-0.5c0.7,0,1.3,0,1.8,0.1
	c0.6,0.1,1.3,0.3,1.6,0.4c0.1,0,0.2,0.1,0.2,0.3c-0.2,0.6-0.4,1.1-0.6,1.6c-0.1,0.2-0.3,0.2-0.3,0.2c-0.8-0.2-1.6-0.4-2.5-0.4
	c-1.2,0-2.1,0.4-2.7,1.2c-0.6,0.8-0.9,1.8-0.9,3.2c0,1.5,0.4,2.6,1,3.3c0.7,0.7,1.6,1,2.8,1c0.5,0,0.9,0,1.3-0.1
	c0.4-0.1,0.8-0.2,1.1-0.3c0,0,0.2-0.1,0.3,0.1l0.6,1.6C172.4,131.3,172.2,131.4,172.2,131.4z M184.3,125.9c0,0.2-0.2,0.2-0.2,0.2
	l-8.1,0c0,1.2,0.3,2.1,0.9,2.7c0.6,0.6,1.5,1,2.8,1c1.9,0,2.8-0.4,3.3-0.6c0,0,0.2-0.1,0.3,0.1l0.5,1.5c0.1,0.3,0,0.3-0.1,0.4
	c-0.5,0.3-1.8,0.8-4.1,0.8c-1.1,0-2.1-0.2-3-0.5c-0.8-0.3-1.5-0.8-2.1-1.4c-0.5-0.6-0.9-1.3-1.2-2.1c-0.2-0.8-0.4-1.7-0.4-2.6
	c0-0.9,0.1-1.8,0.4-2.6c0.2-0.8,0.6-1.5,1.1-2.1c0.5-0.6,1.1-1.1,1.9-1.4c0.8-0.4,1.7-0.5,2.7-0.5c0.9,0,1.7,0.2,2.3,0.5
	c0.5,0.2,1,0.6,1.5,1.2c0.3,0.4,0.8,1.1,1,1.9C184.5,124.2,184.3,125.8,184.3,125.9z M148.7,122.1c0.5,0.8,0.8,1.9,0.8,3.3
	c0,1.4-0.3,2.5-0.8,3.3c-0.5,0.8-1.3,1.1-2.3,1.1c-1.1,0-1.8-0.4-2.3-1.1c-0.5-0.8-0.8-1.9-0.8-3.3c0-1.4,0.3-2.5,0.8-3.3
	c0.5-0.8,1.3-1.1,2.3-1.1C147.5,121,148.2,121.4,148.7,122.1z M95.4,125.7c1.2,0,2.2,0.2,2.2,0.2v3.7c0,0-1,0.2-2.2,0.3
	c-1.7,0.1-2.4-0.5-2.4-0.5c-0.3-0.3-0.4-0.3-0.5-0.5c-0.2-0.3-0.2-0.6-0.2-1.1c0-0.7,0.2-1.2,0.7-1.6
	C93,126.3,93.7,125.7,95.4,125.7z M115.9,122.1c0.3,0.5,0.5,1.2,0.5,1.9l-5.8,0c0.1-0.8,0.3-1.4,0.7-1.9c0.5-0.8,1.3-1.2,2.3-1.2
	C114.7,120.9,115.4,121.4,115.9,122.1z M181.2,122.1c0.3,0.5,0.5,1.2,0.5,1.9l-5.8,0c0.1-0.8,0.3-1.4,0.7-1.9
	c0.5-0.8,1.3-1.2,2.3-1.2C180,120.9,180.7,121.4,181.2,122.1z"/>
</svg>
