<?xml version="1.0" encoding="utf-8"?>
<!-- Generator: Adobe Illustrator 19.0.1, SVG Export Plug-In . SVG Version: 6.00 Build 0)  -->
<!DOCTYPE svg PUBLIC "-//W3C//DTD SVG 1.1//EN" "http://www.w3.org/Graphics/SVG/1.1/DTD/svg11.dtd">
<svg version="1.1" id="Layer_1" xmlns="http://www.w3.org/2000/svg" xmlns:xlink="http://www.w3.org/1999/xlink" x="0px" y="0px"
	 viewBox="-189.8 324.8 200.3 143.2" enable-background="new -189.8 324.8 200.3 143.2" xml:space="preserve">
<g id="Brain">
	<path fill="#24A7DF" d="M10.2,428.2c-0.5,2-0.3,4-0.9,5.8c-1.1,3.4-1.8,7.4-6.6,7.9c-0.4,0-1,0.8-1,1.2c0.2,6-4.2,8.6-8.4,11.1
		c-1.1,0.7-2.7,1.1-4.1,1.6c-2.8,0.9-5.7,2-8.6,2.3c-2.8,0.2-5,1.3-7,2.9c-4.8,3.8-10.2,5.8-16.3,5.9c-1.4,0-2.9-0.2-4.2,0.2
		c-4.9,1.7-9.2,0.8-13.3-2.2c-0.5-0.4-1.4-0.9-1.9-0.7c-5.4,1.1-8.4,1.2-12.6-0.2c-1.6-0.6-3.2-1-4.9-0.9c-2.2,0.1-4.5,0-6.7,0
		c-4.9,0.1-9-2.2-12.8-4.8c-1.8-1.3-3.3-2.1-5.5-1.9c-5.7,0.6-11-1-15.6-4c-3.2-2.1-6.3-2.9-11.3-2.6c-1.7-0.2-4.9-0.2-7.7-1.2
		c-2.2-0.7-4.6-1.1-6.5-3c-1.1-1.1-2.7-1.9-4.5-1.7c-3,0.4-5.9-0.2-8.7-1c-5-1.4-9.3-4.1-11.7-8.8c-1.5-3-3.1-5.4-6.1-7.5
		c-5.1-3.5-8.5-8.8-10.9-14.5c-1.3-3.2-2-6.7-2.2-10.1c-0.1-2.6,1-5.3,2.8-7.4c0.7-0.8,1.2-1.5,0.9-2.5c-0.5-1.7,1.1-3.1,0.1-5
		c-0.9-1.7,0.6-3.5,0.8-5.3c0.3-2.4,2.1-6.6,3.2-8.7c1-1.8,2.4-3.2,3.8-4.7c2.1-2.3,4.4-4.3,6.2-7c2.7-4.1,3-3.8,9-6.7
		c1.3-0.6,2.6-1.5,2.8-3.5c0.2-2,1.3-4.1,3.1-4.8c3.2-1.2,5.3-3.6,7.6-5.9c3.8-3.7,8.8-4.6,13.7-5.8c1.8,1.9,3,0.5,4.3-0.8
		c4.9-4.7,10.8-7.1,17.6-7.1c3.8,0,7.7,0.5,11.3-1.7c0.6-0.4,1.5-0.2,2.3-0.2c2.4,0,4.8,0,7.2,0c1.5,0,2.9,0.2,4.4,0.8
		c1.7,0.6,3.8,2.3,5.9,0.2c0.4-0.4,1.6-0.2,2.3,0c1.5,0.2,2.9,0.7,4.4,0.9c4.3,0.6,8.2,2,11.3,5.2c0.9,0.9,1.8,1.4,3.2,1.7
		c4.5,0.9,8.9,2.1,12.9,4.6c2.5,1.5,5.3,2.8,6.8,5.3c1.3,2.3,3.9,3.9,4.2,6.8c0.1,0.5,0.8,1,1.3,1.3c2,1,3.9,2.4,6,2.8
		c2.5,0.4,4.2,2,5.7,3.5c2.9,2.8,6.4,5.2,8.3,9c0.3,0.5,1.2,0.8,1.9,1.1c0.7,0.3,1.5,0.5,2,1c2.8,2.7,6,5.2,7.7,8.8
		c1.7,3.5,5,6,5.5,10.2c0.3,2.3,1.6,4.5,1.6,7c0,0.7,0.3,1.6,0.7,2.1c3.8,4,5.3,8.8,5,14.2c-0.1,1.6-0.1,3.2,0,4.8
		c0.1,1.8-0.2,3.5,0.8,5.4C10.2,423.4,10.7,426.1,10.2,428.2z"/>
	<g>
		<path fill="#FFFFFF" d="M9.3,421.5c-0.9-1.9-0.7-3.6-0.8-5.4c-0.1-1.6-0.1-3.2,0-4.8c0.3-5.4-1.2-10.2-5-14.2
			c-0.5-0.5-0.7-1.4-0.7-2.1c0-2.5-1.3-4.6-1.6-7c-0.6-4.1-3.8-6.7-5.5-10.2c-1.8-3.5-5-6-7.7-8.8c-0.5-0.5-1.3-0.6-2-1
			c-0.7-0.3-1.6-0.5-1.9-1.1c-1.9-3.8-5.4-6.1-8.3-9c-1.5-1.5-3.2-3-5.7-3.5c-2.1-0.4-4-1.8-6-2.8c-0.5-0.3-1.3-0.8-1.3-1.3
			c-0.4-2.9-2.9-4.5-4.2-6.8c-1.4-2.5-4.3-3.8-6.8-5.3c-4-2.5-8.4-3.7-12.9-4.6c-1.4-0.3-2.3-0.8-3.2-1.7c-3.1-3.2-7-4.6-11.3-5.2
			c-1.5-0.2-2.9-0.7-4.4-0.9c-0.8-0.1-1.9-0.4-2.3,0c-2.1,2.1-4.2,0.4-5.9-0.2c-1.5-0.5-2.9-0.8-4.4-0.8c-2.4,0-4.8,0-7.2,0
			c-0.8,0-1.7-0.2-2.3,0.2c-3.5,2.2-7.4,1.7-11.3,1.7c-6.9-0.1-12.7,2.4-17.6,7.1c-1.3,1.2-2.5,2.6-4.3,0.8
			c-4.9,1.2-9.9,2.1-13.7,5.8c-2.3,2.2-4.4,4.6-7.6,5.9c-2,0.8-3.2,2.9-3.4,4.9c-0.2,1.9-1.5,2.8-2.8,3.5c-6,2.9-6.3,2.6-9,6.7
			c-1.8,2.7-4.1,4.7-6.2,7c-1.4,1.5-2.8,2.8-3.8,4.7c-1.1,2.1-2.9,6.3-3.2,8.7c-0.2,1.8-1.7,3.6-0.8,5.3c1,1.9-0.6,3.3-0.1,5
			c0.3,1-0.2,1.7-0.9,2.5c-1.8,2.1-2.9,4.7-2.8,7.4c0.2,3.4,0.8,6.9,2.2,10.1c2.4,5.7,5.7,11.1,10.9,14.5c3,2,4.5,4.4,6.1,7.5
			c2.4,4.7,6.7,7.4,11.7,8.8c2.8,0.8,5.7,1.4,8.7,1c1.9-0.3,3.4,0.6,4.5,1.7c1.8,1.8,4.3,2.2,6.5,3c2.8,1,6,1,7.7,1.2
			c5-0.3,8.1,0.6,11.3,2.6c4.6,3,9.9,4.5,15.6,4c2.2-0.2,3.7,0.6,5.5,1.9c3.8,2.6,7.9,5,12.8,4.8c2.2-0.1,4.5,0,6.7,0
			c1.7-0.1,3.3,0.4,4.9,0.9c4.2,1.5,7.3,1.3,12.6,0.2c0.6-0.1,1.4,0.3,1.9,0.7c4.1,3,8.4,3.9,13.3,2.2c1.3-0.4,2.8-0.2,4.2-0.2
			c6.1-0.1,11.4-2.1,16.3-5.9c1.9-1.5,4.2-2.6,7-2.9c2.9-0.3,5.7-1.4,8.6-2.3c1.4-0.4,3-0.9,4.1-1.6c4.2-2.5,8.6-5.1,8.4-11.1
			c0-0.4,0.6-1.1,1-1.2c4.7-0.5,5.5-4.5,6.6-7.9c0.6-1.8,0.4-3.9,0.9-5.8C10.7,426.1,10.2,423.4,9.3,421.5z M-6.5,384.5
			c0.8,0.2,2.2,0.1,2.4,0.5c1.6,3.2,2.8,6.5,3.1,10.5c-0.3,1.9-0.7,4.2-1.1,6.4c0,0.2-0.3,0.4-0.5,0.6c-0.1-0.3-0.4-0.5-0.4-0.8
			c-0.1-0.9,0.1-1.9-0.3-2.7c-1.6-3.8-3.3-7.5-2.6-11.7c0.1-0.3-0.5-0.7-0.6-1.2C-6.6,385.6-6.5,385.1-6.5,384.5z M-126.1,335.6
			c0.6-0.7,1.2-1.5,2.1-1.9c4.9-2.4,11.7-4.1,17.1-2.1c1.9,0.7,4.2,0.7,6.2,1.1c-0.3-0.5-0.6-1.1-1-1.5c-1-0.9-1.2-1.4,0.5-1.4
			c0.5,0,1-0.9,1.5-0.9c3.6,0,7.1-0.4,10.6,0.9c1.8,0.6,0,1-0.1,1.4c0,0.3,0,0.6,0,0.9c0.3,0,0.7,0.1,1,0c4.3-1.9,4.9-1.8,10.1-1.5
			c2.8,0.2,5.2,1.3,7.7,2.2c1.2,0.4,2.1,1.5,3.1,2.3c-1.1,0.4-2.2,0.9-3.3,1.4c-0.3,0.1-0.5,0.4-0.7,0.7c-0.2,0.2-0.5,0.5-0.7,0.7
			c0.4,0.2,0.7,0.5,1.1,0.5c0.8,0,1.7,0.2,2.3-0.1c2.4-1.5,5.1-1.2,7.3-0.6c4.8,1.4,10.1,2.1,13.6,6.4c3.7,1.1,4.2,4.9,6.3,7.4
			c0.1,0.1-0.4,1.2-0.7,1.3c-0.7,0.2-1.6-0.1-2.4,0.1c-0.9,0.3-1.7,1-2.5,1.5c0.9,0.1,1.8,0.3,2.7,0.4c1.3,0.1,2.5,0.1,3.8,0
			c2.2-0.1,4,0.6,6.1,1.5c6.2,2.9,10.8,7.4,14.6,12.9c1.1,1.5,1.6,3.5,2.4,5.2c0.1,0.2,0.4,0.2,0.7,0.3c0.1,0,0.3-0.2,0.3-0.3
			c0-0.8-0.1-1.6,0.1-2.4c0.1-0.4,1.1-0.9,1.2-0.8c0.8,0.6,1.8,0.6,2.5,1c1.7,1,3.3,2.4,4.5,4c0.6,0.7,0.3,2.1,0.3,3.2
			c0,0.7,0,1.9-0.4,2.2c-1,0.7-1.7-0.4-2.2-1.1c-0.9-1-2-0.5-3.1-0.7c0.3,0.5,0.6,1.2,1,1.5c3.8,1.9,4.7,5.2,4.7,9
			c0,0.3-0.2,0.6-0.3,0.8c-0.2-0.1-0.5-0.2-0.7-0.3c-1-0.8-1.9-1.6-2.9-2.4c-0.1-0.1-0.4-0.1-0.5,0c-0.2,0.2-0.4,0.6-0.3,0.6
			c0.6,0.7,1.4,1.3,2,2.1c2.8,3.4,5,7.3,5.3,11.6c0.2,2.9,1,5.8,1.1,8.7c0,0.3,0.2,0.5,0.4,0.8c0.2-0.2,0.5-0.3,0.6-0.5
			c0.7-1.6,1.2-3.3,2-4.9c0.7-1.6,1-3.2,1-4.9c0-0.6,0.8-1.2,1.2-1.9c0.5,0.5,1.3,0.8,1.6,1.4c1.7,3.5,2.4,7.3,1.9,11.1
			c-0.1,0.9-0.8,2.2-1.6,2.5c-1.7,0.7-0.8-1.6-1.9-2.1c-0.4-0.2-0.4-1.1-0.7-1.6c-0.2-0.4-0.7-0.7-1-1c-0.2,0.4-0.5,0.8-0.5,1.1
			c0.2,2.1-0.4,3.9-1.5,5.6c-0.5,0.8-1.1,1-1.7,0.1c-1.5-2.4-3-4.8-4.4-7.3c-0.4-0.8-1-1.7-0.9-2.4c0.1-0.6,1.3-0.9,1.8-1.5
			c0.5-0.5,0.7-1.3,0.9-2c0.1-0.3-0.1-0.6-0.1-0.9c-0.3,0.1-0.8,0.1-1,0.3c-0.8,0.9-1.6,1.5-2.8,1.2c-1.4-0.4-3.7-3.4-3.7-5
			c0-2.6,0-5.1,0-7.7c0-0.2-0.7-0.5-0.7-0.4c-1.5,1.7-2.7-0.1-2.9-0.8c-0.3-1.7-1.7-2.2-2.5-3.3c-0.1-0.2-0.3-0.5-0.4-0.7
			c0.3-0.1,0.5-0.3,0.8-0.3c0.5-0.1,1,0,1.4,0c0.4-0.1,0.9-0.2,1.3-0.3c-0.5-0.2-0.9-0.5-1.4-0.7c-1.5-0.6-3.2-1-4.4-1.9
			c-1.4-1.1-2.4-2.7-3.5-4.1c-0.2-0.3-0.1-0.9,0.1-1.3c0.1-0.2,0.5-0.3,0.8-0.3c0.6,0.1,1.2,0.2,1.7,0.4c2.6,0.8,5,1.7,7.2,3.3
			c0.2,0.2,0.8-0.1,1.3-0.2c-0.1-0.2-0.2-0.5-0.3-0.7c-3.7-2.9-7.2-6.2-12.5-5.7c-1.4,0.1-2.3-0.5-3.3-1.4c-2.8-2.3-3.9-5.9-6.4-8.4
			c-0.1-0.1,0.2-0.7,0.4-0.7c3.4-0.5,4.2,0,5.9,3.1c0.4,0.6,0.6,1.3,1,2c0.1,0.2,0.4,0.3,0.6,0.5c0.1-0.3,0.4-0.6,0.3-0.8
			c-0.1-0.7-0.5-1.4-0.6-2.1c-0.1-0.5,0-1.1,0-1.6c0.4,0,0.9-0.1,1.3,0.1c1.3,0.7,2.5,1.8,4.1,1.7c-1.2-1.3-4.3-3.3-5.3-3.9
			c-2.3-1.2-4.8-1-7.2-0.9c-1.7,0.1-3.4-0.4-4.2-1.2c-3.1-3-6.8-4.9-10.7-6.5c-1.3-0.5-1.7-1.7-1-2.6c0.4-0.5,0.9-0.9,1.3-1.4
			c0.4-0.4,1-0.8,1.3-1.4c0.2-0.4,0.3-0.9,0.4-1.3c-0.4,0.1-1,0.1-1.3,0.4c-1.2,1.1-2.1,2.9-3.4,3.1c-1,0.2-2.3-1.6-3.5-2.5
			c-0.2-0.2-0.5-0.3-0.8-0.4c-1.6-0.8-0.2-1.7-0.1-2.5c-2.8,0.3-5.6,0-8.2-1.1c-2.2-0.9-4.2-2.1-6.3-3.3c-2.9-1.7-6-2.4-9.2-3.2
			c-1-0.3-2.1-0.3-3.2-0.4c0.7-1.2,1.7-1.6,3.1-1.6c0.7,0,1.3-0.6,2-0.9c0.2-0.1,0.3-0.4,0.5-0.6c-0.3-0.1-0.6-0.4-0.8-0.3
			c-2.1,0.6-4.3,1.2-6.3,2c-2.6,1.1-4.9,2.1-7.6,0c-1.3-1-3.5-0.6-4.7-1.2c-2.4-1.2-4.6-0.5-6.9-0.8c-2.5-0.3-5,0.4-7,1.5
			c-3.2,1.7-6.3,1.2-9.5,1.3c-0.8,0-1.7-0.5-2.5-0.9C-126.1,336.4-126.2,335.8-126.1,335.6z M-177.6,417.7c-0.3-0.2-0.8-0.3-1-0.6
			c-1.2-2.1-2.5-4.1-3.3-6.2c-1-2.8-1.7-5.7-2.5-8.6c0-2.2,0.8-4,2-5.6c0.2-0.3,0.4-0.5,0.7-0.7c0.2,0.3,0.4,0.7,0.5,1
			c0.2,0.6,0.3,1.2,0.5,1.7c1,3.1,2.2,6.2,2.4,9.5c0.2,2.8-0.4,5.6,0.9,8.2C-177.2,416.7-177.5,417.3-177.6,417.7z M-137.4,443.6
			c-0.4,0-0.9,0.2-1.3,0c-3.7-1.9-6.9-4.2-9.2-7.9c-1.1-1.8-1.8-3.7-2.7-5.6c-0.1-0.2-0.4-0.4-0.6-0.6c-0.1,0.3-0.3,0.5-0.4,0.8
			c-0.2,2,0.4,3.5,2.6,7c0.4,0.7,0.7,1.5,1,2.3c-0.9,0-1.7,0.1-2.6-0.1c-0.6-0.1-1.1-0.6-1.7-0.6c-5.1,0.2-9.1-2-12.4-5.8
			c-1.5-1.7-2.5-3.4-2.3-5.7c0.1-2.1,0.1-4.1,0-6.2c0-0.5-0.3-1-0.5-1.4c-0.5,0.4-1.1,0.8-1.3,1.4c-0.2,0.5,0.1,1.3-0.2,1.8
			c-0.6,1.6-2,1.9-3.2,0.7c-1.3-1.3-2.2-2.6-2.9-4.5c-0.8-2.1-0.1-4-0.6-5.6c0-1.8-0.1-3.2,0.1-4.7c0-0.2,1.1-0.7,1.4-0.5
			c1.3,0.8,2.2,2,3.6,2.8c4.3,2.5,8.3,5.4,12.4,8.2c0.4,0.2,1.3,0.7,0.1,1.2c-2.4,1.1-2.3,3.2-2.2,5.3c0,0.7,0.2,1.5,0.3,2.2
			c0.2-0.6,0.3-1.3,0.6-1.9c0.6-1.2,1.2-2.4,2.1-3.4c2.2-2.4,3.4-2.6,6.2-1.1c1.8,1,3.5,2.3,5.3,3.3c1,0.5,1.8,0.7,1.7,2.1
			c0,2.7,1.5,7.6,2.8,9.8c1,1.7,2.3,3.2,3.4,4.8C-137.2,442.4-137.4,443.1-137.4,443.6z M-133.1,431.9c1.1,1.1,2.1,2.6,3.5,3.2
			c2.7,1.1,3.3,3,3.1,5.5c-0.1,1.1,0,2.2-0.1,3.3c0,0.2-0.6,0.5-0.8,0.4c-5.3-2.5-10.2-5.3-12.6-11.2c-1.6-3.9-2-6.4-0.9-9.8
			c1.2-3.7,4.1-4.5,6.8-2c0.6,0.5,1.2,0.9,1.8,1.4c0-3.2,0-6.4,0-9.6c-0.5,0.3-1.3,0.6-1.5,1c-1,2.2-1.8,4.4-5,4
			c-0.7-0.1-1.8,0.6-2.3,1.3c-1.2,1.6-2.8,1.5-4.3,1.3c-1.4-0.2-3.2-0.5-4.2-1.4c-3.6-3.2-7.2-6.4-6.9-12c0-0.3-0.2-0.5-0.3-0.8
			c-0.2,0.3-0.5,0.5-0.6,0.9c-0.2,1-1.8,1.8-0.3,3.2c0.5,0.4,0.3,1.8,0.2,2.7c0,0.3-1.2,0.8-1.3,0.7c-1.7-1.5-4.1-0.7-5.9-2
			c-1.8-1.3-3.6-3-5.7-3.6c-2.7-0.8-3.5-3.2-4.1-5c-0.7-2.2-0.5-5.1,0.3-7.4c1.1-3.2,2.7-6.4,5.6-8.7c0.7-0.6,1.4-1.3,2-2
			c0.2-0.2,0.2-0.4,0.3-0.7c-0.3-0.1-0.7-0.3-0.8-0.2c-2.7,1.5-5.9,2.1-6.7,5.9c-0.5,2.3-1.9,4.3-2.7,6.5c-0.3,0.7-0.3,1.3-1,0.4
			c-2.5-3.4-3.5-12-2.2-16.7c1.2-4.3,3.5-7.7,6.8-10.6c0.3-0.3,0.7-0.4,1-0.6c0.1,0.4,0.3,0.9,0.3,1.3c-0.4,3.6,0.5,7,1.9,10.2
			c0.1,0.3,0.3,0.5,0.5,0.7c0.2-0.3,0.4-0.5,0.4-0.8c0.3-1.3,0.6-2.6,1-3.9c0.6-1.9,1.7-3.6,3.3-4.8c0.2-0.2,1.4,0.4,1.4,0.6
			c0.1,2.4,0,4.8,0.1,7.2c0,1.4-0.3,3,0.3,4.2c0.4,0.9,2,1.3,2.9,2.1c1.3,1.2,2.8,2.3,3.7,3.7c1.6,2.7,4,4.7,6.1,7
			c0.6,0.7,1,1.5,1.4,2.3c-0.9,0.5-1.8,1.3-2.7,1.4c-1.3,0.1-2.7-0.3-4.1-0.5c-3.7-0.5-5.2-3.6-7.6-5.8c-0.3-0.3-0.5-0.7-0.8-1.1
			c-0.1,0.4-0.3,0.9-0.2,1.3c0.7,3.6,5.3,7.6,9.1,8c0.9,0.1,1.9,0.1,2.9,0c1.3-0.1,2.1,0.6,1.2,1.6c-1.4,1.6-0.4,2.8,0.3,4.1
			c0.2,0.3,0.4,0.6,0.6,0.9c0.1-0.3,0.3-0.6,0.3-0.8c-0.5-3.4,1.3-6.1,2.6-9c0.7-1.7,1.8-2.4,3.1-2.9c1.5-0.6,3.1-1.1,4.6-1.5
			c0.9-0.2,1.9,0.1,2.5-0.9c0.5,0.9,1,1.8,1.5,2.6c0.7,1,1.3,2.1,2.2,2.9c1.5,1.4,2.6,2.9,3.1,5c0.4,1.8,0.6,1.9-1.1,1.9
			c-3.1,0-6.1-0.3-8.8,1.8c-0.6,0.5-1.3,0.6-1.1,1.5c0.5-0.1,0.9-0.4,1.4-0.4c2.4-0.3,4.7-1.7,7.2-1c2.1,0.6,4.5,0.9,6.3,2.1
			c1.5,1,2.2,3.1,3.1,4.9c0.4,0.8,0.5,2,0.2,2.7c-1.5,3.3-1.7,6.9-2.8,10.3c-0.9,2.6-1.6,3.2-4.1,2.9c-0.7-0.1-1.3-0.6-2-0.8
			c-0.4-0.1-1,0-1.2,0.2C-133.2,430.9-133.3,431.7-133.1,431.9z M-105.7,451.8c-0.9-0.5-2.1-0.3-3.2-0.4c-3.4-0.3-6.3-1.7-9-3.5
			c-2.6-1.7-3.7-4.7-4.8-7.5c-0.8-1.9-1-3.8-0.9-5.8c0-1.3,0.1-2.6,0-3.8c-0.2-2.5,0.5-4.7,1.9-6.9c2-3.3,4.2-5.6,8.5-5.2
			c1.7,0.2,3.2,0.7,4.7,1.3c1.4,0.6,2.5,1.7,4.1,1.6c-0.3-0.5-0.6-1.1-1-1.5c-1.5-1.2-2.2-2.6-1.9-4.5c0.1-0.8,0.1-1.6,0-2.4
			c-0.2-2.5,0.8-4.4,2.5-6.1c1.4-1.4,3-2.3,5.1-2.8c2.5-0.6,4.7-2.1,7.3-1.9c0.4,0,0.8-0.2,1.3-0.4c-0.5-0.2-1-0.4-1.5-0.5
			s-1,0-1.4,0c-1.1,0-2.2-0.1-3.3-0.1c0.2-1.1,0.4-2.2,0.6-3.3c0-0.2,0-0.3,0-0.5c-0.1-0.3-0.2-0.5-0.4-0.8
			c-0.2,0.2-0.5,0.3-0.6,0.5c-0.4,0.8-0.5,1.7-1,2.5c-2.7,4.5-8.8,4.8-11.9,1.7c-3.2-3.3-3.4-8.2-0.5-12c2.1-2.7,4.2-5.1,8.7-5.3
			c0.3,0,0.5-0.3,0.8-0.4c-0.2-0.2-0.4-0.4-0.7-0.5c-0.3-0.1-0.6,0-0.9,0c-3.1-0.2-3.1-0.2-3.1-3.4c0-0.3,0-0.6,0-1
			c0.2-1.2-0.5-2.5,0.7-3.6c1.6-1.5,2.9-3.4,5.2-3.5c2.5-0.2,4.7-1.7,7.3-1.1c0.4,0.1,0.8-0.3,1.2-0.4c-0.4-0.2-0.8-0.4-1.2-0.5
			c-0.4-0.1-0.9-0.1-1.3-0.2c0.3-0.5,0.5-1,0.8-1.3c1.1-1.2,2.3-2.2,3.3-3.4c0.3-0.4,0.3-1.2,0.4-1.7c-0.5,0.3-1.1,0.6-1.5,1
			c-1.6,1.7-3.7,2.1-5.9,1.8c-1.8-0.3-2.4-1.9-3.4-3.3c-1.1-1.5-3-2.3-4.7-3.3c-0.4-0.2-1.1,0.2-1.7,0.3c0.3,0.2,0.7,0.3,1,0.6
			c1.2,1,2.4,2,3.4,3.1c1.3,1.6,1.7,3.7,1.1,5.6c-0.3,1-1.9,1.7-3,2.5c-0.7,0.5-1.6,0.8-2.3,1.4c-0.7,0.7-1,0.7-1.7,0
			c-1.5-1.5-2.6-3.7-5.4-3c1.4,1.5,2.7,3,4.1,4.5c1.9,2,1.6,4.5,1.7,7c0.1,1.8-1.1,2.6-2.1,3.4c-3.8,3.3-5.1,7.5-4.7,12.4
			c0.1,1.6,0.5,3.3,1.5,4.1c2.3,1.8,2.6,4.8,4.6,6.8c0.2,0.2,0.3,0.8,0.1,1c-2,2.4-4,4.8-6.1,7c-1,1.1-4.3,1-5.1-0.1
			c-1-1.3-2.1-2.7-2.6-4.2c-1.2-3.4-2.3-6.9-2.1-10.7c0.2-3.5,0.5-7,2-10.2c0.1-0.2-0.2-0.5-0.3-0.8c-0.2,0.1-0.5,0.1-0.7,0.3
			c-1.7,2.5-3.2,5.1-2.9,8.4c0.2,1.9-0.1,2-2.1,1c-4.2-2.2-6.6-6.7-6.5-12.1c0.1-5,4.2-9.7,9.2-10.1c2.6-0.2,5.2-1.7,7.8-0.1
			c0.6,0.3,1.6,0.1,2.4,0c0.2,0,0.4-0.3,0.6-0.5c-0.1-0.1-0.2-0.3-0.3-0.3c-1.4-0.4-2.9-0.8-4.4-1c-1.4-0.2-2.9,0-4.3-0.1
			c-0.5,0-1-0.4-1.5-0.7c0.3-0.5,0.5-1.2,0.9-1.5c1-0.9,2.7-0.8,3-2.5c-2.9-0.3-4.9,1.4-6.7,3.4c-0.5,0.5-0.5,1.5-1.1,1.9
			c-2.2,2-4.4,3.9-6.7,5.7c-0.2,0.1-0.8,0.1-1-0.1c-2.6-2.6-5.2-5-6.2-8.9c-1.5-5.8,1-10.9,5.5-13.7c2.6-1.6,5.5-1.2,8-2.6
			c1.1-0.6,2.8-0.1,4.2-0.1c-0.3-1.9-1.8-0.9-2.7-0.9c-3.1,0-6.2-0.7-9.2,0.9c-0.7,0.4-1.4,1.7-2.3,0.6c-0.2-0.3,0.5-1.5,0.9-2.2
			c0.4-0.7,1.1-1.1,1.6-1.7c0.2-0.2,0-0.6,0-0.9c-0.3,0-0.8-0.1-1,0.1c-3.9,3.5-5.9,8.3-8.5,12.7c-1.1,1.9-2.2,3.2-4.2,4
			c-2,0.8-3.7,2.2-5.1,3.9c-0.1,0.1-0.2,0.6-0.1,0.6c0.3,0.1,0.6,0.3,0.9,0.2c0.5-0.2,1-0.7,1.5-0.9c1.1-0.4,2.5-1.2,3.4-0.9
			c2.4,0.8,5.1,1.8,6.3,4.3c0.8,1.8,1.9,3.4,3,5c1.9,2.8,2.3,6,1.9,9.2c-0.1,0.7-0.5,1.4-1,2c-1.7,1.9-3.8,0.5-5.7,0.5
			c-3.1,0-5.5-1.5-7.7-3.4c-4.2-4-5.6-9.6-6.2-15.4c-0.3-3-0.7-6.2,0.8-9.2c0.3-0.7-0.2-1.7-0.4-2.6c-0.4,0.8-0.9,1.5-1.4,2.3
			c-1.2,1.7-1.1,4.2-3.3,5.3c-0.8,0.4-1.6,0.9-2.3,1.4c-0.5,0.3-2-0.2-2-0.8c-0.2-3.4-0.1-6.8,2.6-9.4c2.9-2.9,7.4-4.3,11.6-3.5
			c1.6,0.3,3.2,0.6,4.9,1c-0.8-1.4-1.5-2.8-3.3-2.9c-1.5,0-2.2-0.9-2.4-2.3c-0.2-1.5,0.1-2.7,1.6-3.5c1.7-0.9,3.2-1.5,5,0
			c1.5,1.3,2.8,0.9,4.2-0.6c2.5-2.6,5.9-4,9.3-5.1c1.1-0.4,2.4-0.3,3.7-0.4c-1.1-1.2-2.6-0.5-3.9-0.5c-2-0.1-4-0.3-5.8,0.9
			c-1,0.6-2.3,1-3.4,0.9c-1.1-0.1-1.9,1.3-3.1,0.4c0.7-3,3.7-3.4,5.6-5c0.9-0.8,2.5-0.8,3.8-1c0.8-0.1,1.9,0.3,2.3-0.1
			c2-1.6,4.3-0.6,6.3-0.9c1.6,2,4,0.7,6.1,1.5c3.1,1.3,6.5,2.1,9.4,3.9c0.2,0.1,0.6,0.1,0.6,0c0.1-0.3,0.3-0.7,0.2-0.9
			c-0.6-0.6-1.3-1.2-2-1.7c-1-0.7-1.1-1.4-0.1-1.9c3-1.5,6-2.6,9.3-2.9c3.4-0.3,6.4,1.6,9.7,2c0.2,0,0.3,0.5,0.3,0.8
			c0,0.3-0.2,0.8-0.3,0.8c-2.5,0.1-4.1,2.3-6.5,2.8c-2.5,0.5-4.8,1.6-6.9,3.1c-0.2,0.1-0.2,0.7-0.3,1c0.3,0,0.7,0.2,0.9,0.1
			c1.2-0.6,2.3-1.5,3.5-1.8c1.5-0.4,3.2,0,4.6-0.5c1.5-0.6,2.3,1,3.7,0.6c0.9-0.2,2.2,0.7,3.1,1.4c0.2,0.2-0.6,1.5-0.9,2.4
			c-0.2,0.6-0.1,1.3-0.5,1.7c-0.5,0.7-1,1.3-2.3,0.8c-3.4-1.5-7.1-0.5-10.7-0.6c-1.2,0-2.6,0.7-3.7,1.4c-0.8,0.5-1.6,0.8-1.9-0.1
			c-1.7-4.4-6.2-5-9.5-7.1c-0.2-0.1-0.6,0.1-0.8,0.2c0.2,0.3,0.3,0.8,0.6,1c1.5,1,3.1,1.7,4.6,2.7c3.5,2.4,4.1,5,2.3,8.8
			c-0.6,1.2-1.9,2.4-1.8,3.5c0.2,3-1.7,3.2-3.8,3.9c-2.6,1-5.6,1.7-6.9,4.7c0.3,0,0.7,0.1,0.9,0c5.2-2.6,10.7-4.2,16.6-3.8
			c0.5,0,1-0.3,1.5-0.5c-0.5-0.2-1.2-0.3-1.6-0.7c-1.1-1.2-2.4-0.6-3.6-0.6c-1.5,0-1.8-0.8-1.4-1.7c0.9-2.5,2-5,4.2-6.9
			c2-1.7,4.6-2.6,6.9-2.8c6.8-0.5,12.9,1.5,17.9,6.4c1.6,1.6,3.2,3.1,4.7,4.7c0.6,0.7,1.3,1.4,1.6,2.2c0.3,0.8,1.4,1.6-0.1,2.5
			c-2.5,1.5-3.9,4.3-4.5,6.7c-1.2,4.7-3.7,7.9-7.6,10.2c-0.9,0.5-1.7,1.2-2.7,1.6c-3.1,1.2-4.6,3.9-6.1,6.5
			c-0.1,0.2,0.1,0.6,0.2,0.9c0.3-0.1,0.7-0.2,1-0.4s0.6-0.4,0.7-0.7c0.7-2.7,2.8-4.3,5.1-4.9c2.5-0.7,5.5-0.9,7.9-0.2
			c2.9,0.8,5.1,3.3,6.2,6.3c0.4,1.2,0.4,2.8-1.1,3.8c-0.5,0.3-0.9,1-1.4,1.3c-3.4,2.5-4.5,6.4-6,10c-0.5,1.3-0.1,3-1.1,4.3
			c-1.3,1.7-3.1,0.5-4.7,0.9c-0.6,0.2-1.3,0.4-1.9,0.6c0.7,0.3,1.3,0.7,2,1c0.6,0.2,1.2,0.2,1.8,0.3c4.3,1,7.8,3.2,9.8,7.4
			c0.2,0.3,0.5,0.9,0.4,1c-1.7,1.4,0.4,3.8-1.3,5.3c-0.1,0.1,0.4,1,0.8,1.3c1,0.7,0.7-0.4,0.8-0.8c1-4.5,4.1-6.8,8.4-7.8
			c2-0.4,6.1,1,8.2,3.1c0.9,0.9,1.8,1.8,2.7,2.7c2.8,2.8,2.4,5.5-0.9,8.2c-0.6,0.5-1.2,1.1-1.7,1.7c-0.1,0.2-0.2,0.4-0.3,0.7
			c0.3,0.1,0.7,0.3,0.8,0.2c1.1-1.2,2.6-1,3.9-0.9c1.6,0.1,1.9-0.6,1.7-1.9c-0.1-0.8-0.1-1.6,0-2.4c0.2-1,0.4-2.2,1-2.9
			c1-1,2.4-2.1,3.8-2.3c4.2-0.6,8.3,0.1,11.5,3.3c0.6,0.6,1.1,1.1,1.7,1.7c1.1,1.2,0.9,0.2,1.2-0.6c0.3-0.8,0.7-1.6,1.2-2.4
			c1.3-2,3.9-2.7,6.2-1.9c3.8,1.3,6.3,6.1,5,9.8c-0.3,0.8-1.1,2.2-2.5,1.3c-2.1-1.4-4-0.8-6,0.2c-0.8,0.4-1.7,1-2.5,0.9
			c-4.2-0.3-8.8,1.2-12.6-1.8c-0.2-0.1-0.6,0.1-0.9,0.1c0.1,0.3,0.2,0.8,0.4,1c1.7,1.5,3.4,3.4,4,5c0.3,0.8,0.2,1.5-1,1.5
			c-4.8,0.3-9.6,0.8-14.4,0.9c-4.6,0.1-9.3-4.9-9.4-9.5c0-1.9,0-3.8,0-5.7c-0.6,0.6-1.8,1.2-1.8,1.8c-0.1,2.5,0,5,0.2,7.5
			c0,0.4,1.2,0.8,0,1.2c-1.5,0.5-3.2,1.8-4.7,0.7c-1.1-0.8-2-0.5-3.1-0.7c-3.6-0.8-6.4-3.9-7.9-7.6c-1.2-2.9-0.6-5.8-0.9-8.7
			c-1.4,0.9-1.8,2.1-2,3.7c-0.3,2.8-0.8,3.2-3.5,3c-1.6-0.1-3.2-0.7-4.9-0.9c-2.5-0.3-3.7-1.6-4.1-4.1c-0.2-1.3-0.6-2.6-0.9-3.9
			c-0.1-0.2-0.3-0.4-0.5-0.6c-0.1,0.3-0.4,0.5-0.4,0.8c0.6,3.9-1.6,6.5-4.4,8.7c-1,0.8-2.4,1.1-3.6,1.7c-0.3,0.1-0.5,0.4-0.7,0.7
			c0.2,0.2,0.4,0.5,0.6,0.5c1.1-0.1,2.2,0,3.1-0.5c1.5-0.8,1.7-0.5,2,1.1c0.6,3.2,1.4,6.6,4.9,8c2.3,1,1.5,3.4,2.6,5
			C-103.5,450.9-104.1,452.7-105.7,451.8z M-27.9,451.6c-0.2,4.3-1.4,7.9-6,9.4c-2.7,0.9-5.5,1.2-8.4,1c-2.7-0.2-4.6-1.4-6.4-3.2
			c-0.6-0.6-1.4-1.1-2.2-1.7c-0.6,2.1,0.7,3.2,2,4.4c0.3,0.3,0.5,0.7,0.7,1c-0.4,0.1-0.9,0.3-1.3,0.3c-0.6,0.1-1.3,0-1.9,0
			c-2.2,0.1-4.4,0.2-5.9-1.9c-0.4-0.6-1.3-0.7-1.9-1.2c-0.8-0.8-1.3-0.7-2.4-0.2c-1.7,0.8-4,1.8-5.6,1.2c-2.3-0.8-4.9-1-7.2-2.4
			c-2.4-1.4-3.8-3.7-5.9-5.2c-0.3-0.2-0.7-0.4-1-0.6c-0.1,0.4-0.3,1-0.1,1.3c0.8,1.3,1.8,2.4,2.6,3.7c0.2,0.3-0.3,1.4-0.5,1.4
			c-3.7,0.5-7.4-0.4-10.8-1.5c-4.7-1.5-8.6-4.3-10.3-9.3c-0.4-1.3-1.2-2.6-1-3.8c0.1-0.6,1.9-1,3-1.4c0.1-0.1,0.3-0.1,0.4-0.2
			c0.7-0.5,1.5-1,2.2-1.5c-1-1-1.5,0.1-2.3,0.4c-1.2,0.3-2.5,0.1-3.8,0.1c-3.4-0.1-6.5-2.5-7.2-5.8c-0.2-0.9-0.3-2.1,1.3-1.8
			c1.6,0.3,3.3,0.4,4.9,1c4.2,1.5,8.8,2.2,11.9,6c2.9,3.6,6.9,5.3,11.2,6.3c1.4,0.3,1.3,0.9,1.4,1.8c0.2,1.2,0.3,1.2,0.9,0.7
			c0.8-0.7,1.5-1.6,2.4-2.3c0.6-0.5,1.3-1,2-1s1.5,0.4,1.9,0.9c2.1,2.1,4.6,3.4,7.5,3.9c0.5,0.1,2.4,0.8,0.7,2.2
			c-0.2,0.2,0.1,0.8,0.1,1.3c0.3-0.2,0.8-0.3,1-0.6c3.1-3.3,6.6-5.4,11.4-5c2.6,0.2,4.8,0.6,5.7,3.5c0.3,1,1.4,1.7,2.7,1.4
			c-0.3-0.5-0.7-1-1-1.5c-1.2-2.1-2.8-3.9-2.8-6.5c-0.1-2.6-0.1-2.6,2.5-2.5c0.8,0,1.9-0.7,2.3,0.8c0.3,1.3,0.8,2.5,1.3,3.8
			c0.8-1.2,1.5-2.3,1.7-3.8c0.2-1.7,3.8-3.4,5.2-2.6c1.7,1,3.4,2.2,4.6,3.7c0.7,0.8,0.5,2.3,0.6,3.5
			C-27.9,450-27.9,450.8-27.9,451.6z M-29.5,430.2c-0.2-0.2-0.4-0.5-0.7-0.7c-0.8-0.5-0.4-0.9,0.1-1.4c0.5-0.4,0.9-0.9,1.3-1.4
			c0.2-0.3,0.4-0.7,0.6-1c-0.4-0.1-1.1-0.3-1.3-0.1c-2.1,2.1-4.8,1.8-7.4,1.8c-1.5,0-2.9,0.1-4.4,0.8c-1.7,0.8-3.1-0.9-2.5-2.8
			c0.2-0.7,0.4-1.5,0.4-2.2c0-0.6,1.9-0.9,0.3-1.6c-1-0.4-1.2,0.4-1.3,1.4c0,0.5-0.6,1-0.9,1.5c-1.4,2.4-6.2,3.9-8.5,2.4
			c-3.9-2.6-8.2-4.8-10.4-9.4c-0.1-0.3-0.6-0.3-1-0.5c0,0.4-0.3,1-0.1,1.3c1.5,2.5,2.6,5.2,5,7c0.2,0.2,0.3,0.4,0.4,0.7
			c-0.3,0.1-0.5,0.3-0.8,0.3c-2.3,0.3-4.1-0.7-5.7-2.3c-2.8-2.8-6.6-4.6-10-3.2c-4.1,1.7-6.2-0.9-8.9-2.4c-0.9-0.5-2-1.5-2.1-2.4
			c-0.5-4.3-0.3-8.7,2.2-12.4c2.2-3.3,4.5-6.6,8.3-8.5c0.3-0.2,0.5-0.7,0.8-1c-0.4-0.1-1.1-0.5-1.3-0.3c-1.5,1.6-1.9,1-2.8-0.7
			c-1.1-2.1-1.5-5-4.6-5.7c-0.3-0.1-0.8-0.7-0.8-1.1c-0.2-3.9-0.4-7.9,1.3-11.4c1.7-3.6,4.7-6.2,8.9-7c0.4-0.1,0.8-0.3,1.3-0.4
			c-0.4-0.2-0.8-0.5-1.2-0.5c-1.5-0.2-3.2,0.5-4.3-1.2c-3-4.6-6.8-8.5-11.4-11.4c-1.5-1-1.4-2.5-1.2-3.8c0.3-1.3,1.3-2,2.8-1.8
			c0.6,0.1,1.3,0,2.3,0c2.3-0.4,4.4,0.5,6.3,2.4c0.9,0.9,1.9,1.8,2.7,2.7c0.8,0.9,1.4,2,2.1,2.9c-1.4,0.5-2.2-0.7-3.3-1.1
			c-0.9-0.3-2.1,0-3.2,0.1c0.7,0.6,1.4,1.2,2.2,1.7c0.8,0.4,1.7,0.6,2.4,1c5.4,3.2,8.3,11.2,7.5,16.2c-0.1,0.4-0.4,0.9-0.7,0.9
			c-2.5,0.5-2.4,3.4-4,4.7c-0.1,0.1,0.1,0.6,0.2,0.8c0,0.1,0.5,0,0.6-0.1c2-2.7,5.2-3.6,8-4.9c1.6-0.8,3.7-2,5.6-1.3
			c2,0.8,4.2,1.5,5.8,3.4c2.1,2.3,3,5.2,4.4,7.8c0.7,1.4,0.7,3.7-1.3,5.1c-0.8,0.5-1.4,1.3-2,2c-0.2,0.2-0.2,0.5-0.3,0.8
			c0.5,0,1.2,0.2,1.4,0c1.1-1.2,2.3-1.8,4-2c1.6-0.2,2.9-0.2,4.5,0c5.1,0.7,7.5,4.4,10,8.1c0.5,0.7,0.5,1.5-0.8,1.6
			c-0.5,0-1-0.2-1.4,0c-0.5,0.3-0.9,0.9-1.4,1.3c0.5,0.2,1,0.6,1.5,0.5c5.1-0.4,7.9,2.5,10.2,6.5c2,3.4,2.9,7,2.6,10.9
			c0,0.2,0.3,0.5,0.4,0.8c0.2-0.2,0.5-0.3,0.7-0.6c0.3-0.7,0.6-1.4,0.8-2.1c0.4-1.1,0.3-1.1,0.9-0.7c2.7,1.8,3.5,4.4,2.9,7.4
			c-0.4,2.1-1.9,3.6-3.5,4.7c-1.5,1.1-3.3,2.4-5.1,2.6C-27.1,433.1-28.3,431.2-29.5,430.2z M-4.2,443.5c0.4-0.1,0.7-0.3,1-0.4
			c0.1,0.3,0.3,0.7,0.2,0.9c-2.2,3.1-4.4,6.2-8.9,5.6c-0.8-0.1-1.6-0.1-2.4,0c-0.4,0-0.7,0.4-1,0.5c0.2,0.2,0.5,0.4,0.7,0.7
			c0.3,0.4,1,1,0.9,1.3c-0.2,0.5-0.8,1.1-1.3,1.2c-1.3,0.2-2.6,0.2-4,0.9c-1.3,0.6-3.3,0.5-4.5-0.2c-0.7-0.4-0.3-2.6-0.4-4
			c0-0.3,0-0.6,0-1c-0.1-1,0.2-1.4,1.3-1.4c1.3-0.1,2.7,0.4,4-0.8c0.5-0.5,2.3-0.3,3.1,0.2c2.5,1.7,4.2-0.5,6.2-1.1
			c0.3-0.1,0.5-0.4,0.7-0.7c-0.2-0.2-0.4-0.5-0.6-0.5c-1.4,0-2.9,0.1-4.3-0.1c-1.2-0.1-0.6-1.2-0.8-1.9c-1-0.2-1.8,0.2-2.5,1
			c-1.8,2.1-4.4,2-6.8,1.8c-0.7,0-1.5-0.6-1.9-1.1c-0.8-1.1-0.2-4,0.8-5.1c1.9-2.2,3.7-4.6,5.8-6.7c3.2-3.2,4.2-7.1,3.7-11.4
			c-0.2-1.8-0.8-3.6-2.8-4.3c-2.2-0.9-3.1-2.8-3.8-4.8c-0.3-0.9-0.3-1.7-1-2.5c-1.5-1.6-2.7-3.4-4.1-5c-0.9-1-0.7-1.8-0.4-3
			c0.5-2.3,2.5-2.9,4-4c0.2-0.1,0.2-0.4,0.3-0.7c-0.3-0.1-0.6-0.4-0.8-0.3c-2.3,0.9-4.2,2.4-5.7,4.5c-0.2,0.3-0.3,0.8-0.5,1.2
			c-0.2-0.4-0.4-0.8-0.5-1.2c-0.4-1.8,1.3-3.1,1.4-4.6c0.1-1.4,2.4-1.9,1.1-3.6c-0.8,0.8-1.7,1.6-2.5,2.5c-0.1,0.1,0,0.3,0,0.5
			c-0.4,1-1.1,1-1.8,0.4c-0.6-0.5-1.2-1.1-1.7-1.7c-0.9-1.1-3.4-0.9-3.1-2.9c0.2-1.5,1.2-3,1.8-4.5c0.3-0.7,0.8-1.3,1.2-1.9
			c1.1-1.6,1-2-0.6-3.1c-0.3-0.2-0.5-0.7-0.6-1.1c-0.5-0.9-0.9-1.9-1.5-2.7c-0.1-0.1-0.6-0.1-0.9,0c-0.2,0.1-0.3,0.5-0.3,0.6
			c0.4,0.8,1,1.5,1.3,2.3c0.6,1.6,1,3.3-0.2,4.8c-3,3.9-6.9,3.4-10-0.5c-2.3-2.9-3.2-6.5-5.6-9.2c-1.2-1.3-1.1-3.2,0-4.4
			c1.5-1.6,3.2-2.9,4.9-4.3c0.2-0.2,0.5-0.3,0.8-0.5c-0.4-0.2-0.8-0.4-1.2-0.5s-0.9,0-1.4,0.2c-2.2,0.7-2.1,0.6-3.3-1.7
			c-0.3-0.6-1.2-0.9-1.8-1.4c0,1.9-0.1,3.8,0,5.7c0.1,1.6-0.8,2.7-1.5,3.7c-0.5,0.7-2,0.3-2.9-0.7c-0.2-0.2-1,0.1-1.4-0.1
			c-3-1.2-5.9-2.6-7.7-5.4c-1.1-1.7-2.3-3.6-2.7-5.5c-0.8-3.6-2.8-6.3-5.2-8.9c-1.1-1.2-0.9-1.3,0.4-2.2c1.7-1.3,3.6-0.7,5.4-0.9
			c0.4,0,0.7-0.3,1.1-0.5c-0.4-0.1-0.8-0.4-1.3-0.4c-2.1,0-4.3-0.5-6.2,0.1c-1.7,0.6-2.8,0.1-3.9-0.6c-2.9-1.9-6-2.8-9.5-2.5
			c-1.1,0.1-2.4-0.4-3.4-0.9c-1.2-0.6-2.3-1.5-3.4-2.2c1.2-0.7,2.6-1.1,3.8-1.7c2.2-1.1,4.3-0.6,6.4-0.8c5.6-0.4,10.1,2,13.9,5.6
			c1.6,1.6,3.2,2.2,5.4,2c3.7-0.3,5.9,1.9,7.5,4.9c0.5,0.9,0.2,1.5-0.5,2c-0.5,0.3-1.1,0.4-1.6,0.8c-1.1,0.9-2.2,2.7-3.1,2.6
			c-1.3-0.1-2.4-1.7-3.6-2.6c-0.2-0.2-0.6,0-0.9-0.1c0,0.3-0.2,0.8,0,1c2.7,2.6,4.9,5.4,6.2,8.9c0.1,0.2,0.4,0.4,0.5,0.6
			c0.1-0.4,0.4-0.9,0.4-1.3c-0.2-1.2-0.8-2.3-0.9-3.4c0-1.4,3-4.5,4.9-5.5s3.6,0.1,5.1,0.9c2.2,1.2,4.4,2.7,6.3,4.4
			c1.5,1.3,2.5,3.1,3.8,4.6c2.3,2.9,2.6,4.2,0.1,7.1c-1.3,1.5-1.1,3.4-2.2,4.9c-0.1,0.1,0,0.4,0.1,0.4c0.2,0.1,0.6,0.2,0.6,0.1
			c0.4-0.6,0.7-1.3,1.2-1.9c2.4-3.6,6.1-4.7,9-2.5c3.2,2.4,5.2,5.9,6.3,9.8c0.2,0.7,0.3,1.4-1,1.7c-2.2,0.5-2.6,2.8-3.8,4.4
			c-0.1,0.2,0,0.6,0,0.9c0.3-0.1,0.8,0,1-0.2c0.8-0.7,1.6-2.1,2.4-2.1c0.9,0,1.2-1.2,2.7-0.5c2.1,1,4,1.9,5.6,3.8
			c1.6,2,2.5,4.1,2.6,6.6c0.1,3.3,0,6.7,0,10c0.3-0.1,0.7-0.2,0.8-0.3c1-3,0.8-2.7,3.7-1.7c1.5,0.5,1,1.7,1.9,2.3
			c2.3,1.4,1.2,3.7,1.2,5.6c0,1.8-1.9,0.2-2.6,1.1c-0.1,0.1-0.2,0.2-0.3,0.3c-0.2,0.3-0.4,0.7-0.7,1c0.4,0.1,0.9,0.3,1.3,0.2
			c3.5-0.8,6,1.1,6.2,4.5c0.1,2.2-0.3,4.2-1.5,6.1c-2,3.2-3.7,6.6-7.4,8.4c-1,0.5-1.8,1.4-2.7,2.1c0.5,0,1,0.2,1.4,0
			c2.8-1.4,5.4-1.2,7.8,1c0.3,0.2,0.9,0,1.4,0c0.2-1.7-0.7-2.5-2.3-2.9c-0.3-0.1-0.6-1.3-0.5-1.4c2.3-1.9,3.4-4.6,4.7-7.2
			c0.5-1.1,2.3-1.3,2.8-0.3c0.4,0.6,0.9,1.3,0.9,2c0.1,4.8,0.6,9.6-3.1,13.5c-0.2,0.2-0.2,0.7-0.3,1C-5.1,443.6-4.7,443.6-4.2,443.5
			z M3.9,435.5c-1.1,1.1-1.5,0-1.7-0.4c-0.3-0.8-0.4-1.8-0.1-2.5c0.3-0.8,1.1-1.4,1.6-2.2c0.6-1.1,1.7-2.3,0.6-3.7
			c-0.6,0.8-1.1,1.7-1.7,2.5c-0.8,1.2-2,1.2-2.6-0.3c-0.6-1.6-1.3-3-2.4-4.3c-0.5-0.6-0.8-1.9-0.5-2.6c0.8-1.7,1.7-4.1,3.2-4.7
			c2.9-1.2,0.3,3,2.4,3.3c0,0,0,0.3,0,0.5c0.1,0.3,0.3,0.5,0.5,0.8c0.2-0.2,0.4-0.5,0.5-0.7c0.1-0.6,0-1.3,0-1.9
			c0.1-0.4,0.3-0.8,0.5-1.1c0.1,0.4,0.3,0.8,0.4,1.2c1.2,2.5,1.9,5.1,1.9,7.8C6.6,430.1,6.2,433.1,3.9,435.5z"/>
		<path fill="#FFFFFF" d="M-125,357.5c0.1-0.2,0.2-0.5,0.2-0.6c-0.2-0.2-0.5-0.2-0.7-0.3c0,0.1,0,0.3,0,0.4
			C-125.4,357.2-125.2,357.4-125,357.5z"/>
		<path fill="#FFFFFF" d="M-148.6,359.5c0,0.1,0,0.3,0,0.4c0.2,0.1,0.4,0.3,0.6,0.4c0.1-0.2,0.2-0.5,0.2-0.6
			C-148,359.7-148.3,359.6-148.6,359.5z"/>
		<path fill="#FFFFFF" d="M-89.3,362.8c-0.2-0.1-0.5-0.2-0.6-0.2c-0.2,0.2-0.2,0.5-0.3,0.7c0.1,0,0.3,0,0.4,0
			C-89.6,363.2-89.4,363-89.3,362.8z"/>
		<path fill="#FFFFFF" d="M-73,432.7c-0.2-0.1-0.5-0.2-0.6-0.2c-0.2,0.2-0.2,0.5-0.3,0.7c0.1,0,0.3,0,0.4,0
			C-73.3,433.1-73.2,432.9-73,432.7z"/>
		<path fill="#FFFFFF" d="M-91.2,426.9c-0.2-0.1-0.5-0.2-0.6-0.2c-0.2,0.2-0.2,0.5-0.3,0.7c0.1,0,0.3,0,0.4,0
			C-91.5,427.3-91.4,427.1-91.2,426.9z"/>
		<path fill="#FFFFFF" d="M-103,423.6c0.1-0.2,0.2-0.5,0.2-0.6c-0.2-0.2-0.5-0.2-0.7-0.3c0,0.1,0,0.3,0,0.4
			C-103.4,423.3-103.2,423.4-103,423.6z"/>
		<path fill="#FFFFFF" d="M-132.2,372.5c0.1,0.1,0.3,0.3,0.3,0.3c0.2-0.1,0.4-0.3,0.6-0.4c-0.1-0.1-0.3-0.3-0.4-0.4
			C-131.9,372.2-132.1,372.3-132.2,372.5z"/>
		<path fill="#FFFFFF" d="M-120.9,370.4c-0.2-0.1-0.5-0.2-0.6-0.2c-0.2,0.2-0.2,0.5-0.3,0.7c0.1,0,0.3,0,0.4,0
			C-121.2,370.8-121,370.6-120.9,370.4z"/>
		<path fill="#FFFFFF" d="M-114.9,369.5c0.1,0.2,0.3,0.4,0.4,0.6c0.1-0.1,0.3-0.3,0.4-0.4c-0.2-0.2-0.4-0.3-0.6-0.5
			C-114.8,369.3-115,369.4-114.9,369.5z"/>
		<path fill="#FFFFFF" d="M-30.8,418.4c-2.6,1.1-5.1,0.6-7.4-0.7c-1.6-0.9-1.5-2.4-0.4-3.9c1-1.5,2.7-1.3,4-2c0.6-0.4,1.3-0.7,1.9-1
			c-0.9-0.1-1.8-0.4-2.6-0.1c-1.7,0.5-3.4,1.1-4.9,2c-1,0.7-1.6,0.6-2.4-0.2c-1.2-1.3-2.4-2.5-3.7-3.7c-1.1-1.1-1.1-2.1-0.2-3.3
			c1.1-1.4,2.3-2.9,3.4-4.3c0.2-0.3,0.5-0.7,0.7-1c-0.4-0.1-0.9-0.3-1.3-0.3c-0.4,0-1,0.1-1.3,0.4c-0.6,0.5-1,0.7-1.1-0.3
			c0-0.8,0-1.6,0-2.4c0-0.1-0.2-0.4-0.3-0.3c-0.2,0-0.6,0.1-0.7,0.3c-1.1,1.8-1,3.8-1,5.8c0,0.5-0.5,1.3-0.8,1.3
			c-1.9,0-3.8,0.1-5.6-0.3c-1.6-0.3-3.5-0.7-4.4-1.8c-0.8-1-0.4-2.9-0.6-4.5c-0.4-3.9-2.4-6.8-5.8-8.8c-0.5-0.3-1.1-0.6-1.4-1.1
			c-0.3-0.4-0.3-1.3-0.1-1.6c1-0.9,2.2-1.6,3.3-2.4c0.6-0.5,1.3-0.9,1.9-1.4c-0.9-0.1-2-0.5-2.7-0.2c-1.4,0.6-3.4,1.3-3.6,2.4
			c-0.7,2.7-2.6,2.3-4.4,2.3c-0.8,0-1.6-0.1-2.4,0c-0.3,0-0.6,0.4-0.9,0.6c0.3,0.1,0.5,0.3,0.8,0.3c3.3-0.1,6.1,1.5,8.8,3
			c3.5,2,4.5,5.7,4.5,9.4c0,3.2-2.1,5.4-5.1,7c-1.4,0.8-2.6,0.6-4,0.8c-0.8,0-1.6,0.1-2.4,0s-1.6-0.5-2.4-0.8c0.6,0.8,1,1.6,1.7,2.3
			c0.3,0.3,0.9,0.2,1.2,0.4c0.3,0.3,0.6,0.8,0.5,1.1c0,0.3-0.6,0.7-0.9,0.7c-1.9,0.1-3.8,0-5.7,0c-0.3,0-0.5,0.2-0.8,0.3
			c0.1,0.2,0.3,0.5,0.5,0.6c2.1,0.7,4,1.3,6.5,0.3c3-1.1,5.1-3.3,7.5-5c5.4-3.9,9.8-1.9,12.8,2c0.5,0.7,0.6,1.7,0.9,2.6
			c-0.7-0.3-1.3-0.8-2-0.8c-1.1-0.1-2.1,0.1-3.2,0.2c0.4,1.4,1.9,1.1,2.8,1.7c2.4,1.6,5.2,3.2,4.8,6.8c-0.1,0.5,0.3,1.1,0.5,1.6
			c0.1-0.6,0.3-1.2,0.4-1.7c1.1-3.8,1.1-3.8-1.7-10c-0.2-0.4-0.1-0.9-0.1-1.3c0.3,0.1,0.8,0.1,1,0.3c2.5,2.5,4.9,5,7.5,7.4
			c2.1,2,4.6,3.6,7.7,3.4c1.2-0.1,2.3-0.6,3.4-1c0.3-0.1,0.3-0.8,0.4-1.2C-30.2,418.5-30.5,418.3-30.8,418.4z"/>
		<path fill="#FFFFFF" d="M-54.4,394.8c0.2-0.1,0.4-0.3,0.6-0.4c-0.1-0.1-0.3-0.3-0.4-0.4c-0.2,0.2-0.3,0.4-0.5,0.6
			C-54.5,394.7-54.4,394.9-54.4,394.8z"/>
		<path fill="#FFFFFF" d="M-18.8,408.4c-0.2,0.3-0.4,0.7-0.6,1c0.2,0.4,0.3,0.6,0.5,0.9c0.2-0.5,0.4-0.9,0.5-1.4
			C-18.4,408.7-18.7,408.5-18.8,408.4z"/>
		<path fill="#FFFFFF" d="M-19.2,438c-0.3,0.1-0.7,0.3-1.4,0.6c0.8,0.2,1.3,0.4,1.6,0.3s0.5-0.6,0.7-0.9C-18.7,438-19,438-19.2,438z
			"/>
		<path fill="#FFFFFF" d="M-55.6,363.7c0.1,0.2,0.3,0.4,0.4,0.6c0.1-0.1,0.3-0.3,0.4-0.4c-0.2-0.2-0.4-0.3-0.6-0.5
			C-55.4,363.5-55.6,363.7-55.6,363.7z"/>
		<path fill="#FFFFFF" d="M-13.7,442.2c-0.2-0.1-0.5-0.2-0.6-0.2c-0.2,0.2-0.2,0.5-0.3,0.7c0.1,0,0.3,0,0.4,0
			C-14,442.6-13.8,442.4-13.7,442.2z"/>
		<path fill="#FFFFFF" d="M-7.3,439.9c0.1-0.2,0.2-0.5,0.2-0.6c-0.2-0.2-0.5-0.2-0.7-0.3c0,0.1,0,0.3,0,0.4
			C-7.6,439.6-7.5,439.7-7.3,439.9z"/>
		<path fill="#FFFFFF" d="M-131.7,423.6c0.1-0.2,0.2-0.5,0.2-0.6c-0.2-0.2-0.5-0.2-0.7-0.3c0,0.1,0,0.3,0,0.4
			C-132.1,423.3-131.9,423.4-131.7,423.6z"/>
		<path fill="#FFFFFF" d="M-131.4,412.6c-0.2-0.1-0.5-0.2-0.6-0.2c-0.2,0.2-0.2,0.5-0.3,0.7c0.1,0,0.3,0,0.4,0
			C-131.7,412.9-131.6,412.8-131.4,412.6z"/>
		<path fill="#FFFFFF" d="M-57.7,345.6c-0.4-0.1-0.8-0.3-1.2-0.4c-0.2,0-0.4,0.3-0.7,0.5c0.3,0.2,0.5,0.4,0.9,0.6
			C-58.3,346-58,345.8-57.7,345.6z"/>
		<path fill="#FFFFFF" d="M-100.1,333.6c0.1-0.2,0.2-0.5,0.2-0.6c-0.2-0.2-0.5-0.2-0.7-0.3c0,0.1,0,0.3,0,0.4
			C-100.5,333.3-100.3,333.4-100.1,333.6z"/>
		<path fill="#FFFFFF" d="M-24.5,368.1c0.1-0.2,0.2-0.5,0.2-0.6c-0.2-0.2-0.5-0.2-0.7-0.3c0,0.1,0,0.3,0,0.4
			C-24.9,367.8-24.7,367.9-24.5,368.1z"/>
		<path fill="#FFFFFF" d="M-13.6,379.2c-0.2-0.2-0.4-0.3-0.6-0.5c-0.1,0.1-0.3,0.3-0.3,0.3c0.1,0.2,0.3,0.4,0.4,0.6
			C-13.9,379.5-13.7,379.3-13.6,379.2z"/>
		<path fill="#FFFFFF" d="M-50.9,456.3c-0.1-0.3-0.3-0.7-0.6-1.4c-0.2,0.8-0.4,1.3-0.3,1.6c0.1,0.3,0.6,0.5,0.9,0.7
			C-50.9,456.9-50.9,456.6-50.9,456.3z"/>
		<path fill="#FFFFFF" d="M-41.7,455.2c0.1-0.2,0.2-0.5,0.2-0.6c-0.2-0.2-0.5-0.2-0.7-0.3c0,0.1,0,0.3,0,0.4
			C-42.1,454.9-41.9,455-41.7,455.2z"/>
		<path fill="#FFFFFF" d="M-166.5,419.1c-0.2,0.2-0.2,0.5-0.3,0.7c0.1,0,0.3,0,0.4,0c0.1-0.2,0.3-0.4,0.4-0.6
			C-166.1,419.2-166.4,419.1-166.5,419.1z"/>
	</g>
</g>
</svg>
