<?xml version="1.0" encoding="utf-8"?>
<!-- Generator: Adobe Illustrator 19.0.1, SVG Export Plug-In . SVG Version: 6.00 Build 0)  -->
<!DOCTYPE svg PUBLIC "-//W3C//DTD SVG 1.1//EN" "http://www.w3.org/Graphics/SVG/1.1/DTD/svg11.dtd">
<svg version="1.1" id="Chess" xmlns="http://www.w3.org/2000/svg" xmlns:xlink="http://www.w3.org/1999/xlink" x="0px" y="0px"
	 viewBox="0 0 203.7 216.5" enable-background="new 0 0 203.7 216.5" xml:space="preserve">
<g id="Chess_Group" opacity="0.4">
	<g id="XMLID_162_">
		<g id="XMLID_181_">
			
				<rect id="XMLID_187_" x="20.2" y="35.7" fill-rule="evenodd" clip-rule="evenodd" fill="#FFFFFF" stroke="#FFFFFF" stroke-width="1.0001" stroke-miterlimit="22.9256" width="40.8" height="40.8"/>
			
				<rect id="XMLID_186_" x="61" y="76.5" fill-rule="evenodd" clip-rule="evenodd" fill="#FFFFFF" stroke="#FFFFFF" stroke-width="1.0001" stroke-miterlimit="22.9256" width="40.8" height="40.8"/>
			
				<rect id="XMLID_185_" x="101.8" y="35.7" fill-rule="evenodd" clip-rule="evenodd" fill="#FFFFFF" stroke="#FFFFFF" stroke-width="1.0001" stroke-miterlimit="22.9256" width="40.8" height="40.8"/>
			
				<rect id="XMLID_184_" x="142.6" y="76.5" fill-rule="evenodd" clip-rule="evenodd" fill="#FFFFFF" stroke="#FFFFFF" stroke-width="1.0001" stroke-miterlimit="22.9256" width="40.8" height="40.8"/>
			
				<rect id="XMLID_183_" x="101.8" y="117.3" fill-rule="evenodd" clip-rule="evenodd" fill="#FFFFFF" stroke="#FFFFFF" stroke-width="1.0001" stroke-miterlimit="22.9256" width="40.8" height="40.8"/>
			
				<rect id="XMLID_182_" x="142.6" y="158.1" fill-rule="evenodd" clip-rule="evenodd" fill="#FFFFFF" stroke="#FFFFFF" stroke-width="1.0001" stroke-miterlimit="22.9256" width="40.8" height="40.8"/>
		</g>
		<g id="XMLID_172_">
			
				<polyline id="XMLID_180_" fill-rule="evenodd" clip-rule="evenodd" fill="none" stroke="#FFFFFF" stroke-width="1.0001" stroke-miterlimit="22.9256" points="
				183.4,216.5 183.4,198.9 203.7,198.9 			"/>
			
				<polyline id="XMLID_179_" fill-rule="evenodd" clip-rule="evenodd" fill="none" stroke="#FFFFFF" stroke-width="1.0001" stroke-miterlimit="22.9256" points="
				203.7,117.3 183.4,117.3 183.4,158.1 203.7,158.1 			"/>
			
				<polyline id="XMLID_178_" fill-rule="evenodd" clip-rule="evenodd" fill="none" stroke="#FFFFFF" stroke-width="1.0001" stroke-miterlimit="22.9256" points="
				203.7,35.7 183.4,35.7 183.4,76.5 203.7,76.5 			"/>
			
				<polyline id="XMLID_177_" fill-rule="evenodd" clip-rule="evenodd" fill="none" stroke="#FFFFFF" stroke-width="1.0001" stroke-miterlimit="22.9256" points="
				101.8,18.1 101.8,35.7 61,35.7 61,18.1 			"/>
			
				<polyline id="XMLID_176_" fill-rule="evenodd" clip-rule="evenodd" fill="none" stroke="#FFFFFF" stroke-width="1.0001" stroke-miterlimit="22.9256" points="
				183.4,18.1 183.4,35.7 142.6,35.7 142.6,18.1 			"/>
			
				<polyline id="XMLID_175_" fill-rule="evenodd" clip-rule="evenodd" fill="none" stroke="#FFFFFF" stroke-width="1.0001" stroke-miterlimit="22.9256" points="
				61,175.7 61,158.1 101.8,158.1 101.8,175.7 			"/>
			
				<polyline id="XMLID_174_" fill-rule="evenodd" clip-rule="evenodd" fill="none" stroke="#FFFFFF" stroke-width="1.0001" stroke-miterlimit="22.9256" points="
				61,117.3 61,158.1 43.4,158.1 			"/>
			
				<polyline id="XMLID_173_" fill-rule="evenodd" clip-rule="evenodd" fill="none" stroke="#FFFFFF" stroke-width="1.0001" stroke-miterlimit="22.9256" points="
				20.2,134.9 20.2,117.3 61,117.3 			"/>
		</g>
		<g id="XMLID_163_">
			
				<text id="XMLID_171_" transform="matrix(0 -1 1 0 195.4639 57.7676)" fill="#FFFFFF" font-family="'ArialMT'" font-size="7.7249px">a</text>
			
				<text id="XMLID_170_" transform="matrix(0 -1 1 0 195.4639 99.2754)" fill="#FFFFFF" font-family="'ArialMT'" font-size="7.7249px">b</text>
			
				<text id="XMLID_169_" transform="matrix(0 -1 1 0 195.4639 140.5664)" fill="#FFFFFF" font-family="'ArialMT'" font-size="7.7249px">c</text>
			
				<text id="XMLID_168_" transform="matrix(0 -1 1 0 195.4639 182.29)" fill="#FFFFFF" font-family="'ArialMT'" font-size="7.7249px">d</text>
			<text id="XMLID_167_" transform="matrix(1 0 0 1 158.5156 28.0732)"><tspan x="0" y="0" fill="#FFFFFF" font-family="'ArialMT'" font-size="7.7249px">1</tspan><tspan x="4.3" y="0" fill="#FFFFFF" font-family="'ArialMT'" font-size="7.7249px">0</tspan></text>
			
				<text id="XMLID_166_" transform="matrix(1 0 0 1 119.8389 28.0732)" fill="#FFFFFF" font-family="'ArialMT'" font-size="7.7249px">9</text>
			
				<text id="XMLID_165_" transform="matrix(1 0 0 1 79.0693 28.0732)" fill="#FFFFFF" font-family="'ArialMT'" font-size="7.7249px">8</text>
			<text id="XMLID_164_" transform="matrix(1 0 0 1 38.374 28.0731)" fill="#FFFFFF" font-family="'ArialMT'" font-size="7.7249px">7</text>
		</g>
	</g>
	<g id="XMLID_62_">
		<g id="XMLID_158_">
			
				<ellipse id="XMLID_161_" transform="matrix(-0.9213 -0.389 0.389 -0.9213 1.979 191.1738)" fill-rule="evenodd" clip-rule="evenodd" fill="none" stroke="#23A7E0" stroke-width="2.0001" stroke-miterlimit="22.9256" cx="20.3" cy="95.4" rx="17.8" ry="26.5"/>
			<path id="XMLID_159_" fill-rule="evenodd" clip-rule="evenodd" fill="#FFFFFF" d="M4,88.5C9.7,75,21.6,67.1,30.7,70.9
				c9,3.8,11.7,17.9,6,31.4C31,115.8,19,123.7,10,119.8S-1.7,102,4,88.5z"/>
		</g>
		<g id="XMLID_154_">
			
				<ellipse id="XMLID_157_" transform="matrix(-0.9213 -0.389 0.389 -0.9213 9.7906 196.5093)" fill-rule="evenodd" clip-rule="evenodd" fill="none" stroke="#23A7E0" stroke-width="2.0001" stroke-miterlimit="22.9256" cx="24.8" cy="97.3" rx="17.8" ry="26.5"/>
			<path id="XMLID_155_" fill-rule="evenodd" clip-rule="evenodd" fill="#FFFFFF" d="M8.4,90.4C14.1,76.9,26.1,69,35.1,72.8
				c9,3.8,11.7,17.9,6,31.4s-17.6,21.4-26.7,17.5C5.4,117.9,2.7,103.9,8.4,90.4z"/>
		</g>
		<g id="XMLID_150_">
			
				<ellipse id="XMLID_153_" transform="matrix(-0.9213 -0.389 0.389 -0.9213 13.6986 199.1787)" fill-rule="evenodd" clip-rule="evenodd" fill="none" stroke="#23A7E0" stroke-width="2.0001" stroke-miterlimit="22.9256" cx="27" cy="98.2" rx="15.9" ry="25"/>
			<path id="XMLID_151_" fill-rule="evenodd" clip-rule="evenodd" fill="#FFFFFF" d="M12.4,92c5.4-12.7,16.3-20.3,24.3-16.9
				c8.1,3.4,10.3,16.5,4.9,29.2c-5.4,12.7-16.3,20.3-24.3,16.9C9.2,117.8,7,104.7,12.4,92z"/>
		</g>
		<g id="XMLID_146_">
			
				<ellipse id="XMLID_149_" transform="matrix(-0.9213 -0.389 0.389 -0.9213 32.1111 211.7551)" fill-rule="evenodd" clip-rule="evenodd" fill="none" stroke="#23A7E0" stroke-width="2.0001" stroke-miterlimit="22.9256" cx="37.5" cy="102.6" rx="11.3" ry="17.1"/>
			<path id="XMLID_147_" fill-rule="evenodd" clip-rule="evenodd" fill="#FFFFFF" d="M27.1,98.2c3.7-8.7,11.3-13.8,17-11.3
				c5.7,2.4,7.4,11.4,3.7,20.1c-3.7,8.7-11.3,13.8-17,11.3C25.1,115.9,23.5,106.9,27.1,98.2z"/>
		</g>
		<g id="XMLID_142_">
			
				<path id="XMLID_145_" fill-rule="evenodd" clip-rule="evenodd" fill="none" stroke="#23A7E0" stroke-width="2.0001" stroke-miterlimit="22.9256" d="
				M37.1,117c5.4,2.3,13-0.5,20.7,2.9l6.3-14.9c-7.8-3.1-11.2-10.5-16.6-12.8C34.7,86.8,24.2,111.6,37.1,117z"/>
			<path id="XMLID_143_" fill-rule="evenodd" clip-rule="evenodd" fill="#FFFFFF" d="M37.1,117c5.4,2.3,13-0.5,20.7,2.9l6.3-14.9
				c-7.8-3.1-11.2-10.5-16.6-12.8C34.7,86.8,24.2,111.6,37.1,117z"/>
		</g>
		<g id="XMLID_138_">
			
				<ellipse id="XMLID_141_" transform="matrix(-0.9213 -0.389 0.389 -0.9213 91.1189 252.0604)" fill-rule="evenodd" clip-rule="evenodd" fill="none" stroke="#23A7E0" stroke-width="2.0001" stroke-miterlimit="22.9256" cx="71.1" cy="116.8" rx="12.5" ry="17.7"/>
			<path id="XMLID_139_" fill-rule="evenodd" clip-rule="evenodd" fill="#FFFFFF" d="M59.5,111.9c3.8-9,12-14.1,18.4-11.4
				c6.4,2.7,8.4,12.2,4.6,21.2c-3.8,9-12,14.1-18.4,11.4C57.8,130.4,55.7,120.9,59.5,111.9z"/>
		</g>
		<g id="XMLID_134_">
			
				<ellipse id="XMLID_137_" transform="matrix(-0.9213 -0.389 0.389 -0.9213 93.5603 253.7279)" fill-rule="evenodd" clip-rule="evenodd" fill="none" stroke="#23A7E0" stroke-width="2.0001" stroke-miterlimit="22.9256" cx="72.5" cy="117.4" rx="11.4" ry="17.4"/>
			<path id="XMLID_135_" fill-rule="evenodd" clip-rule="evenodd" fill="#FFFFFF" d="M61.9,112.9c3.7-8.9,11.5-14,17.3-11.6
				c5.8,2.5,7.5,11.6,3.8,20.5c-3.7,8.9-11.5,14-17.3,11.6C59.9,131,58.2,121.8,61.9,112.9z"/>
		</g>
		<g id="XMLID_130_">
			
				<ellipse id="XMLID_133_" transform="matrix(-0.9213 -0.389 0.389 -0.9213 98.8622 257.3489)" fill-rule="evenodd" clip-rule="evenodd" fill="none" stroke="#23A7E0" stroke-width="2.0001" stroke-miterlimit="22.9256" cx="75.5" cy="118.7" rx="8.5" ry="13.6"/>
			<path id="XMLID_131_" fill-rule="evenodd" clip-rule="evenodd" fill="#FFFFFF" d="M67.6,115.3c2.9-6.9,8.8-11.1,13.2-9.2
				c4.3,1.8,5.5,8.9,2.6,15.9c-2.9,6.9-8.8,11.1-13.2,9.2C65.8,129.4,64.7,122.3,67.6,115.3z"/>
		</g>
		<g id="XMLID_126_">
			
				<path id="XMLID_129_" fill-rule="evenodd" clip-rule="evenodd" fill="none" stroke="#23A7E0" stroke-width="2.0001" stroke-miterlimit="22.9256" d="
				M83.4,109.1c3.8,1.6,9.4-1.7,16.1-0.9l-14.7,34.9c-5.3-4.3-6.8-10.6-10.6-12.2C65,127.2,74.3,105.2,83.4,109.1z"/>
			<path id="XMLID_127_" fill-rule="evenodd" clip-rule="evenodd" fill="#FFFFFF" d="M83.4,109.1c3.8,1.6,9.4-1.7,16.1-0.9
				l-14.7,34.9c-5.3-4.3-6.8-10.6-10.6-12.2C65,127.2,74.3,105.2,83.4,109.1z"/>
		</g>
		<g id="XMLID_122_">
			
				<ellipse id="XMLID_125_" transform="matrix(-0.9213 -0.389 0.389 -0.9213 133.1746 280.7869)" fill-rule="evenodd" clip-rule="evenodd" fill="none" stroke="#23A7E0" stroke-width="2.0001" stroke-miterlimit="22.9256" cx="95" cy="126.9" rx="11.4" ry="19.6"/>
			<path id="XMLID_123_" fill-rule="evenodd" clip-rule="evenodd" fill="#FFFFFF" d="M84.5,122.5c4.2-10,12.4-16.1,18.2-13.6
				c5.8,2.5,7.1,12.6,2.9,22.6c-4.2,10-12.4,16.1-18.2,13.6C81.5,142.6,80.2,132.5,84.5,122.5z"/>
		</g>
		<g id="XMLID_118_">
			
				<ellipse id="XMLID_121_" transform="matrix(-0.9213 -0.389 0.389 -0.9213 143.2182 287.6469)" fill-rule="evenodd" clip-rule="evenodd" fill="none" stroke="#23A7E0" stroke-width="2.0001" stroke-miterlimit="22.9256" cx="100.7" cy="129.3" rx="7" ry="11.2"/>
			<path id="XMLID_119_" fill-rule="evenodd" clip-rule="evenodd" fill="#FFFFFF" d="M94.3,126.6c2.4-5.7,7.3-9.1,10.8-7.6
				c3.6,1.5,4.5,7.4,2.1,13.1c-2.4,5.7-7.3,9.1-10.8,7.6C92.8,138.1,91.9,132.3,94.3,126.6z"/>
		</g>
		<g id="XMLID_69_">
			<g id="XMLID_114_">
				
					<polygon id="XMLID_117_" fill-rule="evenodd" clip-rule="evenodd" fill="none" stroke="#23A7E0" stroke-width="2.0001" stroke-linejoin="bevel" stroke-miterlimit="22.9256" points="
					97.1,135.4 98.1,136.9 103.1,137.5 102.1,136 				"/>
				<path id="XMLID_115_" fill-rule="evenodd" clip-rule="evenodd" fill="#FFFFFF" d="M97.1,135.4l1,1.5l4.9,0.7l-1-1.5L97.1,135.4z
					"/>
			</g>
			<g id="XMLID_110_">
				
					<polygon id="XMLID_113_" fill-rule="evenodd" clip-rule="evenodd" fill="none" stroke="#23A7E0" stroke-width="2.0001" stroke-linejoin="bevel" stroke-miterlimit="22.9256" points="
					99.3,139.1 100.3,140.6 100.4,140.8 100.6,140.9 100.7,141.1 100.9,141.3 101.1,141.5 101.4,141.6 101.6,141.8 101.8,142 
					102.1,142.1 102.4,142.3 102.6,142.5 102.9,142.6 103.2,142.8 103.5,142.9 103.8,143 104.1,143.2 104.4,143.3 104.7,143.4 
					105.1,143.5 105.4,143.6 105.7,143.7 106,143.8 106.3,143.9 106.6,144 106.9,144.1 107.2,144.1 107.5,144.2 107.8,144.2 
					108.1,144.2 108.3,144.2 108.6,144.2 108.9,144.2 107.9,142.7 107.6,142.7 107.4,142.7 107.1,142.7 106.8,142.7 106.5,142.7 
					106.2,142.6 105.9,142.6 105.6,142.5 105.3,142.4 105,142.3 104.7,142.3 104.4,142.2 104.1,142 103.8,141.9 103.4,141.8 
					103.1,141.7 102.8,141.5 102.5,141.4 102.2,141.3 101.9,141.1 101.6,141 101.4,140.8 101.1,140.6 100.8,140.5 100.6,140.3 
					100.4,140.1 100.2,140 99.9,139.8 99.8,139.6 99.6,139.4 99.4,139.3 				"/>
				<path id="XMLID_111_" fill-rule="evenodd" clip-rule="evenodd" fill="#FFFFFF" d="M99.3,139.1l1,1.5l0.1,0.2l0.2,0.2l0.2,0.2
					l0.2,0.2l0.2,0.2l0.2,0.2l0.2,0.2l0.2,0.2l0.3,0.2l0.3,0.2l0.3,0.2l0.3,0.2l0.3,0.1l0.3,0.1l0.3,0.1l0.3,0.1l0.3,0.1l0.3,0.1
					l0.3,0.1l0.3,0.1l0.3,0.1l0.3,0.1l0.3,0.1l0.3,0.1l0.3,0.1l0.3,0.1l0.3,0l0.3,0l0.3,0l0.3,0l0.3,0l0.2,0l-1-1.5l-0.2,0l-0.3,0
					l-0.3,0l-0.3,0l-0.3,0l-0.3,0l-0.3-0.1l-0.3-0.1l-0.3-0.1l-0.3-0.1l-0.3-0.1l-0.3-0.1l-0.3-0.1l-0.3-0.1l-0.3-0.1l-0.3-0.1
					l-0.3-0.1l-0.3-0.1l-0.3-0.1l-0.3-0.1l-0.3-0.2l-0.3-0.2l-0.3-0.2l-0.3-0.2l-0.2-0.2l-0.2-0.2l-0.2-0.2l-0.2-0.2l-0.2-0.2
					l-0.2-0.2l-0.2-0.2L99.3,139.1z"/>
			</g>
			<g id="XMLID_106_">
				
					<polygon id="XMLID_109_" fill-rule="evenodd" clip-rule="evenodd" fill="none" stroke="#23A7E0" stroke-width="2.0001" stroke-linejoin="bevel" stroke-miterlimit="22.9256" points="
					107.9,142.7 108.9,144.2 110,140.5 109.1,139 				"/>
				<path id="XMLID_107_" fill-rule="evenodd" clip-rule="evenodd" fill="#FFFFFF" d="M107.9,142.7l1,1.5l1.2-3.7l-1-1.5
					L107.9,142.7z"/>
			</g>
			<g id="XMLID_102_">
				
					<polygon id="XMLID_105_" fill-rule="evenodd" clip-rule="evenodd" fill="none" stroke="#23A7E0" stroke-width="2.0001" stroke-linejoin="bevel" stroke-miterlimit="22.9256" points="
					109.1,139 110,140.5 113.7,143.4 112.7,141.9 				"/>
				<path id="XMLID_103_" fill-rule="evenodd" clip-rule="evenodd" fill="#FFFFFF" d="M109.1,139l1,1.5l3.6,2.9l-1-1.5L109.1,139z"
					/>
			</g>
			<g id="XMLID_98_">
				
					<polygon id="XMLID_101_" fill-rule="evenodd" clip-rule="evenodd" fill="none" stroke="#23A7E0" stroke-width="2.0001" stroke-linejoin="bevel" stroke-miterlimit="22.9256" points="
					112.7,141.9 113.7,143.4 114,143.2 114.4,143 114.7,142.7 115.1,142.4 115.5,142.1 115.8,141.8 116.1,141.4 116.5,141.1 
					116.8,140.7 117.1,140.4 117.4,140 117.7,139.6 118,139.1 118.3,138.7 118.6,138.3 118.8,137.9 119.1,137.4 119.3,137 
					119.6,136.5 119.8,136.1 120,135.6 120.1,135.2 120.3,134.8 120.4,134.3 120.6,133.9 120.7,133.4 120.8,133 120.8,132.6 
					120.9,132.2 120.9,131.8 120.9,131.4 120.9,131 119.9,129.5 120,129.9 119.9,130.3 119.9,130.7 119.9,131.1 119.8,131.5 
					119.7,131.9 119.6,132.4 119.5,132.8 119.3,133.3 119.2,133.7 119,134.2 118.8,134.6 118.6,135 118.3,135.5 118.1,135.9 
					117.9,136.4 117.6,136.8 117.3,137.2 117,137.7 116.8,138.1 116.5,138.5 116.1,138.9 115.8,139.2 115.5,139.6 115.2,140 
					114.8,140.3 114.5,140.6 114.1,140.9 113.8,141.2 113.4,141.5 113,141.7 				"/>
				<path id="XMLID_99_" fill-rule="evenodd" clip-rule="evenodd" fill="#FFFFFF" d="M112.7,141.9l1,1.5l0.4-0.2l0.4-0.2l0.4-0.3
					l0.4-0.3l0.4-0.3l0.3-0.3l0.3-0.3l0.3-0.4l0.3-0.4l0.3-0.4l0.3-0.4l0.3-0.4l0.3-0.4l0.3-0.4l0.3-0.4l0.3-0.4l0.2-0.4l0.2-0.4
					l0.2-0.4l0.2-0.4l0.2-0.4l0.2-0.4l0.2-0.4l0.1-0.4l0.1-0.4l0.1-0.4l0.1-0.4l0.1-0.4l0.1-0.4l0-0.4l0-0.4l0-0.4l-1-1.5l0,0.4
					l0,0.4l0,0.4l-0.1,0.4l-0.1,0.4l-0.1,0.4l-0.1,0.4l-0.1,0.4l-0.1,0.4l-0.2,0.4l-0.2,0.4l-0.2,0.4l-0.2,0.4l-0.2,0.4l-0.2,0.4
					l-0.2,0.4l-0.3,0.4l-0.3,0.4l-0.3,0.4l-0.3,0.4l-0.3,0.4l-0.3,0.4l-0.3,0.4l-0.3,0.4l-0.3,0.4l-0.3,0.3l-0.3,0.3l-0.4,0.3
					l-0.4,0.3l-0.4,0.3l-0.4,0.2L112.7,141.9z"/>
			</g>
			<g id="XMLID_94_">
				
					<polygon id="XMLID_97_" fill-rule="evenodd" clip-rule="evenodd" fill="none" stroke="#23A7E0" stroke-width="2.0001" stroke-linejoin="bevel" stroke-miterlimit="22.9256" points="
					115,128.8 116,130.3 118.8,127.3 117.8,125.8 				"/>
				<path id="XMLID_95_" fill-rule="evenodd" clip-rule="evenodd" fill="#FFFFFF" d="M115,128.8l1,1.5l2.8-3.1l-1-1.5L115,128.8z"/>
			</g>
			<g id="XMLID_90_">
				
					<polygon id="XMLID_93_" fill-rule="evenodd" clip-rule="evenodd" fill="none" stroke="#23A7E0" stroke-width="2.0001" stroke-linejoin="bevel" stroke-miterlimit="22.9256" points="
					97.1,135.4 98.1,136.9 103.1,137.5 102.1,136 				"/>
				<path id="XMLID_91_" fill-rule="evenodd" clip-rule="evenodd" fill="#FFFFFF" d="M97.1,135.4l1,1.5l4.9,0.7l-1-1.5L97.1,135.4z"
					/>
			</g>
			<g id="XMLID_86_">
				
					<polygon id="XMLID_89_" fill-rule="evenodd" clip-rule="evenodd" fill="none" stroke="#23A7E0" stroke-width="2.0001" stroke-linejoin="bevel" stroke-miterlimit="22.9256" points="
					99.3,139.1 100.3,140.6 100.4,140.8 100.6,140.9 100.7,141.1 100.9,141.3 101.1,141.5 101.4,141.6 101.6,141.8 101.8,142 
					102.1,142.1 102.4,142.3 102.6,142.5 102.9,142.6 103.2,142.8 103.5,142.9 103.8,143 104.1,143.2 104.4,143.3 104.7,143.4 
					105.1,143.5 105.4,143.6 105.7,143.7 106,143.8 106.3,143.9 106.6,144 106.9,144.1 107.2,144.1 107.5,144.2 107.8,144.2 
					108.1,144.2 108.3,144.2 108.6,144.2 108.9,144.2 107.9,142.7 107.6,142.7 107.4,142.7 107.1,142.7 106.8,142.7 106.5,142.7 
					106.2,142.6 105.9,142.6 105.6,142.5 105.3,142.4 105,142.3 104.7,142.3 104.4,142.2 104.1,142 103.8,141.9 103.4,141.8 
					103.1,141.7 102.8,141.5 102.5,141.4 102.2,141.3 101.9,141.1 101.6,141 101.4,140.8 101.1,140.6 100.8,140.5 100.6,140.3 
					100.4,140.1 100.2,140 99.9,139.8 99.8,139.6 99.6,139.4 99.4,139.3 				"/>
				<path id="XMLID_87_" fill-rule="evenodd" clip-rule="evenodd" fill="#FFFFFF" d="M99.3,139.1l1,1.5l0.1,0.2l0.2,0.2l0.2,0.2
					l0.2,0.2l0.2,0.2l0.2,0.2l0.2,0.2l0.2,0.2l0.3,0.2l0.3,0.2l0.3,0.2l0.3,0.2l0.3,0.1l0.3,0.1l0.3,0.1l0.3,0.1l0.3,0.1l0.3,0.1
					l0.3,0.1l0.3,0.1l0.3,0.1l0.3,0.1l0.3,0.1l0.3,0.1l0.3,0.1l0.3,0.1l0.3,0l0.3,0l0.3,0l0.3,0l0.3,0l0.2,0l-1-1.5l-0.2,0l-0.3,0
					l-0.3,0l-0.3,0l-0.3,0l-0.3,0l-0.3-0.1l-0.3-0.1l-0.3-0.1l-0.3-0.1l-0.3-0.1l-0.3-0.1l-0.3-0.1l-0.3-0.1l-0.3-0.1l-0.3-0.1
					l-0.3-0.1l-0.3-0.1l-0.3-0.1l-0.3-0.1l-0.3-0.2l-0.3-0.2l-0.3-0.2l-0.3-0.2l-0.2-0.2l-0.2-0.2l-0.2-0.2l-0.2-0.2l-0.2-0.2
					l-0.2-0.2l-0.2-0.2L99.3,139.1z"/>
			</g>
			<g id="XMLID_82_">
				
					<polygon id="XMLID_85_" fill-rule="evenodd" clip-rule="evenodd" fill="none" stroke="#23A7E0" stroke-width="2.0001" stroke-linejoin="bevel" stroke-miterlimit="22.9256" points="
					107.9,142.7 108.9,144.2 110,140.5 109.1,139 				"/>
				<path id="XMLID_83_" fill-rule="evenodd" clip-rule="evenodd" fill="#FFFFFF" d="M107.9,142.7l1,1.5l1.2-3.7l-1-1.5L107.9,142.7
					z"/>
			</g>
			<g id="XMLID_78_">
				
					<polygon id="XMLID_81_" fill-rule="evenodd" clip-rule="evenodd" fill="none" stroke="#23A7E0" stroke-width="2.0001" stroke-linejoin="bevel" stroke-miterlimit="22.9256" points="
					109.1,139 110,140.5 113.7,143.4 112.7,141.9 				"/>
				<path id="XMLID_79_" fill-rule="evenodd" clip-rule="evenodd" fill="#FFFFFF" d="M109.1,139l1,1.5l3.6,2.9l-1-1.5L109.1,139z"/>
			</g>
			<g id="XMLID_74_">
				
					<polygon id="XMLID_77_" fill-rule="evenodd" clip-rule="evenodd" fill="none" stroke="#23A7E0" stroke-width="2.0001" stroke-linejoin="bevel" stroke-miterlimit="22.9256" points="
					112.7,141.9 113.7,143.4 114,143.2 114.4,143 114.7,142.7 115.1,142.4 115.5,142.1 115.8,141.8 116.1,141.4 116.5,141.1 
					116.8,140.7 117.1,140.4 117.4,140 117.7,139.6 118,139.1 118.3,138.7 118.6,138.3 118.8,137.9 119.1,137.4 119.3,137 
					119.6,136.5 119.8,136.1 120,135.6 120.1,135.2 120.3,134.8 120.4,134.3 120.6,133.9 120.7,133.4 120.8,133 120.8,132.6 
					120.9,132.2 120.9,131.8 120.9,131.4 120.9,131 119.9,129.5 120,129.9 119.9,130.3 119.9,130.7 119.9,131.1 119.8,131.5 
					119.7,131.9 119.6,132.4 119.5,132.8 119.3,133.3 119.2,133.7 119,134.2 118.8,134.6 118.6,135 118.3,135.5 118.1,135.9 
					117.9,136.4 117.6,136.8 117.3,137.2 117,137.7 116.8,138.1 116.5,138.5 116.1,138.9 115.8,139.2 115.5,139.6 115.2,140 
					114.8,140.3 114.5,140.6 114.1,140.9 113.8,141.2 113.4,141.5 113,141.7 				"/>
				<path id="XMLID_75_" fill-rule="evenodd" clip-rule="evenodd" fill="#FFFFFF" d="M112.7,141.9l1,1.5l0.4-0.2l0.4-0.2l0.4-0.3
					l0.4-0.3l0.4-0.3l0.3-0.3l0.3-0.3l0.3-0.4l0.3-0.4l0.3-0.4l0.3-0.4l0.3-0.4l0.3-0.4l0.3-0.4l0.3-0.4l0.3-0.4l0.2-0.4l0.2-0.4
					l0.2-0.4l0.2-0.4l0.2-0.4l0.2-0.4l0.2-0.4l0.1-0.4l0.1-0.4l0.1-0.4l0.1-0.4l0.1-0.4l0.1-0.4l0-0.4l0-0.4l0-0.4l-1-1.5l0,0.4
					l0,0.4l0,0.4l-0.1,0.4l-0.1,0.4l-0.1,0.4l-0.1,0.4l-0.1,0.4l-0.1,0.4l-0.2,0.4l-0.2,0.4l-0.2,0.4l-0.2,0.4l-0.2,0.4l-0.2,0.4
					l-0.2,0.4l-0.3,0.4l-0.3,0.4l-0.3,0.4l-0.3,0.4l-0.3,0.4l-0.3,0.4l-0.3,0.4l-0.3,0.4l-0.3,0.4l-0.3,0.3l-0.3,0.3l-0.4,0.3
					l-0.4,0.3l-0.4,0.3l-0.4,0.2L112.7,141.9z"/>
			</g>
			<g id="XMLID_70_">
				
					<polygon id="XMLID_73_" fill-rule="evenodd" clip-rule="evenodd" fill="none" stroke="#23A7E0" stroke-width="2.0001" stroke-linejoin="bevel" stroke-miterlimit="22.9256" points="
					115,128.8 116,130.3 118.8,127.3 117.8,125.8 				"/>
				<path id="XMLID_71_" fill-rule="evenodd" clip-rule="evenodd" fill="#FFFFFF" d="M115,128.8l1,1.5l2.8-3.1l-1-1.5L115,128.8z"/>
			</g>
		</g>
		<g id="XMLID_65_">
			
				<path id="XMLID_68_" fill-rule="evenodd" clip-rule="evenodd" fill="none" stroke="#23A7E0" stroke-width="2.0001" stroke-linejoin="bevel" stroke-miterlimit="22.9256" d="
				M97.1,135.4l4.9,0.7l-2.8,3.1c1.4,1.9,6,3.8,8.6,3.6l1.2-3.7l3.6,2.9c3.9-2.3,7.5-8.4,7.3-12.4l-4.9-0.7l2.8-3.1
				c-1.4-1.9-6-3.8-8.6-3.6l-1.2,3.7l-3.6-2.9C98.9,124.2,95.8,130.7,97.1,135.4z"/>
			<path id="XMLID_66_" fill-rule="evenodd" clip-rule="evenodd" fill="#FFFFFF" d="M97.1,135.4l4.9,0.7l-2.8,3.1
				c1.4,1.9,6,3.8,8.6,3.6l1.2-3.7l3.6,2.9c3.9-2.3,7.5-8.4,7.3-12.4l-4.9-0.7l2.8-3.1c-1.4-1.9-6-3.8-8.6-3.6l-1.2,3.7l-3.6-2.9
				C98.9,124.2,95.8,130.7,97.1,135.4z"/>
		</g>
		
			<path id="XMLID_64_" fill-rule="evenodd" clip-rule="evenodd" fill="none" stroke="#23A7E0" stroke-width="0.9921" stroke-linejoin="bevel" stroke-miterlimit="22.9256" d="
			M120,135.5l-0.8-1.5l-11.3-2.4l-8-6.4c0.4-2.4,0.2-4.2-1.3-4.9c-0.8-3.9-2.4-7.2-5.1-9.7c-8.2,0.2-10,3.2-17.2,0
			c0.1-2-0.4-3.4-1.4-4.1c-0.2-2.1-0.7-4-1.9-5.3c-1-0.5-2-0.6-3.2-0.5"/>
		
			<path id="XMLID_63_" fill-rule="evenodd" clip-rule="evenodd" fill="none" stroke="#23A7E0" stroke-width="0.9921" stroke-linejoin="bevel" stroke-miterlimit="22.9256" d="
			M61.1,108.4c-9.3-3.8-14.9-11.3-25.3-13.1c0-2.1-1.5-4.2-3.4-5.2c-2.4-5.4-6.2-8.6-11.3-11c-0.9-1.4-2.1-1.9-3.7-2
			c-1-1.4-3.1-1.6-4.6-1.3"/>
	</g>
	<g id="XMLID_3_">
		<g id="XMLID_58_">
			
				<ellipse id="XMLID_61_" transform="matrix(-0.3999 0.9166 -0.9166 -0.3999 136.0513 -79.354)" fill-rule="evenodd" clip-rule="evenodd" fill="none" stroke="#23A7E0" stroke-width="2.0001" stroke-miterlimit="22.9256" cx="94" cy="4.9" rx="3.8" ry="4.1"/>
			<path id="XMLID_59_" fill-rule="evenodd" clip-rule="evenodd" fill="#FFFFFF" d="M92.5,8.4c2.1,0.9,4.5,0.1,5.3-1.8
				c0.8-1.9-0.2-4.2-2.3-5.1c-2.1-0.9-4.5-0.1-5.3,1.8C89.4,5.1,90.4,7.4,92.5,8.4z"/>
		</g>
		<g id="XMLID_54_">
			
				<path id="XMLID_57_" fill-rule="evenodd" clip-rule="evenodd" fill="none" stroke="#23A7E0" stroke-width="2.0001" stroke-miterlimit="22.9256" d="
				M82.2,32c5.5,2.4,12.6-1.6,15.8-8.9c3.2-7.3-1.9-16.6-4.3-17.6c-2.4-1-12.6,1.6-15.8,8.9C74.7,21.7,76.6,29.6,82.2,32z"/>
			<path id="XMLID_55_" fill-rule="evenodd" clip-rule="evenodd" fill="#FFFFFF" d="M82.2,32c5.5,2.4,12.6-1.6,15.8-8.9
				c3.2-7.3-1.9-16.6-4.3-17.6c-2.4-1-12.6,1.6-15.8,8.9C74.7,21.7,76.6,29.6,82.2,32z"/>
		</g>
		<g id="XMLID_50_">
			
				<ellipse id="XMLID_53_" transform="matrix(-0.3999 0.9166 -0.9166 -0.3999 144.3848 -30.3064)" fill-rule="evenodd" clip-rule="evenodd" fill="none" stroke="#23A7E0" stroke-width="2.0001" stroke-miterlimit="22.9256" cx="82.1" cy="32.1" rx="9.2" ry="14"/>
			<path id="XMLID_51_" fill-rule="evenodd" clip-rule="evenodd" fill="#FFFFFF" d="M78.4,40.6c7.1,3.1,14.5,1.8,16.5-2.8
				c2-4.7-2.1-11-9.2-14c-7.1-3.1-14.5-1.8-16.5,2.8C67.2,31.2,71.3,37.5,78.4,40.6z"/>
		</g>
		<g id="XMLID_46_">
			
				<ellipse id="XMLID_49_" transform="matrix(-0.3999 0.9166 -0.9166 -0.3999 144.9475 -26.9957)" fill-rule="evenodd" clip-rule="evenodd" fill="none" stroke="#23A7E0" stroke-width="2.0001" stroke-miterlimit="22.9256" cx="81.3" cy="34" rx="10.1" ry="14.3"/>
			<path id="XMLID_47_" fill-rule="evenodd" clip-rule="evenodd" fill="#FFFFFF" d="M77.3,43.2c7.2,3.2,14.9,1.6,17.1-3.5
				c2.2-5.1-1.8-11.8-9-15c-7.2-3.2-14.9-1.6-17.1,3.5C66,33.4,70.1,40,77.3,43.2z"/>
		</g>
		<g id="XMLID_42_">
			
				<ellipse id="XMLID_45_" transform="matrix(-0.3999 0.9166 -0.9166 -0.3999 145.8259 -21.8232)" fill-rule="evenodd" clip-rule="evenodd" fill="none" stroke="#23A7E0" stroke-width="2.0001" stroke-miterlimit="22.9256" cx="80.1" cy="36.8" rx="5.3" ry="8.1"/>
			<path id="XMLID_43_" fill-rule="evenodd" clip-rule="evenodd" fill="#FFFFFF" d="M77.9,41.7c4.1,1.8,8.4,1,9.5-1.7
				c1.2-2.7-1.2-6.3-5.3-8.1c-4.1-1.8-8.4-1-9.5,1.7C71.5,36.3,73.8,39.9,77.9,41.7z"/>
		</g>
		<g id="XMLID_38_">
			
				<path id="XMLID_41_" fill-rule="evenodd" clip-rule="evenodd" fill="none" stroke="#23A7E0" stroke-width="2.0001" stroke-miterlimit="22.9256" d="
				M60.6,48.1c1.3-3,5.9-4.4,8.6-6.6c2.4-2,4.2-4.5,5.2-7.1c3.7-2.6,11.3,0.7,11.9,5.2c-1.2,2.6-1.8,5.5-1.6,8.7
				c0.2,3.5,2.3,7.8,1,10.8C83.1,64.9,58,54,60.6,48.1z"/>
			<path id="XMLID_39_" fill-rule="evenodd" clip-rule="evenodd" fill="#FFFFFF" d="M60.6,48.1c1.3-3,5.9-4.4,8.6-6.6
				c2.4-2,4.2-4.5,5.2-7.1c3.7-2.6,11.3,0.7,11.9,5.2c-1.2,2.6-1.8,5.5-1.6,8.7c0.2,3.5,2.3,7.8,1,10.8C83.1,64.9,58,54,60.6,48.1z"
				/>
		</g>
		<g id="XMLID_34_">
			
				<ellipse id="XMLID_37_" transform="matrix(-0.3999 0.9166 -0.9166 -0.3999 151.737 12.9633)" fill-rule="evenodd" clip-rule="evenodd" fill="none" stroke="#23A7E0" stroke-width="2.0001" stroke-miterlimit="22.9256" cx="71.6" cy="56.2" rx="9.7" ry="14.7"/>
			<path id="XMLID_35_" fill-rule="evenodd" clip-rule="evenodd" fill="#FFFFFF" d="M67.8,65c7.4,3.2,15.2,1.9,17.3-3
				c2.1-4.9-2.1-11.5-9.6-14.7c-7.4-3.2-15.2-1.9-17.3,3S60.3,61.8,67.8,65z"/>
		</g>
		<g id="XMLID_30_">
			
				<path id="XMLID_33_" fill-rule="evenodd" clip-rule="evenodd" fill="none" stroke="#23A7E0" stroke-width="2.0001" stroke-miterlimit="22.9256" d="
				M46.6,58.1c2.1-2.7,3.9-3.9,5.8-4.6c1.9-0.8,3.8-1.2,6.2-2.6c0.7-0.4,1.2-0.7,1.8-1c0.5-0.3,1.1-0.5,1.9-0.7
				c8-2,16.9,1.9,20.9,9.1c0.4,0.7,0.6,1.3,0.8,1.9c0.2,0.6,0.3,1.2,0.5,2c0.6,2.6,1.6,4.3,2.3,6.3c0.7,1.9,1.1,4,0.5,7.4L46.6,58.1
				z"/>
			<path id="XMLID_31_" fill-rule="evenodd" clip-rule="evenodd" fill="#FFFFFF" d="M46.6,58.1c2.1-2.7,3.9-3.9,5.8-4.6
				c1.9-0.8,3.8-1.2,6.2-2.6c0.7-0.4,1.2-0.7,1.8-1c0.5-0.3,1.1-0.5,1.9-0.7c8-2,16.9,1.9,20.9,9.1c0.4,0.7,0.6,1.3,0.8,1.9
				c0.2,0.6,0.3,1.2,0.5,2c0.6,2.6,1.6,4.3,2.3,6.3c0.7,1.9,1.1,4,0.5,7.4L46.6,58.1z"/>
		</g>
		<g id="XMLID_26_">
			
				<ellipse id="XMLID_29_" transform="matrix(-0.3999 0.9166 -0.9166 -0.3999 156.6868 42.0932)" fill-rule="evenodd" clip-rule="evenodd" fill="none" stroke="#23A7E0" stroke-width="2.0001" stroke-miterlimit="22.9256" cx="64.6" cy="72.3" rx="16.2" ry="24.2"/>
			<path id="XMLID_27_" fill-rule="evenodd" clip-rule="evenodd" fill="#FFFFFF" d="M58.1,87.2c12.3,5.3,25.1,3,28.7-5.2
				c3.6-8.2-3.5-19.2-15.7-24.5c-12.3-5.3-25.1-3-28.7,5.2C38.8,70.9,45.8,81.8,58.1,87.2z"/>
		</g>
		<g id="XMLID_17_">
			<g id="XMLID_22_">
				
					<polygon id="XMLID_25_" fill-rule="evenodd" clip-rule="evenodd" fill="none" stroke="#23A7E0" stroke-width="2.0001" stroke-linejoin="bevel" stroke-miterlimit="22.9256" points="
					83.5,89.4 84.5,87.1 84.8,86.3 84.9,85.5 85.1,84.7 85.1,83.9 85.1,83 85.1,82.2 85,81.3 84.8,80.5 84.6,79.6 84.4,78.8 
					84,77.9 83.7,77.1 83.3,76.2 82.8,75.4 82.3,74.5 81.7,73.7 81.1,72.9 80.5,72.1 79.8,71.3 79.1,70.5 78.3,69.8 77.5,69 
					76.6,68.3 75.7,67.6 74.8,66.9 73.8,66.2 72.8,65.6 71.8,65 70.7,64.4 69.6,63.9 68.5,63.3 67.3,62.9 66.2,62.4 65,62 
					63.9,61.7 62.7,61.4 61.6,61.1 60.5,60.9 59.3,60.7 58.2,60.6 57.1,60.5 56,60.5 55,60.5 53.9,60.5 52.9,60.6 51.9,60.7 
					50.9,60.8 49.9,61 49,61.3 48.1,61.6 47.2,61.9 46.4,62.2 45.6,62.6 44.8,63 44.1,63.5 43.4,64 42.7,64.5 42.1,65.1 41.6,65.7 
					41.1,66.4 40.6,67 40.2,67.8 39.2,70 39.6,69.3 40.1,68.6 40.6,68 41.1,67.4 41.7,66.8 42.4,66.3 43.1,65.8 43.8,65.3 
					44.6,64.9 45.4,64.5 46.2,64.1 47.1,63.8 48,63.6 48.9,63.3 49.9,63.1 50.9,63 51.9,62.9 52.9,62.8 54,62.7 55,62.8 56.1,62.8 
					57.2,62.9 58.3,63 59.5,63.2 60.6,63.4 61.7,63.7 62.9,64 64,64.3 65.2,64.7 66.3,65.1 67.5,65.6 68.6,66.1 69.7,66.7 
					70.8,67.3 71.8,67.9 72.8,68.5 73.8,69.2 74.7,69.9 75.6,70.6 76.5,71.3 77.3,72 78.1,72.8 78.8,73.6 79.5,74.4 80.1,75.2 
					80.7,76 81.3,76.8 81.8,77.7 82.3,78.5 82.7,79.3 83,80.2 83.4,81.1 83.6,81.9 83.8,82.8 84,83.6 84.1,84.5 84.1,85.3 
					84.1,86.1 84.1,87 83.9,87.8 83.8,88.6 				"/>
				<path id="XMLID_23_" fill-rule="evenodd" clip-rule="evenodd" fill="#FFFFFF" d="M83.5,89.4l1-2.3l0.2-0.8l0.2-0.8l0.1-0.8
					l0.1-0.8l0-0.8l0-0.8L85,81.3l-0.2-0.9l-0.2-0.9l-0.3-0.9L84,77.9l-0.4-0.9l-0.4-0.8l-0.5-0.8l-0.5-0.8l-0.6-0.8l-0.6-0.8
					l-0.6-0.8l-0.7-0.8l-0.7-0.8l-0.8-0.8L77.5,69l-0.9-0.7l-0.9-0.7l-0.9-0.7l-1-0.7l-1-0.6l-1-0.6l-1.1-0.6l-1.1-0.5l-1.1-0.5
					l-1.2-0.5l-1.2-0.4L65,62l-1.1-0.3l-1.1-0.3l-1.1-0.3l-1.1-0.2l-1.1-0.2l-1.1-0.1l-1.1-0.1l-1.1,0l-1.1,0l-1.1,0l-1,0.1l-1,0.1
					l-1,0.2l-1,0.2L49,61.3l-0.9,0.3l-0.9,0.3l-0.8,0.4l-0.8,0.4L44.8,63l-0.7,0.5L43.4,64l-0.6,0.5l-0.6,0.6l-0.6,0.6l-0.5,0.6
					L40.6,67l-0.4,0.7l-1,2.3l0.4-0.7l0.5-0.7l0.5-0.6l0.6-0.6l0.6-0.6l0.6-0.5l0.7-0.5l0.7-0.5l0.8-0.4l0.8-0.4l0.8-0.4l0.9-0.3
					l0.9-0.3l0.9-0.2l1-0.2l1-0.2l1-0.1l1-0.1l1.1,0l1.1,0l1.1,0l1.1,0.1l1.1,0.1l1.1,0.2l1.1,0.2l1.1,0.3l1.1,0.3l1.1,0.3l1.2,0.4
					l1.2,0.4l1.2,0.5l1.1,0.5l1.1,0.5l1.1,0.6l1,0.6l1,0.6l1,0.7l0.9,0.7l0.9,0.7l0.9,0.7l0.8,0.7l0.8,0.8l0.7,0.8l0.7,0.8l0.6,0.8
					l0.6,0.8l0.6,0.8l0.5,0.8l0.5,0.8l0.4,0.8l0.4,0.9l0.3,0.9l0.3,0.9l0.2,0.9l0.2,0.9l0.1,0.8l0,0.8l0,0.8L84.1,87l-0.1,0.8
					l-0.2,0.8L83.5,89.4z"/>
			</g>
			<g id="XMLID_18_">
				
					<polygon id="XMLID_21_" fill-rule="evenodd" clip-rule="evenodd" fill="none" stroke="#23A7E0" stroke-width="2.0001" stroke-linejoin="bevel" stroke-miterlimit="22.9256" points="
					83.5,89.4 84.5,87.1 84.8,86.3 84.9,85.5 85.1,84.7 85.1,83.9 85.1,83 85.1,82.2 85,81.3 84.8,80.5 84.6,79.6 84.4,78.8 
					84,77.9 83.7,77.1 83.3,76.2 82.8,75.4 82.3,74.5 81.7,73.7 81.1,72.9 80.5,72.1 79.8,71.3 79.1,70.5 78.3,69.8 77.5,69 
					76.6,68.3 75.7,67.6 74.8,66.9 73.8,66.2 72.8,65.6 71.8,65 70.7,64.4 69.6,63.9 68.5,63.3 67.3,62.9 66.2,62.4 65,62 
					63.9,61.7 62.7,61.4 61.6,61.1 60.5,60.9 59.3,60.7 58.2,60.6 57.1,60.5 56,60.5 55,60.5 53.9,60.5 52.9,60.6 51.9,60.7 
					50.9,60.8 49.9,61 49,61.3 48.1,61.6 47.2,61.9 46.4,62.2 45.6,62.6 44.8,63 44.1,63.5 43.4,64 42.7,64.5 42.1,65.1 41.6,65.7 
					41.1,66.4 40.6,67 40.2,67.8 39.2,70 39.6,69.3 40.1,68.6 40.6,68 41.1,67.4 41.7,66.8 42.4,66.3 43.1,65.8 43.8,65.3 
					44.6,64.9 45.4,64.5 46.2,64.1 47.1,63.8 48,63.6 48.9,63.3 49.9,63.1 50.9,63 51.9,62.9 52.9,62.8 54,62.7 55,62.8 56.1,62.8 
					57.2,62.9 58.3,63 59.5,63.2 60.6,63.4 61.7,63.7 62.9,64 64,64.3 65.2,64.7 66.3,65.1 67.5,65.6 68.6,66.1 69.7,66.7 
					70.8,67.3 71.8,67.9 72.8,68.5 73.8,69.2 74.7,69.9 75.6,70.6 76.5,71.3 77.3,72 78.1,72.8 78.8,73.6 79.5,74.4 80.1,75.2 
					80.7,76 81.3,76.8 81.8,77.7 82.3,78.5 82.7,79.3 83,80.2 83.4,81.1 83.6,81.9 83.8,82.8 84,83.6 84.1,84.5 84.1,85.3 
					84.1,86.1 84.1,87 83.9,87.8 83.8,88.6 				"/>
				<path id="XMLID_19_" fill-rule="evenodd" clip-rule="evenodd" fill="#FFFFFF" d="M83.5,89.4l1-2.3l0.2-0.8l0.2-0.8l0.1-0.8
					l0.1-0.8l0-0.8l0-0.8L85,81.3l-0.2-0.9l-0.2-0.9l-0.3-0.9L84,77.9l-0.4-0.9l-0.4-0.8l-0.5-0.8l-0.5-0.8l-0.6-0.8l-0.6-0.8
					l-0.6-0.8l-0.7-0.8l-0.7-0.8l-0.8-0.8L77.5,69l-0.9-0.7l-0.9-0.7l-0.9-0.7l-1-0.7l-1-0.6l-1-0.6l-1.1-0.6l-1.1-0.5l-1.1-0.5
					l-1.2-0.5l-1.2-0.4L65,62l-1.1-0.3l-1.1-0.3l-1.1-0.3l-1.1-0.2l-1.1-0.2l-1.1-0.1l-1.1-0.1l-1.1,0l-1.1,0l-1.1,0l-1,0.1l-1,0.1
					l-1,0.2l-1,0.2L49,61.3l-0.9,0.3l-0.9,0.3l-0.8,0.4l-0.8,0.4L44.8,63l-0.7,0.5L43.4,64l-0.6,0.5l-0.6,0.6l-0.6,0.6l-0.5,0.6
					L40.6,67l-0.4,0.7l-1,2.3l0.4-0.7l0.5-0.7l0.5-0.6l0.6-0.6l0.6-0.6l0.6-0.5l0.7-0.5l0.7-0.5l0.8-0.4l0.8-0.4l0.8-0.4l0.9-0.3
					l0.9-0.3l0.9-0.2l1-0.2l1-0.2l1-0.1l1-0.1l1.1,0l1.1,0l1.1,0l1.1,0.1l1.1,0.1l1.1,0.2l1.1,0.2l1.1,0.3l1.1,0.3l1.1,0.3l1.2,0.4
					l1.2,0.4l1.2,0.5l1.1,0.5l1.1,0.5l1.1,0.6l1,0.6l1,0.6l1,0.7l0.9,0.7l0.9,0.7l0.9,0.7l0.8,0.7l0.8,0.8l0.7,0.8l0.7,0.8l0.6,0.8
					l0.6,0.8l0.6,0.8l0.5,0.8l0.5,0.8l0.4,0.8l0.4,0.9l0.3,0.9l0.3,0.9l0.2,0.9l0.2,0.9l0.1,0.8l0,0.8l0,0.8L84.1,87l-0.1,0.8
					l-0.2,0.8L83.5,89.4z"/>
			</g>
		</g>
		<g id="XMLID_13_">
			
				<ellipse id="XMLID_16_" transform="matrix(-0.3999 0.9166 -0.9166 -0.3999 159.1723 56.7211)" fill-rule="evenodd" clip-rule="evenodd" fill="none" stroke="#23A7E0" stroke-width="2.0001" stroke-linejoin="bevel" stroke-miterlimit="22.9256" cx="61" cy="80.5" rx="16.2" ry="24.2"/>
			<path id="XMLID_14_" fill-rule="evenodd" clip-rule="evenodd" fill="#FFFFFF" d="M54.5,95.3c12.3,5.3,25.1,3,28.7-5.2
				C86.8,82,79.8,71,67.5,65.6c-12.3-5.3-25.1-3-28.7,5.2C35.2,79,42.3,90,54.5,95.3z"/>
		</g>
		<g id="XMLID_9_">
			
				<ellipse id="XMLID_12_" transform="matrix(-0.3999 0.9166 -0.9166 -0.3999 159.1723 56.7214)" fill-rule="evenodd" clip-rule="evenodd" fill="none" stroke="#23A7E0" stroke-width="2.0001" stroke-miterlimit="22.9256" cx="61" cy="80.5" rx="15.1" ry="22.6"/>
			<path id="XMLID_10_" fill-rule="evenodd" clip-rule="evenodd" fill="#23A7E0" d="M55,94.3c11.4,5,23.4,2.8,26.7-4.8
				c3.3-7.6-3.2-17.9-14.7-22.9c-11.4-5-23.4-2.8-26.7,4.8C37,79.1,43.6,89.3,55,94.3z"/>
		</g>
		
			<path id="XMLID_4_" fill-rule="evenodd" clip-rule="evenodd" fill="none" stroke="#23A7E0" stroke-width="0.9921" stroke-linejoin="bevel" stroke-miterlimit="22.9256" d="
			M96.6,2c0.8,2,0.3,3.6-1.3,4.9c2.5,8.5-0.8,14-5.7,18.7 M92,27.8L91.7,29c-1.7,1.8-3.3,3.8-5.8,4.9c0.1,1.2-0.7,1.8-1.5,2.1
			c-2.5,5.3-1.8,10.5-3.3,14.6 M82,51.4c0.8,1.3-0.2,1.9-1.5,2.9c-1.1,3.7,1,6.1,0.6,9.8 M82.1,65c-0.3,2.9-1.2,4.8-2.4,5.9
			c-0.5,0.6-0.8,1.3-1.4,1.9"/>
	</g>
</g>
</svg>
