<?xml version="1.0" encoding="utf-8"?>
<!-- Generator: Adobe Illustrator 19.0.1, SVG Export Plug-In . SVG Version: 6.00 Build 0)  -->
<!DOCTYPE svg PUBLIC "-//W3C//DTD SVG 1.1//EN" "http://www.w3.org/Graphics/SVG/1.1/DTD/svg11.dtd">
<svg version="1.1" id="contact" xmlns="http://www.w3.org/2000/svg" xmlns:xlink="http://www.w3.org/1999/xlink" x="0px" y="0px"
	 viewBox="0 0 100 753.8" enable-background="new 0 0 100 753.8" xml:space="preserve">
<g id="e-mail_2_">
	<path fill="#FFFFFF" d="M50.8,173.5c-2.3,0-4.2,1.4-5.9,4.4c-1.8,3-2.6,6-2.6,8.8c0,1.6,0.4,2.9,1.1,3.8c0.7,0.9,1.6,1.3,2.8,1.3
		c2.2,0,4.2-1.8,5.7-5.5c1.6-3.9,2.5-6.9,2.5-9.1c0-1.1-0.3-2-1-2.7C52.7,173.9,51.9,173.5,50.8,173.5z"/>
	<path fill="#FFFFFF" d="M89.6,135H10.4C4.7,135,0,139.7,0,145.4v79.2c0,5.7,4.7,10.4,10.4,10.4h79.2c5.7,0,10.4-4.7,10.4-10.4
		v-79.2C100,139.7,95.3,135,89.6,135z M61.2,191c0.3,0.5,0.9,0.7,1.7,0.7c1.8,0,3.8-1.3,5.7-3.8c2-2.6,3-6.1,3-10.5
		c0-6.5-2.7-11-8.2-13.8c-3.5-1.8-7.5-2.7-11.9-2.7c-8.1,0-14.6,2.5-19.5,7.4c-4.4,4.4-6.6,9.8-6.6,16c0,6.9,2.6,12.4,7.7,16.4
		c4.6,3.6,10.2,5.4,16.8,5.4c4.5,0,8.8-0.8,12.8-2.5c2.1-0.9,4.4-2.2,6.7-3.8l1.6-1.1l3.6,5.5l-0.6,0.5c-3.5,2.7-7.4,4.9-11.6,6.3
		c-4.1,1.4-8.5,2.2-12.9,2.2c-10.4,0-18.6-3.3-24.3-9.8c-4.8-5.4-7.2-11.9-7.2-19.2c0-8.3,3-15.4,9-21.1c6.2-6,14.3-9.1,24-9.1
		c7.9,0,14.5,2.1,19.8,6.3c5.5,4.4,8.4,10.4,8.4,17.7c0,5.7-1.8,10.8-5.3,14.9c-3.5,4.2-7.7,6.3-12.2,6.3c-2.5,0-4.4-0.7-5.8-2.2
		c-0.9-1-1.6-2-1.9-3.1c-0.6,0.8-1.2,1.5-1.9,2.1c-2.2,2-4.9,3.1-8.1,3.1c-3.2,0-5.9-1.2-8-3.5c-2.1-2.3-3.2-5.5-3.2-9.5
		c0-4.6,1.6-9,4.7-13c3.2-4.1,7.1-6.1,11.8-6.1c2.8,0,5,0.8,6.6,2.4c0.5,0.5,1,1.5,1.4,2.1l0.9-2.9h8.7l-5,16.9
		c-0.3,1-0.5,1.7-0.7,2.3c0,0-0.3,1.4-0.3,1.8C60.6,190,60.8,190.5,61.2,191z"/>
</g>
<g id="iphone_1_">
	<g opacity="0.3">
		
			<rect x="14" y="35.3" transform="matrix(-0.4394 -0.8983 0.8983 -0.4394 17.849 128.3571)" fill="#20A7E0" width="70" height="46.7"/>
	</g>
	<g id="body_1_">
		<path fill="#20A7E0" d="M44.3,1.2L6.5,19.6c-5.8,2.8-8.2,9.8-5.4,15.6l39,79.6c2.8,5.8,9.8,8.2,15.6,5.4l37.7-18.5
			c5.8-2.8,8.2-9.8,5.4-15.6l-39-79.6C57,0.8,50-1.6,44.3,1.2z M73.1,107.9c-4.1,2-9.1,0.3-11.1-3.8s-0.3-9.1,3.8-11.1
			c4.1-2,9.1-0.3,11.1,3.8S77.2,105.9,73.1,107.9z M43.4,100.3L12.6,37.4l41.9-20.5l30.8,62.9L43.4,100.3z"/>
	</g>
</g>
<path fill="#FFFFFF" d="M50,246.5c-27.6,0-50,22.4-50,50c0,22.1,14.3,40.8,34.2,47.4c2.5,0.5,3.4-1.1,3.4-2.4c0-1.2,0-5.1-0.1-9.3
	c-13.9,3-16.8-5.9-16.8-5.9c-2.3-5.8-5.6-7.3-5.6-7.3c-4.5-3.1,0.3-3,0.3-3c5,0.3,7.7,5.2,7.7,5.2c4.5,7.6,11.7,5.4,14.6,4.2
	c0.5-3.2,1.7-5.4,3.2-6.7c-11.1-1.3-22.8-5.6-22.8-24.7c0-5.5,2-9.9,5.1-13.4c-0.5-1.3-2.2-6.4,0.5-13.2c0,0,4.2-1.3,13.8,5.1
	c4-1.1,8.3-1.7,12.5-1.7c4.2,0,8.5,0.6,12.5,1.7c9.5-6.5,13.7-5.1,13.7-5.1c2.7,6.9,1,12,0.5,13.2c3.2,3.5,5.1,8,5.1,13.4
	c0,19.2-11.7,23.4-22.8,24.7c1.8,1.6,3.4,4.6,3.4,9.3c0,6.7-0.1,12.1-0.1,13.7c0,1.3,0.9,2.9,3.4,2.4c19.9-6.6,34.2-25.4,34.2-47.4
	C100,268.9,77.6,246.5,50,246.5z"/>
<g id="twitter_1_">
	<path fill="#FFFFFF" d="M89.6,355H10.4C4.7,355,0,359.7,0,365.4v79.2c0,5.7,4.7,10.4,10.4,10.4h79.2c5.7,0,10.4-4.7,10.4-10.4
		v-79.2C100,359.7,95.3,355,89.6,355z M79.8,392.1c0,0.6,0,1.3,0,1.9c0,19.7-15,42.5-42.5,42.5c-8.4,0-16.3-2.5-22.9-6.7
		c1.2,0.1,2.4,0.2,3.6,0.2c7,0,13.4-2.4,18.5-6.4c-6.5-0.1-12.1-4.4-14-10.4c0.9,0.2,1.8,0.3,2.8,0.3c1.4,0,2.7-0.2,3.9-0.5
		c-6.8-1.4-12-7.4-12-14.6c0-0.1,0-0.1,0-0.2c2,1.1,4.3,1.8,6.8,1.9c-4-2.7-6.6-7.2-6.6-12.4c0-2.7,0.7-5.3,2-7.5
		c7.4,9,18.4,15,30.8,15.6c-0.3-1.1-0.4-2.2-0.4-3.4c0-8.2,6.7-14.9,14.9-14.9c4.3,0,8.2,1.8,10.9,4.7c3.4-0.7,6.6-1.9,9.5-3.6
		c-1.1,3.5-3.5,6.4-6.6,8.3c3-0.3,5.9-1.2,8.6-2.3C85.2,387.4,82.7,390,79.8,392.1z"/>
</g>
<g id="google_x5F_plus_1_">
	<path fill="#FFFFFF" d="M22.6,533.7c-0.7-0.5-1.8-1.1-1.8-2.4c0,0,0-2.7,0-4.4C15.1,527,2.4,526.1,0,512.3V543
		c7.2-6.2,19.5-6.8,24.6-6.9C24.3,534.7,23.3,534.2,22.6,533.7z"/>
	<path fill="#FFFFFF" d="M25,520.4c0.7,0,1.3-0.1,1.9-0.3c5.6-1.5,8.3-9.2,6.2-17.2c-1.9-6.9-7-12-12.1-12c-0.7,0-1.3,0.1-1.9,0.3
		c-2.6,0.7-4.8,2.9-5.9,6.1c-1.2,3.3-1.3,7.2-0.2,11.2C14.8,515.4,19.8,520.4,25,520.4z"/>
	<path fill="#FFFFFF" d="M89.6,465H10.4C4.7,465,0,469.7,0,475.4v28.2c3.1-17.3,25.1-17.8,25.4-17.8H50v0c0,2.9-3.9,3.4-7.3,3.8
		c-0.9,0.1-1.8,0.3-2.6,0.4c5.8,3.3,6.4,8.7,6.4,15.9c0,8.5-4.9,12.6-8.5,15.6c-2.2,1.9-4,3.3-4,5.2c0,1.8,2.5,3.8,5.3,6.1
		c4.8,3.9,11.4,9.3,11.4,18.3c0,5.7-1.7,10.2-4.9,13.8h43.8c5.7,0,10.4-4.7,10.4-10.4v-79.2C100,469.7,95.3,465,89.6,465z
		 M95.8,506.7H79.2v16.7H75v-16.7H58.3v-4.2H75v-16.7h4.2v16.7h16.7V506.7z"/>
	<path fill="#FFFFFF" d="M24.5,541.5c-0.6,0-1.1,0-1.7,0.1c-4.7,0.3-9,1.9-12.2,4.6c-3.1,2.6-4.6,5.8-4.4,9.1
		c0.3,4.2,3.6,7.8,8.4,9.8h16.9c6-2.4,10-7,9.6-12.1C40.7,546.5,33.4,541.5,24.5,541.5z"/>
</g>
<g id="linked_x5F_in_1_">
	<path fill="#FFFFFF" d="M89.6,575H10.4C4.7,575,0,579.7,0,585.4v79.2c0,5.7,4.7,10.4,10.4,10.4h79.2c5.7,0,10.4-4.7,10.4-10.4
		v-79.2C100,579.7,95.3,575,89.6,575z M33.3,654.2h-0.5h-12v-41.7h12.5V654.2z M27.1,606.8c-4.2,0-7.6-3.4-7.6-7.6s3.4-7.6,7.6-7.6
		c4.2,0,7.6,3.4,7.6,7.6S31.3,606.8,27.1,606.8z M79.2,654.2H66.7v-22.1c0-5.2-2.2-8.8-6.9-8.8c-3.6,0-4.3,2.4-5.2,4.7
		c-0.3,0.8-0.4,2-0.4,3.1v23H41.7c0,0,0.2-38,0-41.7h12.5v7.1c0-2.6,3-7.2,12.8-7.2c9.8,0,12.2,0.3,12.2,14.1
		C79.2,640.2,79.2,654.2,79.2,654.2z"/>
</g>
<g id="google_x5F_maps">
	<path fill="#FFFFFF" d="M50,685c-11.1,0-20,9.3-20,20.8c0,3,1.3,7.2,1.3,7.2c5.3,14.2,18.1,40.3,18.1,40.3c0.2,0.4,0.4,0.5,0.6,0.5
		c0.2,0,0.4-0.2,0.6-0.5c0,0,12.8-26.1,18.1-40.3c0,0,1.3-4.1,1.3-7.2C70,694.3,61.1,685,50,685z M50,715.3c-5,0-9.1-4.2-9.1-9.5
		s4.1-9.5,9.1-9.5c5,0,9.1,4.2,9.1,9.5S55,715.3,50,715.3z"/>
</g>
</svg>
