<?xml version="1.0" encoding="utf-8"?>
<!-- Generator: Adobe Illustrator 19.0.0, SVG Export Plug-In . SVG Version: 6.00 Build 0)  -->
<!DOCTYPE svg PUBLIC "-//W3C//DTD SVG 1.1//EN" "http://www.w3.org/Graphics/SVG/1.1/DTD/svg11.dtd">
<svg version="1.1" id="Layer_1" xmlns="http://www.w3.org/2000/svg" xmlns:xlink="http://www.w3.org/1999/xlink" x="0px" y="0px"
	 viewBox="0 0 256.8 256.8" enable-background="new 0 0 256.8 256.8" xml:space="preserve">
<g id="XMLID_1_">
	<circle id="XMLID_2_" fill="none" stroke="#E4EAEC" stroke-width="30" stroke-miterlimit="10" cx="128.4" cy="128.4" r="113.4"/>
	<g>
		<polygon id="XMLID_4_" fill-rule="evenodd" clip-rule="evenodd" fill="#FFFFFF" points="87.6,92.6 169.2,92.6 161.9,176.1 
			128.6,185.6 94.4,176.1 87.6,92.6 		"/>
		<polygon id="XMLID_5_" fill-rule="evenodd" clip-rule="evenodd" fill="#E4EAEC" points="128.7,100.7 128.7,177.5 156.2,169.6 
			162.2,100.7 128.7,100.7 		"/>
		<polygon id="XMLID_6_" fill-rule="evenodd" clip-rule="evenodd" fill="#23A7E0" points="103.5,120.4 128.2,120.4 104,130.9 
			105.4,140.5 140.9,140.5 139.6,154.2 127.5,156.4 116.8,153.7 115.9,145.9 105.8,145.9 107.2,161.9 128.6,167.8 149.2,161.5 
			151.9,130 129.9,130 153.8,120.3 153.8,110.4 102.2,110.4 103.5,120.4 		"/>
		<polygon id="XMLID_7_" fill-rule="evenodd" clip-rule="evenodd" fill="#FFFFFF" points="104.2,71.2 104.2,86.7 116.9,86.7 
			116.9,81.7 109.6,81.7 109.6,76.4 116.9,76.4 116.9,71.2 104.2,71.2 		"/>
		<polygon id="XMLID_8_" fill-rule="evenodd" clip-rule="evenodd" fill="#FFFFFF" points="122.1,71.2 122.1,75.4 126.5,81.7 
			122.4,81.7 122.4,86.7 134.7,86.7 134.7,81.9 130.6,76.6 134.7,76.6 134.7,71.2 122.1,71.2 		"/>
		<polygon id="XMLID_9_" fill-rule="evenodd" clip-rule="evenodd" fill="#FFFFFF" points="139.6,71.2 139.6,75.4 144.1,81.7 
			140,81.7 140,86.7 152.3,86.7 152.3,81.9 148.2,76.6 152.3,76.6 152.3,71.2 139.6,71.2 		"/>
	</g>
	<path id="XMLID_14_" fill="none" stroke="#9AC6E2" stroke-width="30" stroke-miterlimit="10" d="M128,15
		c62.6-0.2,113.6,50.3,113.8,113s-50.3,113.6-113,113.8S15.2,191.5,15,128.8"/>
</g>
</svg>
