<?xml version="1.0" encoding="utf-8"?>
<!-- Generator: Adobe Illustrator 19.0.1, SVG Export Plug-In . SVG Version: 6.00 Build 0)  -->
<!DOCTYPE svg PUBLIC "-//W3C//DTD SVG 1.1//EN" "http://www.w3.org/Graphics/SVG/1.1/DTD/svg11.dtd">
<svg version="1.1" id="chart" xmlns="http://www.w3.org/2000/svg" xmlns:xlink="http://www.w3.org/1999/xlink" x="0px" y="0px"
	 viewBox="0 0 256.8 256.8" enable-background="new 0 0 256.8 256.8" xml:space="preserve">
<circle id="base_2_" fill="none" stroke="#E4EAEC" stroke-width="30" stroke-miterlimit="10" cx="128.4" cy="128.4" r="113.4"/>
<path id="slice_2_" fill="none" stroke="#9AC6E2" stroke-width="30" stroke-miterlimit="10" d="M128,15
	c62.6-0.2,113.6,50.3,113.8,113s-50.3,113.6-113,113.8S15.2,191.5,15,128.8"/>
<path id="css3" fill-rule="evenodd" clip-rule="evenodd" fill="#FFFFFF" d="M93.8,98l5.8,70.7l29,8.1l28.2-8.1L163,98H93.8z
	 M149.9,121.5l-20.2,8.3h18.6l-2.3,26.6l-17.4,5.4l-18.2-5l-1.2-13.5h8.5l0.8,6.6l9.1,2.3l10.2-1.9l1.2-11.6h-30.1l-1.2-8.1
	l20.5-8.9l-20.9,0l-1.2-8.5h43.7V121.5z M118.7,93h-10.8V79.9h10.8v4.5h-6.2v4.4h6.2V93z M126.8,88.8l-3.8-5.3v-3.6h10.7v4.6h-3.5
	l3.5,4.5V93h-10.4v-4.3H126.8z M141.7,88.8l-3.8-5.3v-3.6h10.7v4.6h-3.5l3.5,4.5V93h-10.4v-4.3H141.7z"/>
</svg>
