<?xml version="1.0" encoding="utf-8"?>
<!-- Generator: Adobe Illustrator 19.0.0, SVG Export Plug-In . SVG Version: 6.00 Build 0)  -->
<!DOCTYPE svg PUBLIC "-//W3C//DTD SVG 1.1//EN" "http://www.w3.org/Graphics/SVG/1.1/DTD/svg11.dtd">
<svg version="1.1" id="Layer_1" xmlns="http://www.w3.org/2000/svg" xmlns:xlink="http://www.w3.org/1999/xlink" x="0px" y="0px"
	 viewBox="0 0 256.8 256.8" style="enable-background:new 0 0 256.8 256.8;" xml:space="preserve">
<style type="text/css">
	.slice{fill:none;stroke:#9AC6E2;stroke-width:30;stroke-miterlimit:10;}
	.theme{fill:#23A7E0;}
	.graphic{fill:#FFFFFF;}
	.st0{fill:#E4EAEC;}
</style>
<g id="XMLID_1_">
	<circle id="XMLID_2_" class="slice" cx="128.4" cy="128.4" r="113.4"/>
	<g id="XMLID_3_">
		<polygon id="XMLID_4_" class="graphic" points="95,176.8 87.6,93.4 169.2,93.4 161.8,176.8 128.3,186 95,176.8 		"/>
		<polygon id="XMLID_5_" class="st0" points="128.4,178.9 155.4,171.4 161.8,100.2 128.4,100.2 128.4,178.9 		"/>
		<polygon id="XMLID_6_" class="theme" points="128.4,131.1 114.9,131.1 113.9,120.7 128.4,120.7 128.4,110.5 128.4,110.5 
			102.8,110.5 103,113.2 105.5,141.4 128.4,141.4 128.4,131.1 		"/>
		<polygon id="XMLID_7_" class="theme" points="128.4,157.7 128.4,157.7 117,154.6 116.2,146.5 110.7,146.5 106,146.5 107.4,162.5 
			128.4,168.3 128.4,168.3 128.4,157.7 		"/>
		<polygon id="XMLID_8_" class="graphic" points="95.2,70.8 100.4,70.8 100.4,75.9 105.1,75.9 105.1,70.8 110.3,70.8 110.3,86.3 
			105.1,86.3 105.1,81.1 100.4,81.1 100.4,86.3 95.2,86.3 95.2,70.8 95.2,70.8 		"/>
		<polygon id="XMLID_9_" class="graphic" points="117.1,75.9 112.6,75.9 112.6,70.8 126.9,70.8 126.9,75.9 122.3,75.9 122.3,86.3 
			117.1,86.3 117.1,75.9 117.1,75.9 		"/>
		<polygon id="XMLID_10_" class="graphic" points="129.2,70.8 134.6,70.8 137.9,76.2 141.3,70.8 146.7,70.8 146.7,86.3 141.5,86.3 
			141.5,78.6 137.9,84.1 137.8,84.1 134.3,78.6 134.3,86.3 129.2,86.3 129.2,70.8 		"/>
		<polygon id="XMLID_11_" class="graphic" points="149.3,70.8 154.5,70.8 154.5,81.2 161.8,81.2 161.8,86.3 149.3,86.3 149.3,70.8 
					"/>
		<polygon id="XMLID_12_" class="theme" points="128.4,131.1 128.4,141.4 141,141.4 139.8,154.6 128.4,157.7 128.4,168.3 
			149.3,162.5 149.5,160.8 151.9,133.9 152.1,131.1 149.4,131.1 128.4,131.1 		"/>
		<polygon id="XMLID_13_" class="theme" points="128.4,110.5 128.4,116.8 128.4,120.7 128.4,120.7 153,120.7 153,120.7 153.1,120.7 
			153.3,118.4 153.7,113.2 154,110.5 128.4,110.5 		"/>
	</g>
</g>
</svg>
