<?xml version="1.0" encoding="utf-8"?>
<!-- Generator: Adobe Illustrator 19.0.1, SVG Export Plug-In . SVG Version: 6.00 Build 0)  -->
<!DOCTYPE svg PUBLIC "-//W3C//DTD SVG 1.1//EN" "http://www.w3.org/Graphics/SVG/1.1/DTD/svg11.dtd">
<svg version="1.1" id="chart" xmlns="http://www.w3.org/2000/svg" xmlns:xlink="http://www.w3.org/1999/xlink" x="0px" y="0px"
	 viewBox="0 0 256.8 256.8" enable-background="new 0 0 256.8 256.8" xml:space="preserve">
<circle id="slice" fill="none" stroke="#9AC6E2" stroke-width="30" stroke-miterlimit="10" cx="128.4" cy="128.4" r="113.4"/>
<path id="html5_1_" fill="#FFFFFF" d="M87.6,93.4l7.4,83.3l33.3,9.3l33.4-9.3l7.4-83.3H87.6z M103,113.2l-0.2-2.7h25.6v6.3v3.8v0
	h-14.4l0.9,10.5h13.5v10.2h-22.8L103,113.2z M151.9,133.9l-2.4,26.9l-0.2,1.7l-20.9,5.8v0l0,0l-20.9-5.8l-1.4-16.1h4.7h5.5l0.7,8.2
	l11.4,3.1l0,0v0l11.4-3.1l1.2-13.3h-12.6v-10.2h21h2.8L151.9,133.9z M153.7,113.2l-0.5,5.2l-0.2,2.3h0h-24.6v-10.2H154L153.7,113.2z
	 M95.2,86.3V70.8h5.2v5.1h4.8v-5.1h5.2v15.5h-5.2v-5.2h-4.8v5.2H95.2z M117.1,75.9h-4.6v-5.2h14.3v5.2h-4.6v10.4h-5.2L117.1,75.9
	L117.1,75.9z M134.3,86.3h-5.1V70.8h5.4l3.3,5.5l3.3-5.5h5.4v15.5h-5.2v-7.7l-3.6,5.5h-0.1l-3.6-5.5V86.3z M161.8,86.3h-12.5V70.8
	h5.2v10.4h7.3V86.3z M128.4,157.7v10.6l0,0L128.4,157.7L128.4,157.7z"/>
</svg>
