<?xml version="1.0" encoding="utf-8"?>
<!-- Generator: Adobe Illustrator 19.0.0, SVG Export Plug-In . SVG Version: 6.00 Build 0)  -->
<!DOCTYPE svg PUBLIC "-//W3C//DTD SVG 1.1//EN" "http://www.w3.org/Graphics/SVG/1.1/DTD/svg11.dtd">
<svg version="1.1" id="Layer_1" xmlns="http://www.w3.org/2000/svg" xmlns:xlink="http://www.w3.org/1999/xlink" x="0px" y="0px"
	 viewBox="0 0 257.2 257.1" enable-background="new 0 0 257.2 257.1" xml:space="preserve">
<g>
	<g id="chart">
		<circle id="XMLID_3_" fill="none" stroke="#E4EAEC" stroke-width="30" stroke-miterlimit="10" cx="128.6" cy="128.6" r="113.4"/>
		<path id="XMLID_35_" fill="none" stroke="#9AC6E2" stroke-width="30" stroke-miterlimit="10" d="M128.6,15.2
			c62.6,0,113.4,50.8,113.4,113.4S191.2,242,128.6,242S15.2,191.2,15.2,128.6c0-39.1,19.8-73.7,50-94"/>
	</g>
	<g id="js_symbol">
		<defs>
			<rect id="XMLID_17_" x="84.9" y="75.2" width="108.9" height="107.1"/>
		</defs>
		<clipPath id="XMLID_2_">
			<use xlink:href="#XMLID_17_"  overflow="visible"/>
		</clipPath>
		<path id="XMLID_11_" clip-path="url(#XMLID_2_)" fill="#FFFFFF" d="M187.4,98.3h0.8v-3.9c0-0.2,0-0.4,0-0.7c0-0.3,0-0.6,0-0.7
			v-0.2l1.9,5.5h0.9l1.9-5.5c0,0.4,0,0.7,0,1c0,0.3,0,0.5,0,0.7v3.9h0.8v-6.6h-1.3l-1.9,5.5l-1.9-5.5h-1.3V98.3L187.4,98.3z
			 M181.3,91.7v0.8h2.2v5.8h0.9v-5.8h2.2v-0.8H181.3L181.3,91.7z M164,137.6c0-8.5-5.7-10.7-17.8-12.3c-12.2-1.6-13.4-2.4-13.4-5.3
			c0-2.4,1-5.5,10.1-5.5c8.1,0,11,1.7,12.3,7.2c0.1,0.5,0.6,0.9,1.1,0.9h5.1c0.3,0,0.6-0.1,0.8-0.4c0.2-0.2,0.3-0.6,0.3-0.9
			c-0.8-9.4-7-13.7-19.6-13.7c-11.2,0-17.9,4.7-17.9,12.6c0,8.6,6.6,11,17.4,12c12.9,1.3,13.9,3.1,13.9,5.7c0,4.4-3.5,6.3-11.8,6.3
			c-10.4,0-12.7-2.6-13.4-7.8c-0.1-0.6-0.6-1-1.1-1h-5.1c-0.6,0-1.1,0.5-1.1,1.1c0,6.6,3.6,14.5,20.8,14.5
			C156.9,151.1,164,146.2,164,137.6L164,137.6z M132.3,182.3c-1.4,0-2.9-0.4-4.1-1.1l-13.1-7.8c-2-1.1-1-1.5-0.4-1.7
			c2.6-0.9,3.1-1.1,5.9-2.7c0.3-0.2,0.7-0.1,1,0.1l10.1,6c0.4,0.2,0.9,0.2,1.2,0l39.3-22.7c0.4-0.2,0.6-0.6,0.6-1.1v-45.3
			c0-0.4-0.2-0.9-0.6-1.1L133,82.3c-0.4-0.2-0.8-0.2-1.2,0L92.5,105c-0.4,0.2-0.6,0.6-0.6,1.1v45.3c0,0.4,0.2,0.8,0.6,1l10.8,6.2
			c5.8,2.9,9.4-0.5,9.4-4v-44.7c0-0.6,0.5-1.1,1.1-1.1h5c0.6,0,1.1,0.5,1.1,1.1v44.7c0,7.8-4.2,12.3-11.6,12.3c-2.3,0-4.1,0-9-2.5
			L89,158.5c-2.5-1.5-4.1-4.2-4.1-7.2v-45.3c0-2.9,1.6-5.7,4.1-7.2l39.3-22.7c2.5-1.4,5.8-1.4,8.3,0l39.3,22.7
			c2.5,1.5,4.1,4.2,4.1,7.2v45.3c0,2.9-1.6,5.7-4.1,7.2l-39.3,22.7C135.2,181.9,133.8,182.3,132.3,182.3L132.3,182.3z"/>
	</g>
</g>
</svg>
