<?xml version="1.0" encoding="utf-8"?>
<!-- Generator: Adobe Illustrator 19.0.1, SVG Export Plug-In . SVG Version: 6.00 Build 0)  -->
<!DOCTYPE svg PUBLIC "-//W3C//DTD SVG 1.1//EN" "http://www.w3.org/Graphics/SVG/1.1/DTD/svg11.dtd">
<svg version="1.1" id="chart" xmlns="http://www.w3.org/2000/svg" xmlns:xlink="http://www.w3.org/1999/xlink" x="0px" y="0px"
	 viewBox="0 0 256.8 256.8" enable-background="new 0 0 256.8 256.8" xml:space="preserve">
<circle id="slice" fill="none" stroke="#9AC6E2" stroke-width="30" stroke-miterlimit="10" cx="128.4" cy="128.4" r="113.4"/>
<path id="_x2E_net" fill="#FFFFFF" d="M180.7,106.2c-0.9,0-1.6,0.3-2.2,0.9c-0.6,0.6-0.9,1.3-0.9,2.1c0,0.9,0.3,1.6,0.9,2.1
	c0.6,0.6,1.3,0.8,2.2,0.8c0.9,0,1.6-0.3,2.2-0.9c0.6-0.6,0.9-1.3,0.9-2.1c0-0.9-0.3-1.6-0.9-2.1
	C182.3,106.5,181.5,106.2,180.7,106.2 M182.6,111.1c-0.5,0.5-1.1,0.8-1.9,0.8c-0.7,0-1.4-0.3-1.9-0.8c-0.5-0.5-0.8-1.2-0.8-1.9
	c0-0.8,0.3-1.4,0.8-1.9c0.5-0.5,1.1-0.8,1.9-0.8c0.7,0,1.4,0.3,1.9,0.8c0.5,0.5,0.8,1.1,0.8,1.9C183.4,110,183.1,110.6,182.6,111.1
	 M181,109.4L181,109.4c0.3-0.1,0.5-0.2,0.7-0.4c0.2-0.2,0.3-0.4,0.3-0.7c0-0.3-0.1-0.5-0.3-0.7c-0.2-0.2-0.6-0.3-1.1-0.3h-1.1v3.8
	h0.5v-1.6h0.4c0.2,0,0.5,0.2,0.7,0.7l0.4,0.9h0.7l-0.5-1C181.4,109.7,181.2,109.4,181,109.4 M180.6,109H180v-1.3h0.5
	c0.3,0,0.6,0.1,0.7,0.2c0.1,0.1,0.2,0.3,0.2,0.5C181.4,108.8,181.2,109,180.6,109 M87.1,109.3c0-1.4,0-2.5-0.1-3.1h0
	c0.2,0.7,0.3,1.3,0.5,1.6l5.4,12.1h0.9l5.4-12.2c0.1-0.3,0.3-0.8,0.5-1.5h0c-0.1,1.2-0.2,2.2-0.2,3.1v10.7h1.9v-15.9h-2.3l-5,11
	c-0.2,0.4-0.4,1.1-0.8,1.9h-0.1c-0.1-0.4-0.4-1.1-0.7-1.9l-4.9-11.1h-2.5v15.9h1.8V109.3z M105.4,119.9h1.8v-11.3h-1.8V119.9z
	 M106.4,105.7c0.3,0,0.6-0.1,0.8-0.3c0.2-0.2,0.3-0.5,0.3-0.8c0-0.3-0.1-0.6-0.3-0.8c-0.2-0.2-0.5-0.3-0.8-0.3
	c-0.3,0-0.6,0.1-0.8,0.3c-0.2,0.2-0.3,0.5-0.3,0.8c0,0.3,0.1,0.6,0.3,0.9C105.8,105.6,106,105.7,106.4,105.7 M115.5,120.2
	c1.2,0,2.2-0.3,3.1-0.8v-1.7c-0.9,0.7-1.8,1-2.8,1c-1.2,0-2.1-0.4-2.8-1.2c-0.7-0.8-1-1.8-1-3.1c0-1.4,0.4-2.5,1.1-3.3
	c0.7-0.8,1.7-1.2,2.8-1.2c1,0,1.9,0.3,2.7,0.9v-1.9c-0.8-0.4-1.6-0.6-2.6-0.6c-1.8,0-3.2,0.6-4.3,1.7c-1.1,1.1-1.6,2.6-1.6,4.5
	c0,1.7,0.5,3,1.5,4.1C112.5,119.7,113.8,120.2,115.5,120.2 M124.4,109c-0.6,0.5-1,1.1-1.2,1.9h0v-2.3h-1.8v11.3h1.8v-5.8
	c0-1.3,0.3-2.3,0.9-3.1c0.5-0.7,1.1-1,1.9-1c0.6,0,1.1,0.1,1.4,0.4v-1.9c-0.2-0.1-0.6-0.2-1.1-0.2
	C125.5,108.4,124.9,108.6,124.4,109 M133.6,120.2c1.7,0,3.1-0.5,4.1-1.6c1-1.1,1.5-2.5,1.5-4.4c0-1.8-0.5-3.3-1.4-4.3
	c-1-1-2.3-1.6-4-1.6c-1.7,0-3.1,0.5-4.1,1.5c-1.1,1.1-1.7,2.6-1.7,4.6c0,1.7,0.5,3.1,1.5,4.2C130.5,119.7,131.9,120.2,133.6,120.2
	 M131,111c0.7-0.7,1.6-1.1,2.7-1.1c1.1,0,2,0.4,2.7,1.1c0.7,0.8,1,1.9,1,3.3c0,1.4-0.3,2.5-0.9,3.2c-0.6,0.8-1.5,1.2-2.7,1.2
	c-1.2,0-2.1-0.4-2.8-1.1c-0.7-0.8-1-1.8-1-3.2C129.9,112.9,130.3,111.8,131,111 M147.2,119.2c0.7-0.6,1-1.4,1-2.3
	c0-0.8-0.3-1.5-0.8-2.1c-0.4-0.4-1.1-0.9-2.1-1.3c-0.9-0.4-1.4-0.7-1.7-0.9c-0.3-0.3-0.5-0.7-0.5-1.2c0-0.5,0.2-0.8,0.5-1.1
	c0.4-0.3,0.8-0.4,1.4-0.4c1,0,1.8,0.3,2.6,0.8v-1.8c-0.7-0.4-1.5-0.5-2.4-0.5c-1.2,0-2.1,0.3-2.9,0.9c-0.7,0.6-1.1,1.4-1.1,2.3
	c0,0.8,0.2,1.5,0.7,2.1c0.4,0.4,1.1,0.9,2,1.3c0.9,0.4,1.5,0.8,1.9,1c0.3,0.3,0.5,0.7,0.5,1.1c0,1.1-0.7,1.6-2.2,1.6
	c-1.1,0-2.1-0.4-2.9-1.1v2c0.8,0.5,1.7,0.7,2.8,0.7C145.4,120.2,146.4,119.9,147.2,119.2 M159.7,118.6c1-1.1,1.5-2.5,1.5-4.4
	c0-1.8-0.5-3.3-1.4-4.3c-0.9-1-2.3-1.6-4-1.6c-1.7,0-3.1,0.5-4.1,1.5c-1.1,1.1-1.7,2.6-1.7,4.6c0,1.7,0.5,3.1,1.5,4.2
	c1,1.1,2.4,1.6,4.1,1.6C157.3,120.2,158.6,119.7,159.7,118.6 M151.9,114.3c0-1.4,0.4-2.6,1.1-3.4c0.7-0.7,1.6-1.1,2.7-1.1
	c1.1,0,2,0.4,2.7,1.1c0.7,0.8,1,1.9,1,3.3c0,1.4-0.3,2.5-0.9,3.2c-0.6,0.8-1.5,1.2-2.7,1.2c-1.2,0-2.1-0.4-2.8-1.1
	C152.2,116.8,151.9,115.7,151.9,114.3 M164.3,119.9h1.8v-9.8h2.7v-1.5h-2.7v-1.7c0-1.6,0.6-2.4,1.9-2.4c0.5,0,0.8,0.1,1.2,0.3v-1.6
	c-0.3-0.1-0.8-0.2-1.3-0.2c-1,0-1.8,0.3-2.5,0.9c-0.8,0.7-1.2,1.7-1.2,2.9v1.8h-1.9v1.5h1.9V119.9z M171.7,116.8c0,2.2,1,3.3,3,3.3
	c0.7,0,1.3-0.1,1.7-0.4v-1.5c-0.3,0.2-0.7,0.4-1.2,0.4c-0.6,0-1-0.2-1.3-0.5c-0.3-0.3-0.4-0.9-0.4-1.6v-6.4h2.9v-1.5h-2.9v-3.4
	c-0.6,0.2-1.2,0.4-1.8,0.6v2.8h-1.9v1.5h1.9V116.8z M74.9,160.9c-0.9,0-1.6,0.3-2.3,1c-0.6,0.6-0.9,1.4-0.9,2.3
	c0,0.9,0.3,1.7,0.9,2.3c0.6,0.6,1.4,1,2.3,1c0.9,0,1.7-0.3,2.3-1c0.6-0.6,1-1.4,1-2.3c0-0.9-0.3-1.7-1-2.3
	C76.6,161.3,75.8,160.9,74.9,160.9 M114,154.5c0,2.9,0.1,4.9,0.3,6.1h-0.1c-0.3-0.6-0.9-1.5-1.7-2.8l-20.9-32.7h-6.3v41.7h4.9v-30.1
	c0-2.9-0.1-4.8-0.2-5.7h0.2c0.4,0.9,0.8,1.8,1.3,2.6l21.5,33.2h5.9v-41.7H114V154.5z M132.9,147.9h15v-4.4h-15v-13.9h16.2v-4.4
	h-21.1v41.7h22.1v-4.4h-17.2V147.9z M154.7,129.6h12v37.2h4.9v-37.2h12v-4.4h-28.9V129.6z M178.7,93.3h0.5v-3.6h1.2v-0.4h-2.8v0.4
	h1.2V93.3z M184.5,89.3l-1.3,2.8c0,0.1-0.1,0.3-0.2,0.5h0c0-0.1-0.1-0.3-0.2-0.5l-1.2-2.8H181v4.1h0.5v-2.7c0-0.4,0-0.6,0-0.8h0
	c0,0.2,0.1,0.3,0.1,0.4l1.4,3.1h0.2l1.4-3.1c0-0.1,0.1-0.2,0.1-0.4h0c0,0.3,0,0.6,0,0.8v2.7h0.5v-4.1H184.5z"/>
</svg>
