<?xml version="1.0" encoding="utf-8"?>
<!-- Generator: Adobe Illustrator 19.0.1, SVG Export Plug-In . SVG Version: 6.00 Build 0)  -->
<!DOCTYPE svg PUBLIC "-//W3C//DTD SVG 1.1//EN" "http://www.w3.org/Graphics/SVG/1.1/DTD/svg11.dtd">
<svg version="1.1" id="Layer_1" xmlns="http://www.w3.org/2000/svg" xmlns:xlink="http://www.w3.org/1999/xlink" x="0px" y="0px"
	 viewBox="0 0 256.8 256.8" enable-background="new 0 0 256.8 256.8" xml:space="preserve">
<circle id="XMLID_2_" fill="none" stroke="#E4EAEC" stroke-width="30" stroke-miterlimit="10" cx="128.4" cy="128.4" r="113.4"/>
<path id="XMLID_44_" fill="none" stroke="#9AC6E2" stroke-width="30" stroke-miterlimit="10" d="M128.4,15
	c62.6,0,113.4,50.8,113.4,113.4S191,241.8,128.4,241.8c-38.8,0-73-19.5-93.5-49.2"/>
<g id="XMLID_28_">
	<g id="XMLID_5_">
		<defs>
			<rect id="XMLID_27_" x="58.1" y="79.2" width="140.6" height="98.4"/>
		</defs>
		<clipPath id="XMLID_3_">
			<use xlink:href="#XMLID_27_"  overflow="visible"/>
		</clipPath>
		<g id="XMLID_6_" clip-path="url(#XMLID_3_)">
			<defs>
				<rect id="XMLID_26_" x="58.1" y="79.2" width="140.6" height="98.4"/>
			</defs>
			<clipPath id="XMLID_4_">
				<use xlink:href="#XMLID_26_"  overflow="visible"/>
			</clipPath>
			<path id="XMLID_7_" clip-path="url(#XMLID_4_)" fill="#FFFFFF" d="M116.6,89.9c4.5-4.7,10.8-7.7,17.8-7.7
				c9.3,0,17.4,5.2,21.7,12.9c3.7-1.7,7.9-2.6,12.3-2.6c16.7,0,30.3,13.7,30.3,30.6c0,16.9-13.6,30.6-30.3,30.6c-2,0-4-0.2-6-0.6
				c-3.8,6.8-11,11.4-19.3,11.4c-3.5,0-6.8-0.8-9.7-2.2c-3.8,9.1-12.8,15.4-23.3,15.4c-10.9,0-20.2-6.9-23.7-16.5
				c-1.6,0.3-3.2,0.5-4.8,0.5c-13,0-23.5-10.6-23.5-23.7c0-8.8,4.7-16.4,11.7-20.5c-1.4-3.3-2.2-7-2.2-10.8
				c0-15.1,12.2-27.3,27.3-27.3C103.7,79.2,111.6,83.4,116.6,89.9"/>
			<path id="XMLID_8_" clip-path="url(#XMLID_4_)" fill-rule="evenodd" clip-rule="evenodd" fill="#23A7E0" d="M78.5,130.2
				c-0.1,0.2,0,0.3,0.1,0.3c0.3,0.2,0.5,0.3,0.8,0.5c1.4,0.8,2.8,1,4.2,1c2.9,0,4.7-1.5,4.7-4v0c0-2.3-2-3.1-3.9-3.7l-0.2-0.1
				c-1.4-0.5-2.7-0.9-2.7-1.8v0c0-0.8,0.7-1.4,1.8-1.4c1.2,0,2.7,0.4,3.7,0.9c0,0,0.3,0.2,0.4-0.1c0.1-0.1,0.5-1.4,0.6-1.6
				c0.1-0.2,0-0.3-0.1-0.3c-1.1-0.7-2.6-1.1-4.1-1.1l-0.3,0c-2.6,0-4.5,1.6-4.5,3.9v0c0,2.4,2,3.2,3.9,3.7l0.3,0.1
				c1.4,0.4,2.6,0.8,2.6,1.8v0c0,0.9-0.8,1.6-2,1.6c-0.5,0-2,0-3.7-1.1c-0.2-0.1-0.3-0.2-0.5-0.3c-0.1-0.1-0.3-0.1-0.4,0.1
				L78.5,130.2z"/>
			<path id="XMLID_9_" clip-path="url(#XMLID_4_)" fill-rule="evenodd" clip-rule="evenodd" fill="#23A7E0" d="M120.7,130.2
				c-0.1,0.2,0,0.3,0.1,0.3c0.3,0.2,0.5,0.3,0.8,0.5c1.4,0.8,2.8,1,4.2,1c2.9,0,4.7-1.5,4.7-4v0c0-2.3-2-3.1-3.9-3.7l-0.2-0.1
				c-1.4-0.5-2.7-0.9-2.7-1.8v0c0-0.8,0.7-1.4,1.8-1.4c1.2,0,2.7,0.4,3.7,0.9c0,0,0.3,0.2,0.4-0.1c0.1-0.1,0.5-1.4,0.6-1.6
				c0.1-0.2,0-0.3-0.1-0.3c-1.1-0.7-2.6-1.1-4.1-1.1l-0.3,0c-2.6,0-4.5,1.6-4.5,3.9v0c0,2.4,2,3.2,3.9,3.7l0.3,0.1
				c1.4,0.4,2.6,0.8,2.6,1.8v0c0,0.9-0.8,1.6-2,1.6c-0.5,0-2,0-3.7-1.1c-0.2-0.1-0.3-0.2-0.5-0.3c-0.1,0-0.3-0.1-0.4,0.1
				L120.7,130.2z"/>
			<path id="XMLID_10_" clip-path="url(#XMLID_4_)" fill-rule="evenodd" clip-rule="evenodd" fill="#23A7E0" d="M151.9,122.8
				c-0.2-0.8-0.6-1.5-1.1-2.1c-0.5-0.6-1.1-1.1-1.8-1.4c-0.7-0.3-1.6-0.5-2.6-0.5c-1,0-1.8,0.2-2.6,0.5c-0.7,0.3-1.4,0.8-1.8,1.4
				c-0.5,0.6-0.9,1.3-1.1,2.1c-0.2,0.8-0.4,1.7-0.4,2.6s0.1,1.8,0.4,2.6c0.2,0.8,0.6,1.5,1.1,2.1c0.5,0.6,1.1,1.1,1.8,1.4
				c0.7,0.3,1.6,0.5,2.6,0.5c1,0,1.8-0.2,2.6-0.5c0.7-0.3,1.4-0.8,1.8-1.4c0.5-0.6,0.9-1.3,1.1-2.1c0.2-0.8,0.4-1.7,0.4-2.6
				S152.2,123.6,151.9,122.8 M149.5,125.4c0,1.4-0.3,2.5-0.8,3.3c-0.5,0.8-1.3,1.1-2.3,1.1c-1.1,0-1.8-0.4-2.3-1.1
				c-0.5-0.8-0.8-1.9-0.8-3.3c0-1.4,0.3-2.5,0.8-3.3c0.5-0.8,1.3-1.1,2.3-1.1c1.1,0,1.8,0.4,2.3,1.1
				C149.3,122.9,149.5,124,149.5,125.4"/>
			<path id="XMLID_13_" clip-path="url(#XMLID_4_)" fill-rule="evenodd" clip-rule="evenodd" fill="#23A7E0" d="M171.7,129.4
				c-0.1-0.2-0.3-0.1-0.3-0.1c-0.3,0.1-0.7,0.3-1.1,0.3c-0.4,0.1-0.8,0.1-1.3,0.1c-1.2,0-2.1-0.3-2.8-1c-0.7-0.7-1-1.8-1-3.3
				c0-1.4,0.3-2.4,0.9-3.2c0.6-0.8,1.5-1.2,2.7-1.2c1,0,1.8,0.1,2.5,0.4c0,0,0.2,0.1,0.3-0.2c0.2-0.6,0.4-1,0.6-1.6
				c0.1-0.2-0.1-0.3-0.2-0.3c-0.3-0.1-1-0.3-1.6-0.4c-0.5-0.1-1.1-0.1-1.8-0.1c-1,0-1.9,0.2-2.7,0.5c-0.8,0.3-1.4,0.8-1.9,1.4
				c-0.5,0.6-0.9,1.3-1.2,2.1c-0.3,0.8-0.4,1.7-0.4,2.6c0,2,0.5,3.6,1.6,4.8c1.1,1.2,2.7,1.8,4.8,1.8c1.2,0,2.5-0.3,3.4-0.6
				c0,0,0.2-0.1,0.1-0.3L171.7,129.4z"/>
			<path id="XMLID_14_" clip-path="url(#XMLID_4_)" fill-rule="evenodd" clip-rule="evenodd" fill="#23A7E0" d="M184,122.3
				c-0.2-0.8-0.7-1.6-1-1.9c-0.5-0.6-1-1-1.5-1.2c-0.7-0.3-1.5-0.5-2.3-0.5c-1,0-1.9,0.2-2.7,0.5c-0.8,0.4-1.4,0.8-1.9,1.4
				c-0.5,0.6-0.9,1.3-1.1,2.1c-0.2,0.8-0.4,1.7-0.4,2.6c0,0.9,0.1,1.8,0.4,2.6c0.2,0.8,0.6,1.5,1.2,2.1c0.5,0.6,1.2,1,2.1,1.4
				c0.8,0.3,1.8,0.5,3,0.5c2.4,0,3.6-0.5,4.1-0.8c0.1-0.1,0.2-0.1,0.1-0.4l-0.5-1.5c-0.1-0.2-0.3-0.1-0.3-0.1
				c-0.6,0.2-1.4,0.6-3.3,0.6c-1.3,0-2.2-0.4-2.8-1c-0.6-0.6-0.9-1.5-0.9-2.7l8.1,0c0,0,0.2,0,0.2-0.2
				C184.3,125.8,184.5,124.2,184,122.3 M175.9,124.1c0.1-0.8,0.3-1.4,0.7-1.9c0.5-0.8,1.3-1.2,2.3-1.2c1.1,0,1.8,0.4,2.3,1.2
				c0.3,0.5,0.5,1.2,0.5,1.9L175.9,124.1z"/>
			<path id="XMLID_17_" clip-path="url(#XMLID_4_)" fill-rule="evenodd" clip-rule="evenodd" fill="#23A7E0" d="M118.7,122.3
				c-0.2-0.8-0.7-1.6-1-1.9c-0.5-0.6-1-1-1.5-1.2c-0.7-0.3-1.5-0.5-2.3-0.5c-1,0-1.9,0.2-2.7,0.5c-0.8,0.4-1.4,0.8-1.9,1.4
				c-0.5,0.6-0.9,1.3-1.1,2.1c-0.2,0.8-0.4,1.7-0.4,2.6c0,0.9,0.1,1.8,0.4,2.6c0.2,0.8,0.6,1.5,1.2,2.1c0.5,0.6,1.2,1,2.1,1.4
				c0.8,0.3,1.8,0.5,3,0.5c2.4,0,3.6-0.5,4.1-0.8c0.1-0.1,0.2-0.1,0.1-0.4l-0.5-1.5c-0.1-0.2-0.3-0.1-0.3-0.1
				c-0.6,0.2-1.4,0.6-3.3,0.6c-1.3,0-2.2-0.4-2.8-1c-0.6-0.6-0.9-1.5-0.9-2.7l8.1,0c0,0,0.2,0,0.2-0.2
				C119,125.8,119.3,124.2,118.7,122.3 M110.6,124.1c0.1-0.8,0.3-1.4,0.7-1.9c0.5-0.8,1.3-1.2,2.3-1.2c1.1,0,1.8,0.4,2.3,1.2
				c0.3,0.5,0.5,1.2,0.5,1.9L110.6,124.1z"/>
			<path id="XMLID_20_" clip-path="url(#XMLID_4_)" fill-rule="evenodd" clip-rule="evenodd" fill="#23A7E0" d="M96.3,123.7
				c-0.3,0-0.8,0-1.3,0c-0.7,0-1.4,0.1-2,0.3c-0.6,0.2-1.2,0.4-1.7,0.8c-0.5,0.4-0.9,0.8-1.2,1.3c-0.3,0.5-0.4,1.2-0.4,1.9
				c0,0.7,0.1,1.3,0.4,1.9c0.2,0.5,0.6,0.9,1.1,1.3c0.5,0.3,1,0.6,1.7,0.7c0.6,0.1,1.4,0.2,2.2,0.2c0.8,0,1.7-0.1,2.5-0.2
				c0.8-0.1,1.8-0.3,2.1-0.4c0.3-0.1,0.6-0.1,0.6-0.1c0.2-0.1,0.2-0.3,0.2-0.3l0-7.5c0-1.6-0.4-2.8-1.3-3.6
				c-0.9-0.7-2.1-1.1-3.7-1.1c-0.6,0-1.6,0.1-2.2,0.2c0,0-1.8,0.3-2.5,0.9c0,0-0.2,0.1-0.1,0.3l0.6,1.5c0.1,0.2,0.3,0.1,0.3,0.1
				s0.1,0,0.1-0.1c1.6-0.9,3.6-0.8,3.6-0.8c0.9,0,1.6,0.2,2,0.5c0.4,0.3,0.7,0.9,0.7,1.9v0.3C96.9,123.7,96.3,123.7,96.3,123.7
				 M93,129.4c-0.3-0.3-0.4-0.3-0.5-0.5c-0.2-0.3-0.2-0.6-0.2-1.1c0-0.7,0.2-1.2,0.7-1.6c0,0,0.7-0.6,2.4-0.6c1.2,0,2.2,0.2,2.2,0.2
				v3.7c0,0-1,0.2-2.2,0.3C93.7,130,93,129.4,93,129.4"/>
			<path id="XMLID_23_" clip-path="url(#XMLID_4_)" fill-rule="evenodd" clip-rule="evenodd" fill="#23A7E0" d="M162,119.5
				c0.1-0.2-0.1-0.3-0.1-0.3c-0.1-0.1-0.8-0.2-1.4-0.2c-1-0.1-1.6,0.1-2.1,0.3c-0.5,0.2-1.1,0.6-1.4,1l0-1c0-0.1-0.1-0.2-0.2-0.2
				h-2.1c-0.1,0-0.2,0.1-0.2,0.2v12.2c0,0.1,0.1,0.2,0.2,0.2h2.1c0.1,0,0.2-0.1,0.2-0.2v-6.1c0-0.8,0.1-1.6,0.3-2.1
				c0.2-0.5,0.4-0.9,0.7-1.2c0.3-0.3,0.6-0.5,1-0.6c0.4-0.1,0.8-0.2,1.1-0.2c0.4,0,0.9,0.1,0.9,0.1c0.2,0,0.2-0.1,0.3-0.2
				C161.5,120.8,161.9,119.7,162,119.5"/>
			<path id="XMLID_24_" clip-path="url(#XMLID_4_)" fill-rule="evenodd" clip-rule="evenodd" fill="#23A7E0" d="M141.9,113.8
				c-0.3-0.1-0.5-0.1-0.8-0.2c-0.3-0.1-0.7-0.1-1.1-0.1c-1.5,0-2.6,0.4-3.5,1.2c-0.8,0.8-1.4,2.1-1.6,3.7l-0.1,0.6h-1.8
				c0,0-0.2,0-0.3,0.2l-0.3,1.7c0,0.2,0,0.3,0.3,0.3h1.8l-1.8,10.2c-0.1,0.8-0.3,1.5-0.5,2c-0.2,0.5-0.4,0.9-0.6,1.2
				c-0.2,0.3-0.4,0.5-0.7,0.6c-0.3,0.1-0.6,0.1-1,0.1c-0.2,0-0.5,0-0.7-0.1c-0.2,0-0.3-0.1-0.4-0.1c0,0-0.2-0.1-0.3,0.1
				c-0.1,0.2-0.5,1.5-0.6,1.7c-0.1,0.2,0,0.3,0.1,0.3c0.2,0.1,0.4,0.1,0.7,0.2c0.5,0.1,0.8,0.1,1.2,0.1c0.8,0,1.4-0.1,2-0.3
				c0.6-0.2,1.1-0.6,1.5-1c0.5-0.5,0.8-1.1,1.1-1.8c0.3-0.7,0.5-1.7,0.7-2.7l1.8-10.4h2.7c0,0,0.2,0,0.3-0.2l0.3-1.7
				c0-0.2,0-0.3-0.3-0.3h-2.6c0-0.1,0.1-1,0.4-1.8c0.1-0.4,0.4-0.7,0.6-0.9c0.2-0.2,0.4-0.3,0.7-0.4c0.3-0.1,0.6-0.1,0.9-0.1
				c0.2,0,0.5,0,0.7,0.1c0.3,0.1,0.4,0.1,0.4,0.1c0.3,0.1,0.3,0,0.4-0.1l0.6-1.7C142.1,113.9,142,113.9,141.9,113.8"/>
			<path id="XMLID_25_" clip-path="url(#XMLID_4_)" fill-rule="evenodd" clip-rule="evenodd" fill="#23A7E0" d="M105.5,131.5
				c0,0.1-0.1,0.2-0.2,0.2h-2.2c-0.1,0-0.2-0.1-0.2-0.2v-17.4c0-0.1,0.1-0.2,0.2-0.2h2.2c0.1,0,0.2,0.1,0.2,0.2V131.5z"/>
		</g>
	</g>
</g>
</svg>
